<?xml version="1.0" encoding="utf-8"?>
<!-- Generator: Adobe Illustrator 25.4.1, SVG Export Plug-In . SVG Version: 6.00 Build 0)  -->
<svg version="1.1" id="Layer_1" xmlns="http://www.w3.org/2000/svg" xmlns:xlink="http://www.w3.org/1999/xlink" x="0px" y="0px"
	 viewBox="0 0 1920 1080" style="enable-background:new 0 0 1920 1080;" xml:space="preserve">
<style type="text/css">
	.st0{fill:#9DEEFF;}
	
		.st1{fill:none;stroke:#00ACCE;stroke-width:0.8253;stroke-linecap:round;stroke-linejoin:round;stroke-miterlimit:10;stroke-dasharray:2.4758;}
	.st2{fill:#468787;}
	.st3{fill:#93C0BD;}
	.st4{fill:#987357;}
	.st5{fill:#755642;}
	.st6{fill:#ED9572;}
	.st7{fill:#8C021F;}
	.st8{fill:none;stroke:#8C5938;stroke-width:0.8253;stroke-linecap:round;stroke-linejoin:round;}
	.st9{fill:none;stroke:#8C5938;stroke-width:0.8253;stroke-linecap:round;stroke-linejoin:round;stroke-dasharray:2.4503,2.4503;}
	.st10{fill:none;stroke:#8C5938;stroke-width:0.8253;stroke-linecap:round;stroke-linejoin:round;stroke-miterlimit:10;}
	.st11{fill:#45268D;}
	.st12{fill:#7772D4;}
	.st13{fill:#561A1A;}
	.st14{fill:none;}
	.st15{fill:#FF2659;}
	.st16{fill:#00576E;}
	.st17{fill:#F3D6B2;}
	.st18{fill:#184D9C;}
	.st19{fill:none;stroke:#8E323C;stroke-width:0.8253;stroke-linecap:round;stroke-miterlimit:10;}
	.st20{fill:none;stroke:#F3D6B2;stroke-width:2.4758;stroke-linecap:round;stroke-miterlimit:10;}
	.st21{fill:none;stroke:#561A1A;stroke-width:0.8253;stroke-linecap:round;stroke-miterlimit:10;}
	.st22{fill:#E1735E;}
	.st23{fill:#5787FB;}
	.st24{fill:none;stroke:#5787FB;stroke-width:0.8253;stroke-linecap:round;stroke-miterlimit:10;}
	.st25{fill:#353535;}
	.st26{fill:#505050;}
</style>
<path class="st0" d="M1919,607.67c-18.24,34.66-96.22,67.49-165.53,37.85c-107.87-46.13-193.58-177.72-356.59-166.9
	c-233.47,15.5-202.62,252.59-309.17,330.14C953.65,906.35,904.86,991.17,898.47,1081c121.75,0,1020.53,0,1020.53,0V607.67z"/>
<g>
	<g>
		<path class="st1" d="M1209.75,575.46c0,0-63.43,35.14-61.29,235.13"/>
		<path class="st1" d="M1165.84,807.09c0,0-21.19-158.92,47.55-226.94"/>
		<path class="st1" d="M1213.4,576.74c0,0-68,41.82-55.45,228.43"/>
	</g>
	<g>
		<g>
			<g>
				<path class="st2" d="M1122.46,685.07c0,0,19.78,14.54,22.9,22.11c0,0,15.54-30.8-0.99-47.31L1122.46,685.07z"/>
				<path class="st3" d="M1091.41,691.74c0,0,31.7-0.99,41.69-10.69c9.98-9.7,11.27-21.18,11.27-21.18s-22.59-9.44-35.57-2.37
					C1095.82,664.57,1091.41,691.74,1091.41,691.74z"/>
				<g>
					<path class="st2" d="M1138.83,693.65c2.5,4.11,4.93,8.26,7.3,12.44c2.37,4.18,4.74,8.36,7.01,12.6
						c4.5,8.49,8.95,17.03,12.47,26c0.92,2.22,1.64,4.53,2.4,6.83l0.88,3.53c0.26,1.18,0.46,2.36,0.69,3.55
						c0.84,4.74,1.46,9.52,1.97,14.3c1.04,9.57,1.7,19.16,2.14,28.8l-2.31,0.02c0.16-9.56-0.18-19.16-0.96-28.71
						c-0.42-4.77-0.96-9.54-1.71-14.26c-0.21-1.18-0.38-2.36-0.63-3.53l-0.85-3.46c-0.73-2.27-1.44-4.55-2.35-6.77
						c-3.46-8.93-7.84-17.49-12.43-25.91c-4.58-8.43-9.52-16.67-14.65-24.76L1138.83,693.65z"/>
				</g>
			</g>
			<g>
				<path class="st3" d="M1131.92,589.97c0,0,27.34,2.25,35.98,12.59s7.29,38.42,7.29,38.42s-13.91-1.44-25.67-11.65
					C1137.75,619.13,1131.92,589.97,1131.92,589.97z"/>
				<g>
					<path class="st2" d="M1174.22,801.82c-0.44-16.67,0.73-33.25,1.23-49.86c0.58-16.61,1.05-33.22,1.27-49.84
						c0.13-8.31,0.2-16.61,0.15-24.92c-0.08-8.3-0.2-16.61-0.83-24.86c-0.14-2.07-0.37-4.12-0.61-6.16
						c-0.29-2.05-0.59-4.04-1.22-5.99l-0.92-2.95l-1.1-2.88c-0.34-0.97-0.82-1.89-1.23-2.83l-0.64-1.4l-0.72-1.36
						c-1.91-3.64-4.2-7.09-6.85-10.24c-2.65-3.13-5.65-6.07-9.03-8.32l0.42-0.71c3.57,2.3,6.61,5.22,9.38,8.37
						c2.75,3.17,5.14,6.64,7.14,10.33l0.76,1.38l0.68,1.42c0.43,0.95,0.93,1.88,1.3,2.87l1.17,2.93l0.98,2.99
						c1.31,4.07,1.65,8.29,2.02,12.43c0.68,8.32,0.87,16.65,1,24.97c0.11,8.32,0.1,16.64,0.01,24.96
						c-0.23,16.63-0.71,33.26-1.3,49.88C1176.58,768.63,1176.34,785.27,1174.22,801.82z"/>
				</g>
			</g>
			<g>
				<path class="st3" d="M1193.44,757.69c0,0,14.85-27.42,36.36-24.49c21.51,2.93,26.91,15.66,26.84,24.25
					c-0.06,8.6-6.03,21.16-11.7,28.05s-1.03-17.25-5.66-17.26c-4.63-0.02-7.89,2.3-19.07-1.27
					C1209.04,763.4,1203.24,752.12,1193.44,757.69z"/>
				<g>
					<path class="st2" d="M1234.83,745.32c-1.84-0.69-3.74-1.23-5.66-1.62c-1.91-0.4-3.85-0.69-5.79-0.81
						c-3.88-0.24-7.79,0.05-11.5,1.13c-1.84,0.55-3.64,1.25-5.35,2.13c-1.71,0.87-3.3,1.98-4.81,3.16
						c-2.98,2.44-5.54,5.38-7.64,8.64c-4.25,6.56-7.59,13.7-9.86,21.18c-1.05,3.76-1.85,7.59-2.3,11.45
						c-0.44,3.84-0.57,7.82-0.05,11.54l-1.8,0.28c-0.66-8.13,0.66-16.03,2.92-23.65c2.35-7.58,5.71-14.84,9.94-21.55
						c2.15-3.36,4.77-6.47,7.91-9c1.6-1.22,3.27-2.36,5.07-3.26c1.8-0.9,3.68-1.65,5.63-2.16c3.9-0.98,7.96-1.24,11.92-0.75
						C1227.41,742.52,1231.29,743.57,1234.83,745.32z"/>
				</g>
			</g>
			<g>
				<path class="st2" d="M1242.46,643.23c0,0-30.24,13.57-36.44,35.45c-6.2,21.88-8.94,24.33-8.94,24.33s31.66-1.86,40.54-18.24
					C1246.49,668.39,1242.46,643.23,1242.46,643.23z"/>
				<g>
					<path class="st3" d="M1228.28,669.66c-3.41,5.16-7.43,9.85-11.56,14.42c-4.13,4.57-8.36,9.06-12.76,13.39
						c-1.09,1.09-2.22,2.14-3.33,3.21c-1.11,1.06-2.31,2.09-3.36,3.14c-2.05,2.06-3.45,4.81-4.65,7.57
						c-2.29,5.63-3.83,11.58-5.1,17.57c-2.54,11.99-4.1,24.2-5.35,36.42c-1.25,12.22-2.19,24.49-2.75,36.77l-0.82-0.03
						c0.42-12.31,1.17-24.6,2.31-36.86c1.2-12.25,2.71-24.5,5.2-36.6c1.27-6.04,2.85-12.04,5.2-17.82c1.25-2.85,2.68-5.71,4.99-8.03
						c1.12-1.12,2.26-2.09,3.38-3.15c1.1-1.06,2.23-2.1,3.32-3.19c4.38-4.3,8.6-8.75,12.73-13.3
						C1219.84,678.61,1223.89,674.01,1228.28,669.66z"/>
				</g>
				<path class="st3" d="M1217.33,631.22c0,0-20.16,14.6-24.9,38.97s-0.4,37.08-0.4,37.08s12.05-9.56,21.62-20.84
					C1223.22,675.14,1225.35,658.77,1217.33,631.22z"/>
				<g>
					<path class="st2" d="M1207.51,656.4c-1.33,6.03-2.82,12.03-4.38,18c-1.54,5.98-3.21,11.93-4.94,17.85
						c-1.75,5.92-3.56,11.83-5.47,17.71c-0.97,2.94-1.94,5.87-2.97,8.79c-0.53,1.47-0.96,2.91-1.42,4.36l-0.68,2.18l-0.56,2.22
						c-0.81,2.94-1.39,5.96-2.03,8.95c-0.53,3.02-1.15,6.02-1.59,9.07c-1,6.06-1.74,12.17-2.45,18.28
						c-1.33,12.23-2.38,24.52-3.06,36.79l-2.76-0.13c0.28-6.2,0.71-12.35,1.22-18.52c0.51-6.16,1.1-12.32,1.83-18.46
						c0.76-6.14,1.54-12.28,2.59-18.39c0.47-3.06,1.1-6.1,1.69-9.15c0.69-3.03,1.33-6.07,2.19-9.07l0.61-2.26l0.73-2.23
						c0.5-1.48,0.97-2.99,1.51-4.42c1.06-2.88,2.07-5.79,3.08-8.7c1.99-5.83,3.87-11.7,5.73-17.57l5.56-17.65l2.77-8.83
						L1207.51,656.4z"/>
				</g>
			</g>
			<g>
				<path class="st3" d="M1080.88,764.2c0,0,10.89-31.04,30.51-37.46c19.62-6.41,37.08,7.88,37.08,7.88s-6.53,20.11-16.23,23.63
					c-9.7,3.52-23.26-3.15-34.91,0.51C1085.66,762.43,1080.88,764.2,1080.88,764.2z"/>
				<g>
					<path class="st2" d="M1110.16,744.82c3.8-2.66,7.83-4.98,12.01-7c4.18-2.01,8.54-3.77,13.14-4.68c2.3-0.45,4.66-0.67,7.01-0.51
						c2.35,0.16,4.73,0.75,6.77,2.01l0.76,0.48c0.25,0.17,0.47,0.38,0.7,0.56c0.48,0.38,0.9,0.78,1.31,1.19
						c0.84,0.81,1.67,1.62,2.45,2.5c0.39,0.43,0.8,0.86,1.18,1.3l1.11,1.36c0.77,0.89,1.41,1.87,2.09,2.82
						c2.66,3.87,4.67,8.18,6.11,12.64c1.45,4.46,2.39,9.06,3.11,13.67c1.34,9.24,1.83,18.57,1.97,27.86l-2.85-0.01
						c0.2-9.22,0.08-18.46-1.02-27.59c-0.58-4.55-1.38-9.09-2.67-13.48c-1.29-4.39-3.11-8.62-5.6-12.46
						c-0.64-0.94-1.24-1.92-1.97-2.81l-1.05-1.36c-0.36-0.44-0.75-0.87-1.12-1.3c-0.73-0.88-1.54-1.71-2.34-2.53
						c-0.4-0.42-0.8-0.83-1.23-1.17c-0.22-0.18-0.42-0.37-0.65-0.53l-0.7-0.46c-0.94-0.61-1.99-1.02-3.07-1.36
						c-1.09-0.27-2.21-0.47-3.34-0.53c-2.27-0.14-4.55,0.12-6.8,0.55c-4.49,0.9-8.86,2.46-13.08,4.34
						C1118.19,740.2,1114.1,742.39,1110.16,744.82z"/>
				</g>
			</g>
		</g>
		<g>
			<path class="st4" d="M1102.84,843.26c12.2-27.75,39.93-47.13,72.18-47.13c28.45,0,53.37,15.07,67.23,37.67
				c0,0,6.67-3.66,14.34-2.88c7.67,0.78,12.57,9.06,13.49,14.89h-196.86c0,0,3.87-12.57,15.58-12.57
				C1100.51,833.23,1102.84,843.26,1102.84,843.26z"/>
			<g>
				<ellipse class="st5" cx="1189.45" cy="818.94" rx="7.38" ry="6.57"/>
				<circle class="st5" cx="1198.32" cy="834.16" r="3.25"/>
			</g>
		</g>
	</g>
</g>
<path class="st6" d="M1441.32,612.03c0,0-3.54,32.85-4.87,61.83c-1.33,28.98-2.24,85.39-2.24,85.39s8.16,3.62,19.54,4.14
	c11.38,0.52,17.57-2.59,17.57-2.59s11.41-56.41,17.62-81.25c6.21-24.84,7.01-60.43,7.01-60.43S1452.7,607.64,1441.32,612.03z"/>
<path class="st6" d="M1536.34,614.12c0,0-3.54,32.85-4.87,61.83c-1.33,28.98-2.24,85.39-2.24,85.39s8.16,3.62,19.54,4.14
	c11.39,0.52,17.57-2.59,17.57-2.59s11.41-56.41,17.62-81.25c6.21-24.84,7.01-60.43,7.01-60.43S1547.72,609.73,1536.34,614.12z"/>
<g>
	<path class="st7" d="M1447.12,481.12l-12.91,124.94c0,0,13.25,15.01,36.32,15.01c23.07,0,34.97-4.14,34.97-4.14l4.14-96.97h6.21
		l5.18,93.87c0,0,16.04,8.28,41.92,10.87c25.87,2.59,32.08-5.17,32.08-5.17s0.52-79.18,2.59-110.74c2.07-31.57-8.8-68.51-23.8-80.05
		c-15.01-11.54-56.13-23.74-56.13-23.74s-13.52,54.48-31.48,62.84S1447.12,481.12,1447.12,481.12z"/>
	<g>
		<g>
			<path class="st8" d="M1511.05,426.78c0,0,0.43,0.07,1.21,0.23"/>
			<path class="st9" d="M1514.66,427.49c10.58,2.24,41.32,9.87,49.84,24.36c10.35,17.59,11.39,81.76,10.87,98.32
				c-0.44,14.21-2.41,48.61-2.96,58.09"/>
			<path class="st8" d="M1572.33,609.49c-0.05,0.8-0.07,1.23-0.07,1.23"/>
		</g>
	</g>
	<path class="st10" d="M1520.31,600.87c0,0,43.89,18.13,74.83,5.71"/>
	<path class="st10" d="M1435.33,595.22c0,0,10.61,8.45,35.99,10.68c25.38,2.23,34.65,0,34.65,0"/>
</g>
<path class="st6" d="M1377.5,495.51c0,0,1.12,11.77,0,14.11s-34.68,17.58-46.61,22.66c-11.93,5.08-26.78,6.64-28.34,11.33
	c-1.56,4.69-5.08,16.8,3.52,17.97s62.18-12.5,81.29-18.36c19.11-5.86,28.48-15.26,29.65-23.26c1.17-8,0-25.59,0-25.59
	S1394.25,491.94,1377.5,495.51z"/>
<path class="st11" d="M1354.97,420.3c0,0,2.44,11.19,6.85,33.07c4.41,21.88,8.32,39.46,8.32,39.46s11.72,5.86,26.56,4.69
	s23.05-3.91,23.05-3.91v-21.06c0,0-6.63-31.93-23.44-47.3S1356.6,413.02,1354.97,420.3z"/>
<path class="st12" d="M1366.28,443.59c6.88,8.49,24.64,19.73,33.22,22.74c8.58,3,15.87,3.43,15.87,3.43s0.86,3.43,9.65,3.22
	s16.3,0.01,16.3,0.01s2.57,5.78,5.79,8.14c3.22,2.36,20.8,7.51,37.11,0c16.3-7.51,28.74-34.32,31.74-49.76
	c3-15.44,1.72-26.38,1.72-26.38s-42.25-20.8-63.27-27.24s-46.76-5.79-56.41-4.5c-9.65,1.29-22.67,5.24-25.28,7.02
	c-2.6,1.78-18.32,30.92-17.75,40.05C1355.53,429.43,1361.29,437.43,1366.28,443.59z"/>
<ellipse transform="matrix(0.9723 -0.2336 0.2336 0.9723 -50.0937 319.5275)" class="st13" cx="1323.97" cy="371.26" rx="2.2" ry="4.07"/>
<g>
	<path class="st13" d="M1317.76,357.91c0.42-0.49,0.91-0.8,1.48-1.01c0.56-0.2,1.16-0.31,1.76-0.29c0.59,0.03,1.19,0.13,1.72,0.36
		c0.55,0.21,1.03,0.53,1.45,0.9c0.18,0.15,0.19,0.42,0.04,0.6c-0.1,0.12-0.26,0.16-0.4,0.14l-0.03-0.01
		c-0.51-0.1-0.98-0.22-1.44-0.29c-0.46-0.08-0.92-0.11-1.36-0.12c-0.45,0-0.89,0.04-1.34,0.11c-0.44,0.07-0.93,0.16-1.37,0.27
		l-0.08,0.02c-0.22,0.05-0.45-0.09-0.5-0.31C1317.64,358.14,1317.67,358.01,1317.76,357.91z"/>
</g>
<path class="st6" d="M1362.69,375.32l18.9,9.3c0,0,0.47,37.68-12.56,52.13c0,0-2.2,3.45-3.93-11.62l-17.39-8.27
	c0,0,6.4-27.21,8.91-33.96S1362.69,375.32,1362.69,375.32z"/>
<g>
	<path class="st14" d="M1415.37,469.75"/>
</g>
<g>
	<path class="st14" d="M1470.53,465.87"/>
</g>
<g>
	<path class="st14" d="M1441.32,472.98"/>
</g>
<path class="st15" d="M1250.3,545.69c0,0,17.27-10.68,59.46-21.27c42.19-10.59,67.71-11.01,81.25-4.46
	c13.54,6.55,34.72,28.25,49.31,33.28c14.58,5.03,52.78,14.06,70.14,21.7c17.36,7.64,64.65,54.07,69.36,140.26
	s-2.17,99.23,39.84,99.23s73.62,37.3,73.62,37.3v19.56c0,0-42.48-40.56-75.07-37.3c-32.59,3.26-49.25-13.4-51.06-43.1
	s-2.54-103.94-19.19-143.41c-16.66-39.47-40.12-55.45-69.49-65.75c-29.37-10.3-53.64-4.87-74.28-25.51
	c-20.64-20.64-39.47-21.95-51.79-22.38c-12.31-0.43-57.53,11.86-94.96,27.81C1257.42,561.65,1246.12,557.94,1250.3,545.69z"/>
<g>
	<path class="st16" d="M1500.84,518.75c1.63,0.2,3.24,0.41,4.86,0.59c1.62,0.16,3.23,0.33,4.85,0.45c1.62,0.14,3.24,0.18,4.86,0.24
		c0.81,0.02,1.62,0.03,2.44,0c0.82,0.03,1.63-0.06,2.45-0.06c-3.2,0.78-6.54,0.88-9.81,0.64c-1.64-0.14-3.27-0.33-4.89-0.64
		C1504,519.65,1502.4,519.28,1500.84,518.75z"/>
</g>
<path class="st17" d="M1419.74,798.57c0,0,11.48-13.97,14.47-39.33l37.11,1.55c0,0-3.08,15.52-3.08,26.91s-2.18,26.39-3.16,32.08
	C1464.1,825.48,1423.51,819.27,1419.74,798.57z"/>
<g>
	<path class="st18" d="M1354.95,844.63c0,0-3.67-7.76,13.93-13.45c17.59-5.69,33.12-16.56,40.36-25.36
		c7.24-8.8,13.45-20.7,13.45-20.7s18.23,3.1,22.83,8.28c4.6,5.17-0.58,10.87,4.08,13.97s13.47-3.73,17.6-3.16
		c4.13,0.57,7.76,1.61,6.72,10.66s-3.41,29.76-3.41,29.76s-15.5,2.59-36.32,2.07C1413.39,846.18,1354.95,844.63,1354.95,844.63z"/>
	<path class="st19" d="M1371.63,830.23c0,0,13.41-0.32,18.39,5.8c4.97,6.12,4.97,6.12,4.97,6.12"/>
	<path class="st19" d="M1447.52,801.63c0,0-33.38,29.7-55.78,36.54"/>
	<path class="st19" d="M1354.68,842.16c0,0,91.85,2.67,116.39-2.3"/>
	<path class="st20" d="M1388.87,819.9c0,0,10.37,0.7,19.91,10.33"/>
	<path class="st20" d="M1397.29,815.94c0,0,10.84,0.44,19.77,9.12"/>
	<path class="st20" d="M1405.89,809.46c0,0,6.98-0.63,21.19,8.57"/>
	<path class="st20" d="M1412.47,801.63c0,0,8.16-0.56,21.74,11"/>
</g>
<path class="st17" d="M1514.76,800.66c0,0,11.48-13.97,14.47-39.33l37.11,1.55c0,0-3.08,15.52-3.08,26.91
	c0,11.38-2.18,26.39-3.16,32.08C1559.12,827.57,1518.53,821.36,1514.76,800.66z"/>
<path class="st6" d="M1296.31,320.87c-7.32,11.8-8.12,31.52-2.87,53.49c5.25,21.97,16.24,49.67,42.51,47.28
	c26.27-2.39,26.75-46.33,26.75-46.33s12.42-9.07,8.12-23.4c-4.3-14.33-18.63-10.99-18.63-10.99s-4.3-14.81-14.33-24.84
	C1327.83,306.07,1304.9,307.02,1296.31,320.87z"/>
<path class="st21" d="M1310,370.3c0,0,2.73,6.57,2.3,11.9c-0.43,5.33,3.02,6.76,3.68,6.54"/>
<path class="st21" d="M1314.55,399.53c0,0,3.45,3.77,9.42,1.57c5.97-2.2,5.81-9.73,5.81-9.73"/>
<circle class="st22" cx="1342.11" cy="381.24" r="11.54"/>
<path class="st21" d="M1363.07,348.66c0,0-6.44-1.05-5.65,8.74c0.79,9.79,4.24,11.67,7.22,9.47s1.57-10.36-1.57-10.99
	c-3.14-0.63-2.67,4.87-2.67,4.87"/>
<g>
	
		<ellipse transform="matrix(0.9723 -0.2336 0.2336 0.9723 -50.0937 319.5275)" class="st13" cx="1323.97" cy="371.26" rx="2.2" ry="4.07"/>
	<g>
		<path class="st13" d="M1317.76,357.91c0.42-0.49,0.91-0.8,1.48-1.01c0.56-0.2,1.16-0.31,1.76-0.29c0.59,0.03,1.19,0.13,1.72,0.36
			c0.55,0.21,1.03,0.53,1.45,0.9c0.18,0.15,0.19,0.42,0.04,0.6c-0.1,0.12-0.26,0.16-0.4,0.14l-0.03-0.01
			c-0.51-0.1-0.98-0.22-1.44-0.29c-0.46-0.08-0.92-0.11-1.36-0.12c-0.45,0-0.89,0.04-1.34,0.11c-0.44,0.07-0.93,0.16-1.37,0.27
			l-0.08,0.02c-0.22,0.05-0.45-0.09-0.5-0.31C1317.64,358.14,1317.67,358.01,1317.76,357.91z"/>
	</g>
</g>
<g>
	
		<ellipse transform="matrix(0.9723 -0.2336 0.2336 0.9723 -51.6293 314.5089)" class="st13" cx="1302.02" cy="375.23" rx="2.2" ry="4.07"/>
	<g>
		<path class="st13" d="M1296.09,363.14c0.2-0.61,0.53-1.09,0.97-1.51c0.43-0.41,0.95-0.74,1.51-0.95c0.56-0.2,1.14-0.35,1.73-0.34
			c0.58-0.02,1.16,0.09,1.69,0.27c0.22,0.07,0.34,0.31,0.27,0.53c-0.05,0.15-0.17,0.25-0.32,0.28l-0.03,0.01
			c-0.51,0.1-0.98,0.18-1.44,0.3c-0.46,0.1-0.88,0.26-1.3,0.42c-0.41,0.18-0.81,0.38-1.2,0.62c-0.38,0.23-0.79,0.51-1.16,0.78
			l-0.07,0.05c-0.19,0.14-0.45,0.1-0.58-0.09C1296.07,363.4,1296.05,363.26,1296.09,363.14z"/>
	</g>
</g>
<ellipse transform="matrix(0.9393 -0.3431 0.3431 0.9393 -55.5296 471.0265)" class="st22" cx="1303.22" cy="392.42" rx="4.08" ry="10.83"/>
<path d="M1323.53,301.77c-8.12-1.91-30.09-8.14-42.51,7.63s-5.25,41.08-3.82,47.77c1.43,6.69-1.43,17.19-1.43,17.19
	s10.36-6.01,14.49-20.44c0,0-1.05-10.04,2.02-23.7c0,0,1.64,16.91,9.76,22.16c0,0,0-11.94,2.39-19.58c0,0,9.07,16.24,21.02,16.24
	v-19.1c0,0,7.16,20.06,22.45,21.02c0,0,1.43,15.9,7.64,14.63l-3.02-22.31c-0.19-1.37,0.84-2.63,2.22-2.68
	c4.03-0.17,11.8,0.98,15.42,11.53c4.69,13.68-7.45,23.19-7.45,23.19s14.81-4.3,14.81-28.66c0-24.36-5.73-42.51-21.49-45.37
	C1340.25,298.43,1327.96,302.81,1323.53,301.77z"/>
<path d="M1330.89,279.32c0,0-13.09,8.6-7.36,22.45c0,0,0.39-11.46,7.36-14.81"/>
<path class="st21" d="M1375.2,358.29"/>
<path class="st21" d="M1370.32,311.39"/>
<path d="M1293.39,324.9c0,0-3.91,17.81,3.06,26.16"/>
<path d="M1323.97,324.9c0,0,3.09,17.41,10.61,23.73"/>
<path class="st22" d="M1362.69,375.32c0,0-1.16,30.38-14.97,41.53l10.39,4.94C1358.11,421.79,1367.53,398.41,1362.69,375.32z"/>
<g>
	<path class="st6" d="M1261.53,547.9c0,0-2.34-9.38,0-11.33c2.34-1.95,6.25,2.73,8.98,5.66c2.73,2.93,8.59,9.18,8.59,9.18
		s-3.91-10.94-1.95-18.36c1.95-7.42,4.69-7,7.42-5.45c2.73,1.55,2.34,6.23,2.34,6.23s2.73-7.28,7.03-7.16
		c4.3,0.13,4.3,3.64,4.3,3.64s2.73-3.87,6.25-2.72c3.52,1.16,3.79,5.72,4.24,11.44c0.45,5.73,3.73,9.63,4.24,9.24
		c0.51-0.39,2.46,10.94-6.92,13.28c-9.38,2.34-11.97,1.17-19.07,1.95S1274.42,569.78,1261.53,547.9z"/>
	<path class="st21" d="M1286.92,533.84c0,0-2.34,8.64,2.52,14.02"/>
	<path class="st21" d="M1298.25,530.32c0,0-2.49,9.9,2.25,13.37"/>
</g>
<g>
	<path class="st6" d="M1486.12,388.28c0,0,25.34,6.4,36.71,12.19c11.37,5.79,13.08,9.65,13.51,26.17
		c0.43,16.52-19.73,86.65-27.88,104.02s-17.16,32.17-19.73,40.11c-2.57,7.94-11.8,11.8-14.58,13.08c-2.79,1.29-7.08,1.5-9.44,0
		c-2.36-1.5-7.94-2.14-10.3-1.93c-2.36,0.21-4.72-2.36-11.58-4.5s-8.58-6.01-8.58-6.01s7.29-0.21,12.65-4.08s6.86-8.36,6.86-8.36
		s-6.43,1.72-11.58-0.43c-5.15-2.14-8.36-3.22-7.94-6.01c0.43-2.79,5.15-0.64,10.51-2.57c5.36-1.93,13.94-4.5,16.94-4.93
		c3-0.43,7.51-1.72,11.58-8.15s16.52-34.75,20.38-55.55s5.58-34.96,3.43-36.46c-2.14-1.5-21.15-4.47-21.15-4.47
		s-0.94-14.62,2.7-30.92C1482.29,393.18,1486.12,388.28,1486.12,388.28z"/>
	<path class="st11" d="M1392.21,392.78c-1.65,9.72,0.43,23.01,33.03,35.94c32.6,12.93,48.26,16.15,48.26,16.15
		s11.15-18.23,12.23-37.32s0-23.81,0-23.81s-45.47-14.55-63.92-11.35C1403.36,375.6,1394.57,378.87,1392.21,392.78z"/>
	<g>
		<path class="st23" d="M1405.05,418.29c2.62,1.6,5.32,3.05,8.06,4.44c2.73,1.39,5.49,2.72,8.3,3.96c2.81,1.23,5.64,2.39,8.49,3.5
			c2.86,1.09,5.76,2.09,8.66,3.09c5.8,1.98,11.62,3.94,17.46,5.82l17.51,5.69l-0.12,0.04c0.92-1.42,1.75-2.9,2.53-4.41
			c-0.72,1.54-1.48,3.05-2.36,4.52l-0.04,0.07l-0.08-0.02c-5.92-1.63-11.79-3.42-17.66-5.22c-5.85-1.85-11.71-3.71-17.51-5.73
			c-5.79-2.03-11.59-4.15-17.14-6.8C1415.59,424.61,1410.16,421.69,1405.05,418.29z"/>
	</g>
	<path class="st24" d="M1464.85,442.23"/>
	<path class="st24" d="M1474.29,412.14"/>
	<path class="st24" d="M1474.29,380.38"/>
</g>
<g>
	<path class="st25" d="M1244.3,547.86l-35.76,18.75c0,0-0.69,5.38,1.22,8.85c1.91,3.47,3.65,4.69,3.65,4.69l39.76-15.45
		L1244.3,547.86z"/>
	<path class="st26" d="M1248.51,540.43l-3.49,1.32c-1.67,0.63-2.68,2.34-2.41,4.1c0.56,3.66,1.75,9.88,3.94,14.5
		c1.7,3.58,3.4,5.59,4.65,6.7c1,0.88,2.41,1.11,3.65,0.64l3.04-1.15c1.24-0.47,1.69-2.01,0.88-3.06c-1.79-2.32-4.5-6.3-5.61-10.43
		c-1.1-4.06-1.71-8.39-2.01-11.04C1251,540.76,1249.7,539.98,1248.51,540.43z"/>
</g>
<g>
	<path class="st18" d="M1446.55,846.72c0,0-3.67-7.76,13.93-13.45c17.59-5.69,33.12-16.56,40.36-25.36
		c7.24-8.8,13.45-20.7,13.45-20.7s18.23,3.1,22.83,8.28s-0.58,10.87,4.08,13.97s13.47-3.73,17.6-3.16
		c4.13,0.57,7.76,1.61,6.72,10.66c-1.04,9.06-3.41,29.76-3.41,29.76s-15.5,2.59-36.32,2.07
		C1504.98,848.27,1446.55,846.72,1446.55,846.72z"/>
	<path class="st19" d="M1463.23,832.32c0,0,13.41-0.32,18.39,5.8s4.97,6.12,4.97,6.12"/>
	<path class="st19" d="M1539.12,803.72c0,0-33.38,29.7-55.78,36.54"/>
	<path class="st19" d="M1446.28,844.25c0,0,91.85,2.67,116.39-2.3"/>
	<path class="st20" d="M1480.47,821.99c0,0,10.37,0.7,19.91,10.33"/>
	<path class="st20" d="M1488.88,818.03c0,0,10.84,0.44,19.77,9.12"/>
	<path class="st20" d="M1497.49,811.55c0,0,6.98-0.63,21.19,8.57"/>
	<path class="st20" d="M1504.07,803.72c0,0,8.16-0.56,21.74,11"/>
</g>
<path class="st19" d="M1472.37,828.53c0,0-12.39,4.16-16.81,6.62c-4.43,2.45-11.22,5.38-9.01,11.58"/>
<path class="st1" d="M1209.75,571.49"/>
<g>
	<path class="st14" d="M1022.38,639.75"/>
</g>
<g>
	<path class="st14" d="M993.56,620.28"/>
</g>
</svg>
