<?xml version="1.0" encoding="utf-8"?>
<!-- Generator: Adobe Illustrator 25.4.1, SVG Export Plug-In . SVG Version: 6.00 Build 0)  -->
<svg version="1.1" xmlns="http://www.w3.org/2000/svg" xmlns:xlink="http://www.w3.org/1999/xlink" x="0px" y="0px"
	 viewBox="0 0 3600 2000" style="enable-background:new 0 0 3600 2000;" xml:space="preserve">
<style type="text/css">
	.st0{fill:#FFFFFF;}
	.st1{fill:#9DEEFF;}
	.st2{fill:#7772D6;}
	.st3{fill:#62BDF3;}
	.st4{fill:#3797DB;}
	.st5{fill:#3B77BE;}
	.st6{fill:#96D9C9;}
	.st7{fill:#DE0A26;}
	.st8{fill:#EFAC7F;}
	.st9{fill:#FE875E;}
	.st10{fill:#45258F;}
	.st11{fill:#2D185D;}
	.st12{fill:#D19369;}
	.st13{fill:#5E2E0D;}
	.st14{fill:#F8A492;}
	.st15{fill:#282828;}
	.st16{fill:#8D021F;}
	.st17{fill:#96A65F;}
	.st18{fill:#9ED16F;}
	.st19{fill:#13375B;}
	.st20{fill:#F48C7F;}
	.st21{fill:#466EB6;}
	.st22{fill:#F7A491;}
	.st23{fill:#EFEFEF;}
</style>
<g id="Слой_2">
	<rect class="st0" width="3600" height="2000"/>
	<path class="st1" d="M4.75,1009.44c38,72.2,200.45,140.6,344.85,78.85c224.74-96.1,403.29-370.25,742.9-347.7
		c486.4,32.3,422.13,526.23,644.1,687.8c279.3,203.3,380.95,380,394.25,567.15c-253.65,0-2126.1,0-2126.1,0V1009.44z"/>
	<path class="st2" d="M2873,2000c11-243,481-525,727-536c0,128,0,536,0,536H2873z"/>
</g>
<g id="Layer_1">
	<g>
		<path class="st3" d="M1202.85,1731.14c0,18.86-54.03,34.15-120.68,34.15c-66.65,0-120.68-15.29-120.68-34.15
			c0-18.86,54.03-34.15,120.68-34.15C1148.82,1696.99,1202.85,1712.28,1202.85,1731.14z"/>
		<path class="st3" d="M961.48,1673.52c0,18.86-124.97,34.15-279.13,34.15s-279.13-15.29-279.13-34.15
			c0-18.86,124.97-34.15,279.13-34.15S961.48,1654.67,961.48,1673.52z"/>
		<path class="st3" d="M1548.85,1673.52c0,18.86-64.68,34.15-144.46,34.15c-79.78,0-144.46-15.29-144.46-34.15
			c0-18.86,64.68-34.15,144.46-34.15C1484.17,1639.38,1548.85,1654.67,1548.85,1673.52z"/>
		<g>
			<path class="st4" d="M902.61,677.56c-0.24,0-0.48-0.11-0.64-0.32c-0.27-0.35-0.21-0.86,0.15-1.14c0.1-0.08,10.62-7.99,25.15-0.95
				c0.4,0.2,0.57,0.68,0.38,1.09c-0.19,0.4-0.68,0.57-1.09,0.38c-13.6-6.59-23.05,0.47-23.45,0.77
				C902.95,677.51,902.78,677.56,902.61,677.56z"/>
		</g>
		<path class="st5" d="M1132.4,1521.9c-298.74-156.12-400.6-317.9-433.03-427.75h191.88c-1.09,17.24-6.21,34.15-14.87,49.1
			c-4.26,7.03-6.53,15.17-6.53,23.49c0,25.09,20.41,45.5,45.5,45.5c25.09,0,45.5-20.41,45.5-45.5c0-8.32-2.27-16.47-6.56-23.55
			c-8.64-14.9-13.75-31.81-14.84-49.05h192.96v178.76l3.54-0.32c17.11-1.53,34.02-6.89,48.88-15.5c6.12-3.71,13.1-5.65,20.24-5.65
			c21.5,0,39,17.5,39,39c0,21.5-17.5,39-39,39c-7.14,0-14.12-1.95-20.18-5.62c-14.92-8.65-31.82-14.01-48.93-15.54l-3.54-0.32
			V1521.9z"/>
		<g>
			<path class="st3" d="M1138.9,1315.12c15.1,1.82,29.44,6.62,42.66,14.28c7.03,4.26,15.17,6.53,23.5,6.53
				c25.09,0,45.5-20.41,45.5-45.5c0-25.09-20.41-45.5-45.5-45.5c-8.33,0-16.47,2.27-23.55,6.56c-13.17,7.63-27.5,12.43-42.6,14.25
				v-171.6h227.21l0.1-3.14c0.74-22.22-4.77-44.12-15.91-63.34c-3.71-6.12-5.65-13.1-5.65-20.24c0-21.5,17.49-39,39-39
				c21.5,0,39,17.49,39,39c0,7.14-1.94,14.11-5.62,20.18c-11.18,19.28-16.68,41.18-15.94,63.39l0.1,3.14h170.73
				c-32.43,109.85-134.29,271.64-433.03,427.75V1315.12z"/>
			<path class="st6" d="M1138.09,1523.24v-209.04l0.91,0.11c15.21,1.83,29.66,6.67,42.97,14.38c6.93,4.2,14.91,6.42,23.09,6.42
				c24.64,0,44.69-20.05,44.69-44.69c0-24.64-20.05-44.69-44.69-44.69c-8.17,0-16.17,2.23-23.13,6.45
				c-13.28,7.7-27.72,12.53-42.92,14.36l-0.91,0.11v-173.32h227.23l0.08-2.36c0.73-22.06-4.73-43.81-15.8-62.91
				c-3.77-6.22-5.76-13.36-5.76-20.64c0-21.95,17.86-39.81,39.81-39.81c21.95,0,39.81,17.86,39.81,39.81
				c0,7.28-1.98,14.41-5.74,20.6c-11.08,19.12-16.56,40.89-15.82,62.95l0.08,2.36h171.04l-0.31,1.04
				c-32.12,108.82-133.39,271.45-433.43,428.24L1138.09,1523.24z M1139.71,1316.04v204.52c297.65-155.84,398.8-317.23,431.13-425.6
				h-170.43l-0.13-3.93c-0.74-22.36,4.81-44.44,16.05-63.83c3.61-5.95,5.51-12.79,5.51-19.77c0-21.06-17.13-38.19-38.19-38.19
				c-21.06,0-38.19,17.13-38.19,38.19c0,6.99,1.91,13.84,5.53,19.81c11.23,19.37,16.77,41.42,16.03,63.79l-0.13,3.93h-227.18v169.86
				c14.65-1.89,28.57-6.61,41.38-14.03c7.2-4.36,15.49-6.67,23.96-6.67c25.54,0,46.31,20.78,46.31,46.31
				c0,25.54-20.78,46.31-46.31,46.31c-8.47,0-16.74-2.3-23.92-6.65C1168.3,1322.66,1154.37,1317.93,1139.71,1316.04z"/>
		</g>
		<path class="st7" d="M915.35,1205.75c-21.5,0-39-17.5-39-39c0-7.13,1.94-14.11,5.62-20.18c9.8-16.9,15.3-36.09,15.94-55.56
			l0.11-3.36H697.51c-8.44-30.6-12.71-61.37-12.71-91.48c0-69.99,22.15-135.43,62.38-184.28c41.43-50.31,98.75-78.01,161.42-78.01
			c76.84,0,133.69,32.03,167.86,58.9c33.78,26.57,52.67,53.48,55.95,58.33v82.67c-13.75-2.13-26.82-6.76-38.9-13.76
			c-7.03-4.26-15.17-6.53-23.5-6.53c-25.09,0-45.5,20.41-45.5,45.5c0,25.09,20.41,45.5,45.5,45.5c8.32,0,16.47-2.27,23.55-6.56
			c12.03-6.98,25.1-11.6,38.84-13.73v103.47H932.68l0.11,3.36c0.64,19.47,6.14,38.66,15.91,55.51c3.71,6.12,5.65,13.1,5.65,20.23
			C954.35,1188.25,936.85,1205.75,915.35,1205.75z"/>
		<g>
			<g>
				<path class="st8" d="M909.67,716.57c-9.17,1.48-8.63,2.98-9.81,3.13c-1.4,0.19-17.95-8.11-17.95-8.11s-48.97-24.1-51.57-25.5
					l-35.35-44.35l-27.24,12.53c0,0,39.76,47.15,42.27,49.23c2.52,2.08,72.74,26.63,78.84,29c0,0,6.16,5.61,10.14,9
					c3.98,3.39,9.31,4.73,10.58,5.51c0.19,0.11,4.58,2.43,10.79,3.77c5.35,1.16,0.89-2.46,0.89-2.46s-9.47-3.98-9-4.71
					c0.36-0.56,5.39,1.94,11.3,3.29c1.52,0.35,3.02,0.68,4.4,0.98c3.62,0.78,5.22-1.29,1.58-2.73c-1.29-0.51-3.44-1.3-5.07-1.64
					c-1.76-0.37-3.23-1.28-4.65-1.82c-2.82-1.07-4.89-1.81-4.78-1.91c0.14-0.13-0.25-0.75,1.37-0.43c1.95,0.38,5.89,2.13,8.82,2.46
					c1.66,0.19,5.09,0.79,5.09,0.79s6.08,0.58,6.12-0.27c0.09-1.86-3.65-2.89-5.95-2.84c-1.45-0.74-5.08-1.27-5.08-1.27
					s-7.05-2.77-6.64-3.81c0.16-0.42,4.43,0.22,8.96,0.53c4.79,0.33,8.25,0.33,8.51-0.6c0.4-1.47-3.4-2.02-3.4-2.02
					s-3.36-0.49-4.46-0.74c-1.29-0.29-5.07-1.47-5.07-1.47s-12.96-4.75-12.49-5.7c0.47-0.95,2.61-2.95,3.52-2.94
					c0.91,0,2.55,0.91,3.46,0.92c0.91,0,2.88-0.17,3.02-1.32c0.14-1.15-4.94-3.52-4.94-3.52S912.32,716.14,909.67,716.57z"/>
				<path class="st5" d="M819.58,669.22c0,0-8.82,7.99-12.49,10.62c-3.05,2.19-17.91,9.32-17.91,9.32s-14.78-22.57-21.25-33.89
					c-7.84-13.73-13.27-34.16-11.42-34.71c5.2-1.55,12.36-2.5,18.97,0.52C798.36,631.54,819.58,669.22,819.58,669.22z"/>
				<path class="st9" d="M901.1,728.37c3.92,0.62,7.94-0.13,9.68-3.71C911.17,728.91,904.71,731.02,901.1,728.37z"/>
			</g>
			<path class="st8" d="M675.23,1013.47c0,0-0.98,17.28-0.98,17.32c-0.36,2.19-1.78,7.62-1.78,9.61c0,7.49,33.34-6.36,25.87-9.68
				c-0.68-0.3-4.22-2.57-4.44-5.12c-0.34-3.93-1.21-11.88-1.21-11.88L675.23,1013.47z"/>
			<path class="st10" d="M698.26,1030.64c0,0-7.83,2.29-11.84,2.87c-4.01,0.57-9.3-4.25-12.13-2.95c-3.12,1.43-3,14.35-3,14.35
				s41.98,3.68,53.78-0.13C729.75,1043.28,714.26,1035.98,698.26,1030.64z"/>
			<path class="st8" d="M621.64,1012.43c0,0-0.98,17.28-0.98,17.32c-0.36,2.19-1.78,7.62-1.78,9.61c0,7.49,33.34-6.36,25.87-9.68
				c-0.68-0.3-5.27-4.27-5.49-6.82c-0.34-3.93-0.16-10.18-0.16-10.18L621.64,1012.43z"/>
			<path class="st10" d="M644.67,1029.6c0,0-7.83,2.29-11.84,2.86c-4.01,0.57-9.3-4.25-12.13-2.95c-3.12,1.43-3.25,14.35-3.25,14.35
				s41.68,1.71,54.03-0.13C676.34,1043.02,660.67,1034.94,644.67,1029.6z"/>
			<path class="st11" d="M629.19,739.82c0,0-5.65,29.15-3.35,51.26c2.3,22.11,2.48,100.63,2.48,100.63l-8.79,125.64l20.85,0.48
				c0,0,24.72-125.58,24.26-122.36c-0.46,3.22,8.29-88.42,8.29-88.42l-29.47-70L629.19,739.82z"/>
			<path class="st10" d="M637.1,720.99c0,0-25.6,26.89-16.08,56.25c3.82,11.8,39.5,124.48,39.96,133.69
				c0.46,9.21,12.06,111.02,12.06,111.02l24.24-0.73l5.24-113.19l-6.93-152.51l-14.72-25.72L637.1,720.99z"/>
			<path class="st4" d="M792.51,633.8c-8.38-9.33-26.63-22.91-26.63-22.91s-10.87-9.26-15.3-10.78
				c-6.52-2.24-17.69-8.22-33.85,16.19c-11.56,17.47-84.52,107.94-96.49,110.99l78.21,37.31c2.14-17.82,40.8-51.48,46.36-57.76
				C757.24,692.79,800.45,642.62,792.51,633.8z"/>
			<g>
				<path class="st8" d="M788.87,595.58L764.5,609.8c0,0-0.69,20.73,7.28,26.12c6.68,4.52,11.77-6.33,11.77-6.33
					s9.06-12.52,15.94-16.42C806.37,609.28,788.87,595.58,788.87,595.58z"/>
				<path class="st12" d="M784.78,604.7c0.92,4.33,3.04,10.58,6.32,15.73c2.68-2.9,5.7-5.74,8.39-7.26c3.18-1.8,1.15-5.69-1.94-9.35
					c-4.37-4.54-8.68-8.25-8.68-8.25l-4.68,2.73C783.88,600.08,784.47,603.26,784.78,604.7z"/>
				<path class="st8" d="M801.55,559.94c-0.41-0.51-20.43,24.35-17.97,36.01c2.47,11.66,14.58,22.3,22.99,19.37
					c9.31-3.24,26.61-32.5,20.41-46.71C820.78,554.41,801.55,559.94,801.55,559.94z"/>
				<path class="st13" d="M823.48,552.1c-8.73-4.84-22.97-6.23-33.61-0.68c-13.08,6.83-16.06,24.01-11.97,34.5
					c4.1,10.48-0.59,16.41-0.59,16.41l6.94-4.04c0,0,4.05-6.31,4.58-11.34c0.53-5.03,7.89-4.14,11.48-6.42
					c2.77-1.76,6.3-7.46,10.77-10.42c0,0,11.27-1.38,16.8,1.72C837.33,577.11,835.99,559.03,823.48,552.1z"/>
			</g>
			<path class="st8" d="M862.16,753.17c-9.57-1.15-9.55-0.39-10.78-0.57c-1.45-0.21-16.32-12.97-16.32-12.97
				s-44.08-37.33-46.39-39.43l-24.19-53.44l-31.93,4.74c0,0,29.76,62.82,31.84,65.56c2.08,2.73,67.47,40.85,73.1,44.89
				c0,0,4.98,7.21,8.25,11.63c3.27,4.43,8.35,7.24,9.46,8.36c0.16,0.16,4.09,3.66,10.05,6.73c5.14,2.65,1.44-2.15,1.44-2.15
				s-8.67-6.56-8.04-7.13c0.48-0.44,5.01,3.41,10.66,6.4c1.45,0.77,2.89,1.52,4.22,2.2c3.48,1.79,5.54,0.22,2.18-2.21
				c-1.18-0.86-3.19-2.24-4.75-3.03c-1.69-0.85-2.98-2.17-4.29-3.09c-2.61-1.84-4.39-3.05-4.26-3.11c0.17-0.08-0.24-0.91,1.33-0.14
				c1.89,0.92,5.47,3.75,8.35,4.89c1.63,0.65,4.96,2.21,4.96,2.21s4.91,0.63,5.1,0.34c1-1.53-1.92-2.72-4.25-3.33
				c-1.3-1.13-4.84-2.67-4.84-2.67s-6.5-4.7-5.86-5.59c0.24-0.34,4.07,2.26,8.75,4.01c5.36,2,7.94,0.91,8.41,0.06
				c0.73-1.31-2.55-2.12-2.55-2.12s-4.5-1.09-5.55-1.64c-1.24-0.65-15.59-11.5-14.91-12.3c0.68-0.8,2.89-0.8,3.81-0.54
				c0.92,0.26,2.55,0.92,3.47,1.19c0.92,0.26,2.53-0.8,2.92-1.88c0.39-1.08-3.05-3.03-3.05-3.03S864.92,753.51,862.16,753.17z"/>
			<path class="st3" d="M737.63,677.48c0,0,9.19-2.91,15.08-5.6c3.95-1.8,21.16-10.34,21.16-10.34s-7.42-31.21-12.44-42.44
				c-18.41-41.19-39.33-12.78-42.17-6.16C712.91,627.74,737.63,677.48,737.63,677.48z"/>
		</g>
		<path class="st10" d="M1407.53,1087.65c-0.11-19.91,5.09-39.46,15.09-56.72c4.26-7.03,6.53-15.17,6.53-23.5
			c0-25.09-20.41-45.5-45.5-45.5c-25.09,0-45.5,20.41-45.5,45.5c0,8.32,2.27,16.47,6.56,23.55c9.98,17.21,15.17,36.75,15.06,56.67
			H1138.9V976.77l-3.65,0.45c-15.96,1.95-31.1,7.03-45.01,15.1c-6.12,3.71-13.1,5.65-20.23,5.65c-21.5,0-39-17.5-39-39
			c0-21.5,17.5-39,39-39c7.13,0,14.11,1.94,20.18,5.62c13.96,8.1,29.11,13.18,45.07,15.13l3.65,0.45v-90.07
			c3.27-4.85,22.16-31.76,55.95-58.33c34.16-26.87,91.01-58.9,167.85-58.9c62.67,0,119.99,27.71,161.42,78.01
			c40.22,48.85,62.38,114.3,62.38,184.28c0,30.12-4.28,60.88-12.71,91.48H1407.53z"/>
		<g>
			<path class="st2" d="M1575.19,1231.9h-66.19c-3.28,0-5.94-2.66-5.94-5.94l0,0c0-3.28,2.66-5.94,5.94-5.94h66.19
				c3.28,0,5.94,2.66,5.94,5.94l0,0C1581.13,1229.24,1578.47,1231.9,1575.19,1231.9z"/>
			<path class="st10" d="M1581.69,1241.27h-79.19c-3.28,0-5.94-2.66-5.94-5.94l0,0c0-3.28,2.66-5.94,5.94-5.94h79.19
				c3.28,0,5.94,2.66,5.94,5.94l0,0C1587.63,1238.61,1584.97,1241.27,1581.69,1241.27z"/>
			<g>
				<path class="st8" d="M1349.5,1636.32c0,0-6.1,6.03-6.23,8.24c-0.14,2.21-0.54,25.92,1.95,28.13c2.49,2.21,9.8,3.78,7.45,6.27
					c-1.78,1.88-15.44,1.48-24.5,0.97c-2.64-0.15-5.96-21.53-7.01-24.67c-1.52-4.56-7-14.5-5.62-17.68
					c0.67-1.55,5.68-5.08,10.22-8.05c4.78-3.13,9.35-10.09,9.35-10.09L1349.5,1636.32z"/>
				<path class="st8" d="M1431.04,1651.13c0,0-5.46,15.62-5.46,15.66c-0.4,2.48-2,8.59-2,10.84c0,8.45,37.61-7.17,29.18-10.92
					c-0.76-0.34-3.16-3.05-3.41-5.92c-0.39-4.43,3.17-9.99,3.17-9.99L1431.04,1651.13z"/>
				<g>
					<path class="st11" d="M1482.94,1354.56l13.61,35.26c0,0,8.88,84.14,3.71,134.52c-2.16,21.07-48.99,133.83-48.99,133.83
						l-23.26-3.32l31.15-133.54l-11.46-51.07l-16.22-100.94L1482.94,1354.56z"/>
					<path class="st10" d="M1418.8,1356.39l-11.68,39.26l-17.76,118.5L1329.28,1625c0,0,9.03,13.87,18.73,16.05l85.27-112.03
						l46.21-140.25l-1.62-31.16L1418.8,1356.39z"/>
				</g>
				<path class="st14" d="M1598.11,1291.03c-6.99,3.17-6.28,4.48-7.18,4.86c-1.07,0.44-15.79-4.24-15.79-4.24
					s-43.46-13.44-45.79-14.27l-36.52-35.26l-19.22,17.12c0,0,40.55,37.07,42.94,38.55c2.39,1.49,62.79,11.27,68.09,12.35
					c0,0,5.96,4.14,9.77,6.58c3.81,2.45,8.29,2.7,9.45,3.19c0.17,0.07,4.1,1.42,9.28,1.5c4.47,0.07,0.24-2.51,0.24-2.51
					s-8.27-1.96-8.04-2.73c0.18-0.6,4.65,0.8,9.59,0.94c1.27,0.04,2.53,0.07,3.68,0.08c3.02,0.04,3.89-2.22,0.73-2.89
					c-1.12-0.24-2.98-0.57-4.33-0.58c-1.46-0.01-2.81-0.6-4.04-0.83c-2.44-0.47-4.23-0.78-4.16-0.89c0.09-0.15-0.34-0.66,1.01-0.67
					c1.62-0.02,5.08,0.89,7.47,0.64c1.35-0.14,4.19-0.22,4.19-0.22s4.59-0.75,4.62-1.08c0.15-1.78-3.26-2.39-5.08-1.91
					c-1.29-0.42-4.27-0.23-4.27-0.23s-6.12-1.27-5.99-2.34c0.1-0.87,15.22-1.29,15.27-3.09c0.04-1.47-4.51-1.6-4.51-1.6
					s-2.76,0.18-3.68,0.16c-1.08-0.03-4.31-0.42-4.31-0.42s-11.19-2.01-11-3.01c0.19-1,1.5-3.3,2.23-3.47
					c0.73-0.17,2.2,0.38,2.92,0.21c0.73-0.17,1.55-1.16,1.44-2.27c-0.11-1.11-3.89-1.95-3.89-1.95S1600.13,1290.11,1598.11,1291.03z
					"/>
				<path class="st5" d="M1505.96,1251.07l-18.28,24.83c0,0-16.16-19.37-23.42-29.09c-8.82-11.8-18.47-28.13-17.05-29.01
					c4.04-2.49,9.04-5.12,14.93-3.59C1482.54,1219.5,1505.96,1251.07,1505.96,1251.07z"/>
				<path class="st10" d="M1326.05,1629.38c0,0,12.84,39.32,18.34,41.26c1.46,0.51,9.68,2.6,11,5.74c0.03,0.08,0.06,0.17,0.08,0.28
					c0.43,1.99-1.25,3.83-3.28,3.83h-26.09c0,0-3.7-17.67-5.17-25.43c0,0-7.75-18.97-6.89-20.69
					C1314.91,1632.64,1326.05,1629.38,1326.05,1629.38z"/>
				<path class="st10" d="M1421.44,1680.42l4.2-13.79c0,0,9.15,3.88,13.67,3.23c4.52-0.65,13.35-3.23,13.35-3.23
					c18.05,6.02,32.84,8.94,30.15,13.79l0,0H1421.44z"/>
				<path class="st9" d="M1592.53,1303.06c3.35-0.09,6.02-1.56,7.97-4.81C1599.79,1302.77,1595.49,1304.66,1592.53,1303.06z"/>
				<path class="st4" d="M1423.47,1213.46c0,0-21.82,2.31-29.12,4.86c-6.09,2.13-14.35,22.05-14.35,22.05s33.06,95.58,31.77,112.67
					c-1.3,17.09-4.98,42.4-4.98,42.4s65.11,4.11,89.77-5.63c0,0-7.79-38.72-7.79-48.88c0-10.17-4.37-111.79-7.49-117.11
					c-3.11-5.32-9.39-8.35-21.28-10.95C1448.11,1210.28,1423.47,1213.46,1423.47,1213.46z"/>
				<path class="st8" d="M1427.81,1185.02l-4.34,28.44c0,0,13.06,15.06,22.53,12.13c7.95-2.46,5.86-13.63,5.86-13.63
					s-4.33-16.09-3.03-24.14C1450.13,1179.76,1427.81,1185.02,1427.81,1185.02z"/>
				<path class="st12" d="M1448.83,1187.82c1.3-8.05-21.02-2.8-21.02-2.8l-0.36,2.36c0.65,1.58,1.45,2.93,2.42,3.96
					c4.98,5.33,12.78,8.53,19.51,8.77C1448.71,1195.77,1448.29,1191.12,1448.83,1187.82z"/>
				<g>
					<path class="st8" d="M1424.15,1144.79c-0.63-0.23-5.06,32.39,3.34,41.36c8.4,8.98,24.76,11.91,30.62,4.84
						c6.49-7.82,6.16-42.88-6.89-52.11C1438.17,1129.65,1424.15,1144.79,1424.15,1144.79z"/>
					<path class="st15" d="M1446.26,1121.44c-10.09,2.04-16.63,8.17-19.03,10.78c-4.58,0.54-10.81,3.05-17.24,13.63
						c-7.91,13-2.07,27.41,7.14,34.48c9.2,7.07,9.08,15.21,9.08,15.21l1.45-4.2c1.07-3.2,1.51-6.59,1.15-9.95
						c-0.21-2.01-0.65-4.19-1.49-5.98c-2.21-4.72,4.75-7.86,6.71-11.78c1.5-3.02,1.58-9.94,3.95-14.94l2.83-3.82
						c0,0,6.53-5.05,12.92-3.62C1460.12,1142.66,1459.2,1118.81,1446.26,1121.44z"/>
					<path class="st8" d="M1433.6,1169.43c0.07,3.98-1.76,7.24-4.07,7.28c-2.31,0.04-4.24-3.16-4.31-7.13
						c-0.07-3.98,1.76-7.24,4.07-7.28C1431.61,1162.25,1433.54,1165.45,1433.6,1169.43z"/>
				</g>
				
					<rect x="1463.12" y="1237.52" transform="matrix(-1 -1.224647e-16 1.224647e-16 -1 3057.6406 2589.0381)" class="st16" width="131.41" height="113.99"/>
				
					<rect x="1544.89" y="1237.52" transform="matrix(-1 -1.224647e-16 1.224647e-16 -1 3203.769 2589.0381)" class="st7" width="113.99" height="113.99"/>
				<path class="st8" d="M1542.66,1349.1c-6.71-1.94-83.55-21.63-86.45-23.53c-2.9-1.9-50.36-46.25-50.36-46.25l27.19-14.38
					l42.49,41.85c2.9,1.22,57.32,21.92,57.32,21.92s16.63,6.79,18.08,6.5c1.22-0.24,2.26-1.34,11.74-3.45
					c2.74-0.61,6.63,0.55,6.63,0.55s4.78,1.46,4.77,2.61c-0.01,1.15-1.21,2.03-2.17,2.09c-0.96,0.06-2.79-0.74-3.75-0.68
					c-0.96,0.06-2.98,2.2-3.36,3.18c-0.23,0.6,13.23,10.43,13.89,11.77c0.31,0.31,16.45-0.79,15.79,0.24
					c-0.01,1.66-1.92,1.18-1.94,1.41c-0.25,4.42-23.11,7.7-24.68,7.26C1565.24,1359.45,1542.66,1349.1,1542.66,1349.1z"/>
				<path class="st5" d="M1420.48,1299.73l31.14-20.39c0,0-36.07-54.7-48.38-60.35c-8.48-3.89-19.03,1.98-23.17,16.36
					C1375.59,1250.96,1420.48,1299.73,1420.48,1299.73z"/>
			</g>
			<path class="st2" d="M1647.49,1263.28l-5.28,5.06v-29.58c0-3.07-2.49-5.55-5.55-5.55h-46.18c-3.07,0-5.55,2.49-5.55,5.55v34.38
				l-5.69-9.86l-19.5,5.69c0,0,15.65,29.79,25.19,34.65c12.76,6.5,44.46,6.36,57.29,0c7.81-3.86,21.13-27.72,21.13-27.72
				L1647.49,1263.28z"/>
			<path class="st10" d="M1629.92,1307.17c-0.9-10.23-7.79-18.19-16.15-18.19c-8.39,0-15.3,8.01-16.16,18.3
				C1607.61,1308.87,1619.97,1308.82,1629.92,1307.17z"/>
		</g>
		<g>
			<path class="st13" d="M1354.85,476.54c-4.71,8-13.11,7.68-22.14,9.92c-6.06,1.51-9.78,11.47-9.2,19.01
				c1.47,19.09-13.49,15.85-25.53,23.75c-28.83,18.93-10.23,68.31,21.27,71.5c6.31,0.64,13.5-0.39,19.09-3.53
				c4.48-2.52,7.66-5.74,12.74-7.54c10.62-3.76,22.45-5.06,30.93-13.23c12.15-11.68,2.08-17.39,5.22-25.9
				c3.13-8.5,16.64-4.24,19.21-21.86c2.78-19.06-0.26-35.49-7.3-44.96c-11.64-15.66-32.07-16.73-39.52-11.98
				C1357.41,473.15,1355.88,474.8,1354.85,476.54z"/>
			<path class="st8" d="M1487.21,512.31c-1.12-2.37-11.09,4.64-13.31,3.31c-2.21-1.33,8.94-12.57,7.8-14.53
				c-2.09-3.62-12.96,11.56-14.03,9.95c-1.07-1.6,9.37-17.8,5.64-18.69c-3.73-0.89-9.07,17.93-10.98,16.72
				c-1.91-1.21,6.54-17.05,2.94-20.28c-1.93-1.73-11.02,28.91-14.32,30.18c-3.3,1.27-7.01-12.1-10.12-11.58
				c-3.1,0.53,10.18,24.6,9.53,26.48c-0.65,1.87-12.81,41.18-19.99,53.05c-4.32-2.07-8.53-4.14-12.54-6.17
				c-1.61,9.12-1.79,18.71-3.91,27.66c13.93,6.12,26.36,10.56,30.41,9.07c12.32-4.54,18.4-64.34,20.37-75.5
				c1.98-11.17,7.25-13.36,10.25-19.22C1477.94,516.89,1488.33,514.68,1487.21,512.31z"/>
			<path class="st2" d="M1384.19,562.67l-20.62,20.8c0,0,27.24,14.77,50.35,24.93c2.12-8.95,2.29-18.54,3.91-27.66
				C1398.73,571.1,1384.19,562.67,1384.19,562.67z"/>
			<path class="st8" d="M1512.81,793.66c9.04,10.67,15.6,21.79,16.32,23.16c0.34,0.66,0.48,4.46,0.82,5.16
				c14.08,9.26,28.99,6.69,41.23,2.88c-8.06-3.49-19.28-7.53-20.33-9.22c-1.67-2.69-9.35-12.43-17.27-29.94
				C1527.28,791.97,1521.33,791.25,1512.81,793.66z"/>
			<path class="st4" d="M1529.28,817.33c-1.23,5.62-0.74,17.03,0.38,17.28c1.33,0.3,48.59,7.28,54.64,1.21
				c3.64-3.65-3.23-6.45-13.12-10.97C1558.94,828.67,1529.73,821.14,1529.28,817.33z"/>
			<path class="st8" d="M1516.82,836.28c9.04,10.67,15.6,21.79,16.32,23.16c0.34,0.66,0.48,4.46,0.82,5.16
				c14.08,9.26,28.99,6.69,41.23,2.88c-8.06-3.49-19.28-7.53-20.33-9.22c-1.67-2.69-9.35-12.43-17.27-29.94
				C1531.29,834.6,1525.34,833.87,1516.82,836.28z"/>
			<path class="st4" d="M1533.29,859.96c-1.23,5.62-0.74,17.03,0.38,17.28c1.33,0.3,48.59,7.28,54.64,1.21
				c3.64-3.65-3.23-6.45-13.11-10.96C1562.95,871.3,1533.75,863.77,1533.29,859.96z"/>
			<path class="st16" d="M1539.92,793.16l-24.57,8.51l-132.28-109.74c0,0,32.28-0.41,90.13,5.5
				C1490.5,699.2,1539.92,793.16,1539.92,793.16z"/>
			<path class="st7" d="M1333.41,682.82c0,0-3.53,9.28-3.98,14.34c-1.44,16.37,7.02,37.16,16.13,40.34
				c9.35,3.26,66.76,19.28,101.34,14.41l74.95,99.91l24.99-10.97l-58.54-102.8c0,0-11.28-17.7-20.56-21.87
				c-9.28-4.16-84.68-24.26-84.68-24.26l-11.67-16.97L1333.41,682.82z"/>
			<path class="st2" d="M1394.36,579.25c-4.14-7.66-8.41-13.75-8.41-13.75c-4.3-7.67-15.4-11.54-15.4-11.54s-3.71,0.08-7.98,0.29
				c-0.27,0.71-0.54,1.22-0.8,1.42c-1.6,1.21-10.79-0.35-16.72,3.69c-19.88,17.1-14.38,99.99-12.82,126.17l48.3,1.78
				c0,0,4.62-57.53,16.92-72.01C1406.02,605.22,1400.5,590.61,1394.36,579.25z"/>
			<path class="st8" d="M1367.06,525.92c0,0-3.33,23.85-5.65,29.65c-2.32,5.8,12.78,18.19,25.35,21.95c12.57,3.76-3.84-12.8-3.32-19
				c0.52-6.2,2.81-35.53,2.81-35.53L1367.06,525.92z"/>
			<path class="st12" d="M1385.61,531.4c0.37-4.85,0.63-8.41,0.63-8.41l-19.18,2.93c0,0-0.48,2.8-1.02,6.76
				C1373.82,537.21,1380.81,535.78,1385.61,531.4z"/>
			<path class="st8" d="M1373.08,482.35c0,0-7.56,1.71-12.23,8.86c-4.67,7.15-7.87,28.2,7.5,38.02
				c15.38,9.82,27.34-4.07,27.54-17.63C1396.09,498.05,1393.19,479.96,1373.08,482.35z"/>
			<path class="st8" d="M1399.41,507.36c-1.31,3.27-3.91,5.3-5.81,4.53c-1.9-0.77-2.37-4.04-1.06-7.31c1.31-3.27,3.92-5.3,5.81-4.53
				C1400.24,500.82,1400.72,504.09,1399.41,507.36z"/>
			<path class="st8" d="M1360.6,510.05c1.12,3.52,0.1,6.99-2.28,7.75c-2.37,0.76-5.2-1.49-6.32-5.01c-1.11-3.52-0.09-6.99,2.28-7.75
				C1356.66,504.28,1359.49,506.53,1360.6,510.05z"/>
			<g>
				<path class="st15" d="M1424.29,588.3c0,0,5.17,0.14,6.64,0c8.48-0.81,4.96,11.72,4.96,11.72s-4.14-4.06-5.8-4.06
					c-1.66,0-3.97,0.45-3.97,0.45L1424.29,588.3z"/>
				<path class="st15" d="M1453.02,672.01c0,0,3.49,5.43,7.41,2.99c3.92-2.44,10.69-7.17,11.95-3.61c1.27,3.56,1.01,6.53-0.36,7.24
					c-1.37,0.71-11.49,6.22-16.97,6.59c-5.48,0.37-10.03-4.83-10.03-4.83L1453.02,672.01z"/>
				<path class="st13" d="M1461.2,684.29c-0.18-4.29-1.02-9.05-3.37-13.1c-6-10.37-31.33-38.34-35.09-40.51
					c-3.75-2.19-1.05-10.6-1.05-10.6l-15.02-8.11l-7.82-4.23c0,0-17.73,27.07-19.09,29.62c-1.36,2.56,1.05,10.92-0.75,16.07
					c-1.76,5.14,0.07,33.08-2.47,36.15c-1.99,1.99-3.84,2.27-4.45,3.46c-0.29,0.54-0.63,1.44,0.1,2.38
					c2.04,2.61,12.43,0.42,12.43,0.42c0.08-0.16,4.36-6.18,3.69-9.76c-0.67-3.46,1.46-24.31,2.89-24.31c1.26,0,7.25,9.27,9.64,11.03
					v0.02c0.27,0.19,0.48,0.3,0.65,0.3c1.72,0,12.81,2.44,15.26,4.88c0.65,0.65,0.91,2.41,0.93,4.61c0.03,1.47-0.05,3.13-0.18,4.82
					c-0.24,3.1-0.67,6.27-0.97,8.36c2.63,0.02,5.28,0.03,7.92,0.01c2.17-3.92,6.75-6.62,12.05-6.62c4.99,0,9.34,2.39,11.65,5.95
					c4.43-0.24,6.14,1.92,9.94,1.56C1458.28,695.39,1461.27,685.98,1461.2,684.29z"/>
				<path class="st13" d="M1425.81,589.51c-1.66-1.6-4.01-2.3-6.29-1.94c-1.24,0.2-3.04,0.31-5.49,0.09
					c-5.51-0.5-11.17-0.05-14.73,3.51c-3.56,3.56-4.01,16.24,0,22.2c4.01,5.96,15.33,7.46,16.33,10.17c1,2.71,10.82,4.01,12.22,0.7
					c0,0,1.06,0.72,2.6,0.28c3.67-1.04,5.01-4.69,3.71-8.6c-1.3-3.91-6.81-11.92-5.81-19.14
					C1428.82,593.43,1427.43,591.08,1425.81,589.51z"/>
				<path class="st7" d="M1423.5,613.93c-0.64,0.66-0.66,1.7-0.06,2.4c1.18,1.36,3.19,3.55,4.65,4.39c2.18,1.25,4.26-4.04,4.26-6.42
					C1432.34,612.02,1427.34,609.98,1423.5,613.93z"/>
				<path class="st13" d="M1421.25,651.96c-0.05-1.15-1.02-2.04-2.18-1.97c-0.01,0-0.03,0-0.04,0c-5.85,0.36-9.87,5.68-9.1,11.48
					c0.04,0.31,0.04,0.6-0.01,0.85c-0.22,1.03-1.95,4.47-3.8,7.97c3.5,0.88,7.01,1.75,10.51,2.63c2.57-4.45,5.12-8.6,5.12-8.6
					L1421.25,651.96z"/>
				<path class="st13" d="M1401.3,679.15c0,0-3.97,11.91-5.11,16.46c3.21,1.85,5.15-1.78,12.42,0.23
					c0.19-1.43,2.76-10.27,2.76-12.43c0-1.06,3.23-6.03,5.8-10.41c0.19-0.33,0.02-0.75-0.34-0.85c-3.18-0.89-7.22-2.52-10.4-3.4
					c-0.4-0.11-0.83,0.07-1.01,0.44C1403.23,673.51,1401.3,679.15,1401.3,679.15z"/>
				<path class="st15" d="M1393.24,694.45c0.79-1.7,3.1-3.7,6.52-3.7c3.41,0,8.86,5.09,8.86,5.09s-1.62,1.58-6.06,1.58
					C1398.11,697.42,1391.71,697.76,1393.24,694.45z"/>
				<path class="st15" d="M1413.31,693.73c0.79-1.7,3.1-3.7,6.51-3.7c1.28,0,2.84,0.72,4.3,1.61c2.33,1.43,1.35,5.04-1.38,5.06
					c-0.04,0-0.09,0-0.13,0C1418.17,696.7,1411.77,697.04,1413.31,693.73z"/>
				<path class="st15" d="M1445.31,693.73c0.95-1.7,3.73-3.7,7.84-3.7c1.54,0,3.42,0.72,5.18,1.61c2.8,1.43,1.62,5.04-1.66,5.06
					c-0.05,0-0.11,0-0.16,0C1451.16,696.7,1443.46,697.04,1445.31,693.73z"/>
				<path class="st15" d="M1411,592.12c-1.61-1.61-0.61-3.51,0.27-4.62c-4.58-0.1-9.01,0.7-11.97,3.67c-3.56,3.56-4.01,16.24,0,22.2
					c3.6,5.35,13.1,7.11,15.72,9.37c2.72-4.63-1.44-8.52-2.42-10.7c-0.98-2.18,4.88-7.67,5.56-12.02
					C1418.84,595.66,1413.45,594.58,1411,592.12z"/>
				<path class="st13" d="M1403.29,588.64c0,0-3.55,1.23-8.02-0.35c-4.46-1.58-8.9,6.39-8.9,6.39s4.13,8.94,7.44,11.12
					C1397.12,607.98,1403.29,588.64,1403.29,588.64z"/>
			</g>
			<path class="st8" d="M1459.96,664.72c0-1.98-6.08-7.7-9-6.78c-2.84,0.9-14.33,8.11-14.33,8.11l-50.84-11.96
				c0,0-12.83-29.26-14.08-54.4c-10.61,1.44-17.83,4.07-27.05,9.2c4.45,24.04,15.25,63.01,27.2,70.32
				c5.03,3.08,65.03-3.68,65.03-3.68s12.48,1.75,15.58,0.89C1465.19,672.92,1459.96,668.72,1459.96,664.72z"/>
			<path class="st10" d="M1372.02,572.84c-1.57-7.59-3.41-15.2-11.61-17.61c-5.08-1.49-10.79-0.06-14.85,3.26
				c-4.83,3.96-6.18,10.31-6.16,16.33c0.05,13.65,0.98,27.81,3.47,41.26c9.22-5.13,22.64-4.55,33.25-5.99
				C1377.1,597.95,1374.07,582.73,1372.02,572.84z"/>
		</g>
		<path class="st2" d="M959.9,530.12c-5.38,28.57-22.56,88.65-50.56,87.7c-1.36-39.19-3.28-72.87-5.97-83.5
			c-0.61-2.21-1.36-4.34-2.22-6.4c17.44,1.51,27.92-25.08,31.94-43.81c-3.58,11.89-11.68,30.93-22.3,37.29
			c-6.03,3.63-10.45,1.8-12.13,1.29c-10.12-18.86-29.25-31.47-38.49-42.7c-7.3-8.98-2.62-44.9-0.81-56.3
			c-2.57,13.22-5.31,32.58-4.16,46.09c1.43,15.23,9.28,16.19,27.28,36.65c14.42,16.13,19.45,24.83,19.95,86.65
			c-1.1,0.23-2.5,0.45-3.99,0.51c-14.76,0.27-28.33-14.06-35.84-26.61c5.94,11.4,16.47,24.32,28.82,28.23
			c2.26,0.7,4.62,1.12,7.02,1.22c1.31,0.02,2.73-0.07,4.01-0.23c0.32,5.42,1.98,111.63,0.51,180.25c4.35,0.05,3.56-1.98,7.83-1.64
			c-0.17-18.59,0.78-88.09-1.19-149.08C942.27,624.42,955.98,563.99,959.9,530.12z"/>
		<g>
			<path class="st17" d="M840.12,436.35c6.66,5.34,16.58,4.03,16.58,4.03l-24.12-19.34C832.58,421.04,833.46,431.01,840.12,436.35z"
				/>
			<path class="st18" d="M832.58,421.04l24.12,19.34c0,0-0.87-9.97-7.53-15.31C842.51,419.73,832.58,421.04,832.58,421.04z"/>
		</g>
		<g>
			<path class="st17" d="M952.14,613.29c8.53-0.32,15.17-7.81,15.17-7.81l-30.89,1.17C936.43,606.64,943.61,613.61,952.14,613.29z"
				/>
			<path class="st18" d="M936.43,606.64l30.89-1.17c0,0-7.19-6.97-15.72-6.64C943.07,599.16,936.43,606.64,936.43,606.64z"/>
		</g>
		<g>
			<path class="st17" d="M961.09,582.22c5.83-3.77,7.37-11.76,7.37-11.76l-21.11,13.63C947.34,584.09,955.26,585.98,961.09,582.22z"
				/>
			<path class="st18" d="M947.34,584.09l21.11-13.63c0,0-7.92-1.89-13.75,1.88C948.88,576.1,947.34,584.09,947.34,584.09z"/>
		</g>
		<g>
			<path class="st17" d="M930.91,581.05c2.4,6.51,9.87,9.75,9.87,9.75l-8.71-23.58C932.07,567.23,928.51,574.54,930.91,581.05z"/>
			<path class="st18" d="M932.07,567.23l8.71,23.58c0,0,3.57-7.31,1.16-13.83C939.54,570.47,932.07,567.23,932.07,567.23z"/>
		</g>
		<g>
			<path class="st17" d="M862.46,454.28c-5.22,3.63-6.37,10.99-6.37,10.99l18.89-13.15C874.98,452.12,867.67,450.65,862.46,454.28z"
				/>
			<path class="st18" d="M874.98,452.12l-18.89,13.15c0,0,7.3,1.47,12.52-2.16C873.83,459.49,874.98,452.12,874.98,452.12z"/>
		</g>
		<g>
			<path class="st17" d="M934.59,506.97c-6.34-0.49-11.89,4.47-11.89,4.47l22.95,1.79C945.64,513.23,940.93,507.46,934.59,506.97z"
				/>
			<path class="st18" d="M945.64,513.23l-22.95-1.79c0,0,4.72,5.77,11.05,6.26C940.09,518.2,945.64,513.23,945.64,513.23z"/>
		</g>
		<g>
			<path class="st17" d="M866.82,579.2c-6.34-0.49-11.89,4.48-11.89,4.48l22.95,1.79C877.87,585.46,873.15,579.69,866.82,579.2z"/>
			<path class="st18" d="M877.87,585.46l-22.95-1.79c0,0,4.72,5.77,11.05,6.26C872.31,590.43,877.87,585.46,877.87,585.46z"/>
		</g>
		<g>
			<path class="st17" d="M878.72,572.78c-2.31-5.92-9.2-8.76-9.2-8.76l8.37,21.44C877.89,585.46,881.03,578.7,878.72,572.78z"/>
			<path class="st18" d="M877.89,585.46l-8.37-21.44c0,0-3.14,6.76-0.83,12.68C871,582.62,877.89,585.46,877.89,585.46z"/>
		</g>
		<g>
			<path class="st17" d="M924.02,498.85c-1.42-3.8-5.79-5.68-5.79-5.68l5.14,13.77C923.37,506.94,925.44,502.65,924.02,498.85z"/>
			<path class="st18" d="M923.37,506.94l-5.14-13.77c0,0-2.07,4.29-0.65,8.09C919,505.05,923.37,506.94,923.37,506.94z"/>
		</g>
		<g>
			<path class="st17" d="M847.86,468.14c-5.94-2.26-12.67,0.94-12.67,0.94l21.51,8.19C856.7,477.27,853.8,470.4,847.86,468.14z"/>
			<path class="st18" d="M856.7,477.27l-21.51-8.19c0,0,2.9,6.86,8.84,9.13C849.97,480.46,856.7,477.27,856.7,477.27z"/>
		</g>
		<path class="st10" d="M923.55,775.04h3.36V643.43c0-0.93-0.75-1.68-1.68-1.68l0,0c-0.93,0-1.68,0.75-1.68,1.68V775.04z"/>
		<path class="st5" d="M884.49,779.77c0,0,15.43-18.56,27.86-13.27c12.42,5.28,14.46-4.26,20.96-1.11
			c6.5,3.15,14.63,11.08,14.63,11.08L884.49,779.77z"/>
		<g>
			<path class="st4" d="M914.29,680.62c-3.54,0-7.63-0.81-12.07-3.15c-0.4-0.21-0.55-0.7-0.34-1.1c0.21-0.4,0.7-0.55,1.1-0.34
				c13.37,7.05,23.01-0.45,23.41-0.78c0.35-0.28,0.86-0.22,1.14,0.13c0.28,0.35,0.23,0.86-0.12,1.14
				C927.34,676.58,922.2,680.62,914.29,680.62z"/>
		</g>
		<g>
			<path class="st4" d="M903.15,677.66l-1.45-0.85c-1.09-0.64-10.65-6.41-10.97-10.84c-0.08-1.05,0.35-1.99,1.23-2.7
				c1.58-1.27,3.13-1.63,4.59-1.05c4.58,1.82,6.2,12.56,6.37,13.77L903.15,677.66z M895.17,663.58c-0.67,0-1.4,0.32-2.19,0.96
				c-0.47,0.38-0.67,0.79-0.63,1.31c0.19,2.58,5.4,6.5,8.66,8.61c-0.72-3.68-2.41-9.68-5.06-10.73
				C895.7,663.63,895.43,663.58,895.17,663.58z"/>
		</g>
		<g>
			<path class="st4" d="M892.92,687.5c-0.58,0-1.38-0.22-1.99-1.23c-0.5-0.83-0.59-1.75-0.25-2.65c1.3-3.53,8.94-6.19,9.81-6.49
				l1.99-0.67l-1.02,1.83c-0.85,1.53-5.25,9.15-8.5,9.21C892.95,687.5,892.93,687.5,892.92,687.5z M898.85,679.49
				c-2.57,1.09-5.99,2.89-6.65,4.68c-0.16,0.44-0.12,0.84,0.12,1.25c0.27,0.45,0.49,0.44,0.6,0.44
				C894.33,685.85,896.9,682.58,898.85,679.49z"/>
		</g>
		<path class="st4" d="M903.87,676.46c0,0.77-0.62,1.39-1.39,1.39c-0.77,0-1.39-0.62-1.39-1.39c0-0.77,0.62-1.39,1.39-1.39
			C903.24,675.06,903.87,675.69,903.87,676.46z"/>
		<polygon class="st7" points="354.88,1235.8 359.79,1239.98 365.75,1237.22 370.92,1242.3 376.37,1237.4 382.47,1242.89 
			388.05,1239 394.77,1243.31 393.15,1245.87 388.12,1242.64 382.24,1246.74 376.37,1241.47 370.83,1246.45 365.12,1240.85 
			359.3,1243.54 354.75,1239.66 351.3,1242.23 349.5,1239.79 		"/>
		<polygon class="st7" points="1059.97,462.05 1040.09,457.46 1034.83,471.62 1015.05,467.77 1007.88,480.69 992.66,479.71 
			992.6,485.82 1012.95,487.13 1019.75,474.89 1040.32,478.9 1045.49,464.97 1063.51,469.13 		"/>
		<path class="st2" d="M1624.74,783.33l7.18-12.12l-5.92-12.78c-0.67-1.46,0.61-3.05,2.18-2.7l13.75,3.08l10.33-9.58
			c1.18-1.09,3.09-0.36,3.24,1.24l1.32,14.03l12.3,6.86c1.4,0.78,1.3,2.83-0.18,3.47l-12.93,5.59l-2.73,13.82
			c-0.31,1.57-2.29,2.11-3.35,0.91l-9.31-10.57l-13.99,1.68C1625.05,786.43,1623.93,784.72,1624.74,783.33z"/>
		<g>
			<path class="st2" d="M442.37,1120.07c0,0,2.22-6.28,9.67-8.52c6.64-2,12.81,1.9,14.65,8.05c2.14,7.12-1.57,17.41-15.56,29.6
				c-18.4-2.44-27.17-8.99-29.31-16.1c-1.85-6.15,1.14-12.8,7.78-14.8C437.06,1116.07,442.37,1120.07,442.37,1120.07z"/>
			<g>
				<path class="st2" d="M388.31,1139.4c6.77-0.89,12.16-1.95,17.41-3.25c1.73-0.43,4.86-0.65,5.69-2.43
					c0.43-0.93,0.3-1.89-0.59-2.5c-1.63-1.13-4.1,0.08-5.84,0.51c-5.32,1.31-11.4,2.53-17.62,3.42c-1.17,0.17-1.9,1.52-1.65,2.6
					C385.99,1138.98,387.14,1139.55,388.31,1139.4L388.31,1139.4z"/>
			</g>
			<g>
				<path class="st2" d="M480.48,1131.26c2.56-0.58,5.1-1.21,7.65-1.83c2.44-0.6,5.42-0.87,7.52-2.27c1.55-1.03,1.16-3.33-0.79-3.53
					c-2.52-0.26-5.26,0.85-7.7,1.46c-2.54,0.63-5.09,1.25-7.62,1.92C476.82,1127.71,477.73,1131.88,480.48,1131.26L480.48,1131.26z"
					/>
			</g>
			<g>
				<path class="st2" d="M419.93,1167.01c1.89-6.14,5.38-8.74,7.86-11.52c1.32-1.49-0.13-3.62-2-2.84
					c-5.13,2.14-8.5,8.02-10.01,13.1C414.98,1168.43,419.1,1169.69,419.93,1167.01L419.93,1167.01z"/>
			</g>
			<g>
				<path class="st2" d="M452.55,1173.33c-0.74-2.61-0.96-5.27-0.59-7.96c0.23-1.65,2.25-6.57-0.93-6.63
					c-3-0.06-3.39,4.94-3.59,7.06c-0.26,2.84,0.04,5.75,0.84,8.49C449.06,1176.97,453.32,1176.04,452.55,1173.33L452.55,1173.33z"/>
			</g>
			<g>
				<path class="st2" d="M470.26,1152.06c1.67,0.69,3.33,1.37,4.99,2.06c1.66,0.68,3.38,1.85,5.15,1.02c1-0.47,1.15-1.62,0.8-2.54
					c-0.63-1.67-3.14-2.14-4.66-2.75c-1.67-0.67-3.34-1.35-5-2.03c-1.11-0.45-2.44,0.41-2.76,1.48
					C468.41,1150.54,469.15,1151.6,470.26,1152.06L470.26,1152.06z"/>
			</g>
			<g>
				<path class="st2" d="M421.08,1108.7c-8.56-11.71-8.47-11.8-9.82-12.6c-1.38-0.83-3.25,0.42-2.87,2.04
					c0.38,1.61,0.35,1.33,9.4,13.62c0.72,0.98,2.35,0.88,3.17,0.12C421.93,1110.96,421.79,1109.68,421.08,1108.7L421.08,1108.7z"/>
			</g>
			<g>
				<path class="st2" d="M444.28,1102.94c0.32-2.37,0.39-4.74,0.21-7.12c-0.17-2.21-0.14-5.63-2.48-6.64
					c-0.5-0.21-1.3-0.01-1.66,0.38c-1.51,1.67-0.43,4.48-0.28,6.52c0.16,2.23,0.09,4.47-0.13,6.7c-0.11,1.17,0.97,2.21,2.09,2.25
					C443.3,1105.07,444.12,1104.1,444.28,1102.94L444.28,1102.94z"/>
			</g>
			<g>
				<path class="st2" d="M477.59,1097.14c0.14-1.08-0.88-1.83-1.82-1.96c-1.92-0.27-3.82,1.99-5.08,3.22
					c-1.47,1.43-2.79,2.99-4.01,4.64c-0.71,0.95-0.23,2.43,0.71,3.01c1.1,0.68,2.27,0.22,3.01-0.71
					C475.25,1099.28,477.25,1099.81,477.59,1097.14z"/>
			</g>
		</g>
		<path class="st5" d="M1795.05,945.88c-2.12,16.72,15.29,30,30.79,28.95c17.12-1.16,31.65-15.2,34.15-32.03
			c2.71-18.21-8.23-32.78-25.16-34.11c-16.48-1.3-27.02,13.37-22.26,28.17c3.41,10.61,13.1,14.57,17.98,11.64
			c3.8-2.28,3.57-8.04-1.03-9.05c-1.85-0.41-3.75,0.62-4.73,2.04c-4.03-1.6-7.87-8.94-5.26-16.86c3.33-10.12,16.12-10.7,24.07-5.98
			c10.12,6.01,11.71,18.95,8,29.26c-3.9,10.83-14.53,19.35-26.1,20.18c-13.11,0.93-24.65-9.12-25.7-22.18
			C1799.53,942.82,1795.43,942.89,1795.05,945.88z"/>
		<path class="st4" d="M452,1306.19c-1.09,8.57,7.83,15.36,15.77,14.83c8.77-0.59,16.21-7.79,17.49-16.4
			c1.39-9.33-4.22-16.79-12.89-17.47c-8.44-0.67-13.84,6.85-11.4,14.43c1.75,5.43,6.71,7.46,9.21,5.96
			c1.95-1.17,1.83-4.12-0.53-4.64c-0.95-0.21-1.92,0.32-2.42,1.04c-2.07-0.82-4.03-4.58-2.7-8.64c1.7-5.18,8.26-5.48,12.33-3.06
			c5.18,3.08,5.99,9.7,4.09,14.99c-2,5.54-7.44,9.91-13.37,10.33c-6.71,0.48-12.62-4.67-13.16-11.36
			C454.29,1304.62,452.19,1304.66,452,1306.19z"/>
		<path class="st4" d="M493,935.17l-0.13-16.04l-13.28-8.99c-1.51-1.02-1.2-3.34,0.54-3.92l15.21-5.08l4.44-15.41
			c0.51-1.75,2.81-2.17,3.89-0.7l9.53,12.9l16.03-0.54c1.83-0.06,2.93,2,1.87,3.48l-9.32,13.05l5.46,15.08
			c0.62,1.72-1,3.4-2.74,2.85l-15.29-4.83l-12.65,9.86C495.11,938.01,493.01,937,493,935.17z"/>
		<g>
			<path class="st3" d="M1655.32,1133.27c-0.51-7.38,5.06-13.78,12.44-14.3c7.38-0.51,13.78,5.06,14.3,12.44
				c0.51,7.38-5.06,13.78-12.44,14.29C1662.23,1146.22,1655.83,1140.65,1655.32,1133.27z"/>
			<g>
				<path class="st3" d="M1678.04,1171.11c-0.8-3.89-1.28-8.05-2.61-11.8c-1.14-3.22-6.17-2.24-5.91,1.22
					c0.31,4.24,1.64,8.53,2.52,12.68c0.36,1.68,2.58,2.46,4.06,1.95C1677.9,1174.53,1678.39,1172.8,1678.04,1171.11L1678.04,1171.11
					z"/>
			</g>
			<g>
				<path class="st3" d="M1701.01,1154.51c-4.44-2.62-8.31-5.86-12.41-8.96c-3.2-2.42-6.65,1.74-4.02,4.62
					c3.78,4.13,8.75,7.35,13.54,10.18c1.52,0.89,3.62,0.02,4.37-1.47C1703.31,1157.2,1702.52,1155.4,1701.01,1154.51
					L1701.01,1154.51z"/>
			</g>
			<g>
				<path class="st3" d="M1692.6,1130.52c-1.01,0.81-1.21,1.97-0.59,3.09c1.5,2.72,5.31,2.59,8.02,2.5c2.83-0.1,5.65-0.67,8.32-1.58
					c3.95-1.35,1.81-7.48-2.16-6.12C1698.45,1131.05,1695.51,1128.18,1692.6,1130.52z"/>
			</g>
			<g>
				<path class="st3" d="M1688.33,1104.47c-3.9,5.7-7.09,7.63-6.59,10.77c0.29,1.84,1.74,2.71,3.51,2.31
					c2.09-0.48,3.24-2.7,4.49-4.26c1.2-1.5,2.39-2.99,3.46-4.59c0.98-1.45,1.11-3.32-0.32-4.56
					C1691.69,1103.11,1689.32,1103.02,1688.33,1104.47L1688.33,1104.47z"/>
			</g>
			<g>
				<path class="st3" d="M1673.13,1103.48c-1.25-3.46-1.52-4.72-3.14-6.32c-1.4-1.4-4.37-0.51-4.57,1.55
					c-0.23,2.4,0.27,3.29,1.58,6.93c0.59,1.65,2.48,2.57,4.14,1.99C1672.8,1107.04,1673.73,1105.13,1673.13,1103.48L1673.13,1103.48
					z"/>
			</g>
			<g>
				<path class="st3" d="M1656.72,1111.85c-5.62-4.27-6.77-5.47-8.98-5.24c-1.29,0.14-2.75,1.38-2.46,2.83
					c0.53,2.7,2.1,3.43,7.27,7.2c1.39,1.01,3.29,1.06,4.49-0.31C1658.11,1115.1,1658.1,1112.89,1656.72,1111.85L1656.72,1111.85z"/>
			</g>
			<g>
				<path class="st3" d="M1634.14,1131.42c-2.21,1.18-1.32,5.01,1.07,5.32c2.3,0.3,3.19-0.07,14.35-2.11
					c1.72-0.31,3.14-1.57,3.01-3.46c-0.11-1.6-1.73-3.33-3.46-3.01C1637.52,1130.25,1636.36,1130.25,1634.14,1131.42z"/>
			</g>
			<g>
				<path class="st3" d="M1651.63,1149.68c-6.12,5.92-7.01,4.88-9.43,8.5c-1.1,1.66,0.72,4.29,2.64,3.94
					c2.47-0.45,3.13-0.87,6.35-3.42c1.87-1.48,3.66-3.07,5.37-4.72c1.27-1.23,0.93-3.53-0.32-4.61
					C1654.81,1148.12,1652.9,1148.45,1651.63,1149.68L1651.63,1149.68z"/>
			</g>
		</g>
		<path class="st4" d="M604.35,1670.52h13.11V974.59c0-3.62-2.93-6.55-6.55-6.55l0,0c-3.62,0-6.55,2.93-6.55,6.55V1670.52z"/>
		<path class="st4" d="M692.88,1670.52h13.1V962.8c0-3.62-2.93-6.55-6.55-6.55l0,0c-3.62,0-6.55,2.93-6.55,6.55V1670.52z"/>
		<rect x="613.66" y="1043.47" class="st4" width="90.2" height="7.85"/>
		<rect x="613.66" y="1148.71" class="st4" width="90.2" height="7.86"/>
		<rect x="613.66" y="1253.95" class="st4" width="90.2" height="7.86"/>
		<rect x="613.66" y="1359.18" class="st4" width="90.2" height="7.85"/>
		<g>
			<path class="st19" d="M638.83,1425.98h-56.9c-4.7,0-8.51,3.81-8.51,8.51v31.94h9.52v-30.28h55.9V1425.98z"/>
			<path class="st8" d="M649.7,1404.41l-17.64-18.61c0,0-18.88,10.38-40.89,20.3c-6.05-10.53-15.92-45.17-16.46-46.82
				c-0.53-1.66,11.57-22.47,8.86-22.99c-2.71-0.52-6.22,11.11-9.08,9.93c-2.86-1.18-10.22-28.17-11.94-26.7
				c-3.22,2.76,3.87,16.79,2.17,17.81c-1.7,1.02-6.01-15.55-9.29-14.85c-3.28,0.71,5.54,15.09,4.57,16.47
				c-0.97,1.38-10.18-12.11-12.09-8.98c-1.03,1.7,8.5,11.75,6.54,12.87c-1.96,1.12-10.55-5.21-11.58-3.16
				c-1.03,2.05,8.02,4.19,10.53,9.38c2.51,5.19,7.08,7.21,8.59,17.03c1.51,9.8,5.66,62.27,16.35,66.48
				C587.7,1436.26,649.7,1404.41,649.7,1404.41z"/>
			<g>
				<path class="st8" d="M812.4,1646.26c1.39-9.89,1.28-28.16,0.58-47.44c8.63-0.44,15.94-0.99,24.56-1.55
					c-3.59,24.61-6.01,49.96-6.01,49.96l0.59,4.87l0.32,14.42l-48.85,0.36c0,0,10.29-4.56,24.7-13.58
					C809.35,1652.63,811.8,1650.5,812.4,1646.26z"/>
				<path class="st10" d="M833.75,1669.61l-51.51,0.61c-1.86-0.17-2.32-1.68-1.67-2.6c1.33-1.91,7.21-3.32,13.83-6.37
					c11.6,1.21,35.86-6.71,37.69-9.38C833.14,1657.2,834.79,1669.38,833.75,1669.61z"/>
			</g>
			<g>
				<path class="st8" d="M899.92,1636.06c-4.03-9.14-13.75-24.61-24.51-40.62c7.1-4.92,14.15-9.93,21.18-14.96
					c9.92,22.81,20.1,46.32,20.1,46.32l3.07,3.83l7.87,12.09l-41.32,26.06c0,0,6.34-9.31,13.83-24.56
					C900.68,1643.08,901.65,1639.98,899.92,1636.06z"/>
				<path class="st10" d="M929.77,1645.74l-42.85,26.58c-1.67,0.84-2.85-0.2-2.79-1.33c0.12-2.33,4.38-6.62,8.39-12.7
					c10.49-5.09,26.84-24.73,26.99-27.96C923.22,1634.3,930.53,1645,929.77,1645.74z"/>
			</g>
			<path class="st13" d="M879.83,1233.73c3.82-18.63-8.16-37.09-24.96-44.02c0.11-10.6-3.32-24.02-10.56-31.28
				c-14.28-14.31-41.52-19.33-52.02-1.08c-13.87,7.84-24.78,24.84-20.64,40.31c-13.44,13.92-8.33,39.11,11.26,51
				c-0.31,15.62,7.95,31.14,21.6,37.81c3.28,1.6,8.41,3.84,9.06,4.53c-0.85-0.81,10.12,29.74,44.2,15.76
				C892.54,1292.49,902.49,1252.34,879.83,1233.73z"/>
			<path class="st16" d="M811.5,1632.28c4.23-23.46-10.46-81.64-19.43-107.22c-9.32-26.6-15.25-139.19-15.25-139.19l10.57-12.36
				l43.13-2.58c0,0-18.35,56.39-18.35,75.76s8.93,69.39,19.42,95.41c9.67,24.01,5.66,74.35,2.73,90.9
				C826.51,1634.27,819.12,1633.82,811.5,1632.28z"/>
			<path class="st7" d="M841.42,1376.17c1.98,1.97,13.57,15.7,13.57,25.3s-21.85,95.96-16.6,101.19
				c5.24,5.23,24.64,18.34,37.02,36.6c10.43,15.38,34.34,59.86,38.91,70.44c-9.01,6.27-16.83,9.13-25.86,12.15
				c-1.45-7.87-72.09-85.74-80.15-102.03c-8.07-16.28-12.44-90.72-16.52-100.61c-4.08-9.89-14.96-35-14.96-35L841.42,1376.17z"/>
			<path class="st8" d="M778.5,1312.53c0,0-26.63,30.39-56.1,41.83c-4.61,1.79-8.57,5.28-8.57,5.28c0,3.1,5.53,0.86,5.53,0.86
				s-1.85,3.02-0.88,6.7c0.97,3.68,7.4,1.24,10.89,1.24c1.6,0,9.82-9.19,20.91-14.6c13.13-6.4,28.62-12.66,30.52-14.54
				C784.3,1335.79,779.53,1311.41,778.5,1312.53z"/>
			<path class="st10" d="M832.66,1227c0,0-26.8-2.71-40.78,6.2c-13.98,8.92-22.92,40.71-22.92,54.28c0,13.57,10.08,84.91,6.21,98.48
				c0,0,44.29-1.94,59.43-1.94c15.15,0,18.25-5.82,18.25-5.82s-31.46-31.02-31.46-44.59C821.39,1320.05,832.66,1227,832.66,1227z"/>
			<g>
				<path class="st10" d="M466.72,1592.52V1639h5.03v-42.26h33.32v14.51c-12.88,1.38-22.94,13.28-22.94,27.75
					c0,15.4,11.4,27.89,25.46,27.89c14.06,0,25.46-12.49,25.46-27.89c0-14.47-10.06-26.37-22.94-27.75v-14.51H517v-5.51h-6.91
					v-16.73H517v-5.51h-6.91v-18.62h91.15v-8.26h-50.36v-47.33c0-12.64,11.62-26.78,27.17-26.78h43.31v-8.26h-43.31
					c-18.49,0-34.72,16.37-34.72,35.04v47.33h-33.24v-26.55h-5.03v53.43h-16.87C476.35,1568.99,466.72,1579.55,466.72,1592.52z
					 M505.06,1591.24h-33.27c0.6-9.34,7.73-16.73,16.41-16.73h16.87V1591.24z"/>
				<path class="st20" d="M486.46,1599.82c0,0,1.01,17.92,1.02,17.96c0.37,2.27,1.84,7.9,1.84,9.97c0,7.77-34.58-6.6-26.83-10.04
					c0.7-0.31,4.69-4.62,5.7-7.07c1.79-4.38,2.57-12.96,2.57-12.96L486.46,1599.82z"/>
				<path class="st21" d="M462.58,1617.63c0,0,8.12,2.38,12.28,2.97c4.16,0.6,9.64-4.41,12.58-3.06c3.24,1.49,3.42,15.15,3.42,15.15
					s-43.46,1.45-56.09-0.41C429.73,1631.55,445.98,1623.17,462.58,1617.63z"/>
				<g>
					<path class="st10" d="M659.55,1561.53h9.55v-181.97c0-6.14,6.01-11.13,13.4-11.13h85.92c2.29,0,4.15-1.78,4.15-3.97l0,0
						c0-2.19-1.86-3.97-4.15-3.97H682.5c-12.65,0-22.95,8.56-22.95,19.07V1561.53z"/>
				</g>
				<g>
					<path class="st10" d="M614.77,1523.36c31.83,0,57.64,26.04,57.64,58.16s-25.81,58.16-57.64,58.16
						c-31.83,0-57.64-26.04-57.64-58.16S582.94,1523.36,614.77,1523.36z"/>
					<path class="st10" d="M544.58,1581.52c0,39.11,31.42,70.82,70.19,70.82c38.76,0,70.19-31.71,70.19-70.82
						s-31.42-70.82-70.19-70.82C576.01,1510.7,544.58,1542.41,544.58,1581.52z M551.23,1581.52c0-35.4,28.45-64.1,63.54-64.1
						c35.09,0,63.53,28.7,63.53,64.1s-28.45,64.11-63.53,64.11C579.68,1645.62,551.23,1616.92,551.23,1581.52z"/>
				</g>
				
					<rect x="660.85" y="1391.57" transform="matrix(-1 -1.224647e-16 1.224647e-16 -1 1349.9044 2892.4023)" class="st2" width="28.2" height="109.25"/>
				<g>
					<path class="st2" d="M568.35,1568.99h-23.86c-12.86,0-23.32,10.55-23.32,23.53V1639h5.46v-46.48c0-9.94,8.01-18.02,17.86-18.02
						h23.86V1568.99z"/>
				</g>
				
					<rect x="484.32" y="1507.86" transform="matrix(-1 -1.224647e-16 1.224647e-16 -1 1042.7927 3028.4419)" class="st10" width="74.16" height="12.72"/>
				<g>
					<rect x="523.9" y="1591.24" class="st2" width="44.04" height="5.51"/>
				</g>
				<g>
					<rect x="565.53" y="1542.11" class="st2" width="101.69" height="8.26"/>
				</g>
				
					<rect x="556.66" y="1507.67" transform="matrix(-1 -1.224647e-16 1.224647e-16 -1 1245.708 3028.2478)" class="st10" width="132.4" height="12.92"/>
				<g>
					<path class="st2" d="M684.96,1571.27h8.19V1389.3c0-6.14,5.15-11.13,11.49-11.13h77.23v-7.94h-77.23
						c-10.85,0-19.68,8.55-19.68,19.07V1571.27z"/>
				</g>
				<path class="st10" d="M534.8,1639c0,15.4,13.76,27.89,30.73,27.89c16.97,0,30.73-12.49,30.73-27.89
					c0-15.4-13.76-27.89-30.73-27.89C548.56,1611.11,534.8,1623.6,534.8,1639z"/>
				<path class="st2" d="M546.82,1639c0,9.38,8.38,16.98,18.71,16.98c10.34,0,18.71-7.6,18.71-16.98c0-9.38-8.38-16.98-18.71-16.98
					C555.19,1622.02,546.82,1629.62,546.82,1639z"/>
				<path class="st5" d="M490.58,1459.74c8.89-8.89,132.74-4.6,132.74-4.6s-104.93,25.6-111.05,28.94
					c-6.13,3.34-28.93,116.03-28.95,117.5c-6.33-1.51-10.16-0.37-16.6-1.69C467.75,1580.32,476.27,1474.06,490.58,1459.74z"/>
				<path class="st22" d="M502.65,1600.37c0,0,1.01,17.92,1.02,17.96c0.37,2.27,1.84,7.9,1.84,9.97c0,7.77-34.58-6.6-26.83-10.04
					c0.7-0.31,5.47-4.43,5.7-7.07c0.36-4.08,0.17-10.56,0.17-10.56L502.65,1600.37z"/>
				<path class="st21" d="M478.77,1618.18c0,0,8.12,2.38,12.27,2.97c4.16,0.59,9.64-4.41,12.58-3.06
					c3.24,1.49,3.42,15.15,3.42,15.15s-43.46,1.45-56.09-0.4C445.93,1632.1,462.18,1623.71,478.77,1618.18z"/>
				<path class="st4" d="M642.63,1480.57c0,0-1.07,28.12-10.43,28.45c-9.36,0.34-69.41,1.68-103.23-1.36l-22.76,100.58l-26.72-2.57
					c0,0,8.05-67.17,10.91-92.72c2.82-25.14,10.93-46.23,25.14-46.74c14.21-0.51,107.63-14.97,107.63-14.97L642.63,1480.57z"/>
				<path class="st7" d="M667.82,1349.32c0,0,15.16,3.85,13.11,33.46c-2.06,29.61-18.43,119.21-48.72,126.24
					c-30.29,7.03-50.01-56.74-50.01-56.74s19.11-6.28,27.07-35.92c5.51-20.54,20.29-66.88,23.99-69.11
					C642.44,1341.71,667.82,1349.32,667.82,1349.32z"/>
				<path class="st2" d="M604.35,1548.47h8.19v-53.69c0-12.64,12.62-26.78,29.5-26.78h47.01v-8.26h-47.01
					c-20.08,0-37.69,16.37-37.69,35.04V1548.47z"/>
				<ellipse class="st2" cx="689.05" cy="1589.19" rx="66.2" ry="66.79"/>
				<path class="st2" d="M608.44,1589.19c0,44.92,36.09,81.33,80.61,81.33s80.61-36.41,80.61-81.33c0-44.92-36.09-81.33-80.61-81.33
					S608.44,1544.27,608.44,1589.19z M616.08,1589.19c0-40.66,32.67-73.63,72.97-73.63c40.3,0,72.97,32.96,72.97,73.63
					c0,40.66-32.67,73.62-72.97,73.62C648.75,1662.81,616.08,1629.85,616.08,1589.19z"/>
				<path class="st10" d="M634.46,1589.19c0,30.42,24.44,55.09,54.6,55.09c30.15,0,54.6-24.66,54.6-55.09
					c0-30.42-24.44-55.08-54.6-55.08C658.9,1534.11,634.46,1558.77,634.46,1589.19z"/>
				<path class="st2" d="M676.77,1589.19c0,6.85,5.5,12.39,12.28,12.39c6.78,0,12.28-5.55,12.28-12.39c0-6.85-5.5-12.39-12.28-12.39
					C682.27,1576.8,676.77,1582.34,676.77,1589.19z"/>
				
					<rect x="445.55" y="1633.03" transform="matrix(-1 -1.224647e-16 1.224647e-16 -1 974.4543 3280.502)" class="st10" width="83.35" height="14.44"/>
				
					<rect x="481.59" y="1633.03" transform="matrix(-1 -1.224647e-16 1.224647e-16 -1 1010.4886 3280.502)" class="st2" width="47.32" height="14.44"/>
				<g>
					<rect x="562.8" y="1520.43" class="st2" width="5.46" height="127.04"/>
				</g>
				<path class="st10" d="M562.29,1640.62c0,1.88,1.51,3.4,3.37,3.4s3.37-1.52,3.37-3.4c0-1.88-1.51-3.4-3.37-3.4
					S562.29,1638.74,562.29,1640.62z"/>
				<g>
					<path class="st15" d="M658.67,1270.04c0,0,10.62-7.18,15.11,5.4c-0.03-0.1,3.75-0.06,4.26,0.11c2.18,0.74,4.3,3.01,6.24,4.26
						c6.94,4.44,10.13,13.07,10.51,20.99c0.46,9.61-3.52,16.65-9.84,23.59c-1.86,2.05-3.85,4.04-6.29,5.35
						c-2.94,1.58-5.27,0.33-8.04,0.99c-2.33,0.57-3.15,3.02-5.89,2.14c-3.85-1.24-7.89-6.06-12.67-5.35
						c-4.77,0.71-15.78-3.58-15.81-3.59c-14.15-5.52-4.59-32.89-1.88-42.61C636.92,1272.18,649.92,1266.74,658.67,1270.04z"/>
					<path class="st8" d="M645.89,1332.25l-3.67,10.02l-1.98,5.6c0,0-0.14,10.03,2.2,12.63c4.02,4.47,20.58-12.1,20.58-12.1
						l5.24-31.54L645.89,1332.25z"/>
					<path class="st12" d="M666.55,1327.09c-6.3,9.76-17.14,14.22-24.38,15.28l3.71-10.12l22.37-15.38L666.55,1327.09z"/>
					<path class="st8" d="M663.96,1284.48c-8.43-5.16-19.49-1.24-22.96,7.85c-1.51,3.95-3.19,8.97-4.53,14.57
						c-3.23,13.46,0.86,28.16,7,29.52c6.14,1.36,25.03-3.65,29.88-22.7C676.34,1301.95,672.8,1289.88,663.96,1284.48z"/>
					<path class="st8" d="M668.49,1314.23c-0.66,2.98,0.78,5.83,3.22,6.37c2.44,0.54,4.95-1.44,5.61-4.42
						c0.66-2.98-0.78-5.84-3.22-6.37C671.66,1309.27,669.15,1311.25,668.49,1314.23z"/>
					<path class="st15" d="M649.53,1319.82c0,0,8.09,2.64,8.75,5.61c0.66,2.97-0.33,7.26-4.29,10.56
						c-3.96,3.3-12.43,1.26-14.75-0.55c-2.31-1.82-4.07-9.52-1.76-13.81C639.79,1317.34,649.53,1319.82,649.53,1319.82z"/>
					<path class="st8" d="M652.17,1326.03c0,0-0.05,3.31-1.16,3.91c-1.07,0.58-2.43,1.06-3.69,1.18c-2.04,0.19-3.87-0.68-4.94-2.24
						c-0.11-0.15-0.2-0.31-0.28-0.48c-0.83-1.65-0.99-4.57-0.99-4.57s3.41-0.83,5.39-0.5
						C648.49,1323.67,652.17,1326.03,652.17,1326.03z"/>
				</g>
			</g>
			<path class="st8" d="M739.64,1364.64c3.2-3.2,18.06-8.14,29.32-16.28c4.98-3.6,14.56-8.34,23.88-13.49
				c6.81,3.77,12.96,8.51,17.56,14.17c-16.86,7.75-35.16,15.54-37.94,18.32c-5.24,5.23-14.37,17.06-16.51,17.06
				c-2.14,0-18.35-4.75-20.78-7.17C732.74,1374.82,736.43,1367.84,739.64,1364.64z"/>
			<path class="st2" d="M792.84,1334.86c11.75-6.5,23.09-13.66,24.29-20.04c2.14-11.44-7.57-60.87-2.14-70.37
				c5.44-9.5,17.67-17.45,17.67-17.45c1.94,0,8.93,4.26,10.87,12.79c1.94,8.53-1.55,85.3-3.5,92.28
				c-0.91,3.28-14.2,16.32-29.13,23.18C806.31,1349.59,799.64,1338.63,792.84,1334.86z"/>
			<path class="st8" d="M671.77,1438.39l-46.86,12.28c0,0-13.78,9.93-19.97,11.91c-6.2,1.97-13.77,8.8-12.28,10.89
				c1.49,2.09,9.27-5.02,10.53-4.8c1.26,0.22-4.58,8.64-5.52,14.16c-0.95,5.52-2.84,10.88,0.32,10.45
				c3.17-0.43,5.46-12.87,5.46-12.87s4.87-9.4,5.65-8.29c0.79,1.11-3.25,7.56-3.25,7.56s-0.96,6.98-1.38,9.43
				c-0.31,1.83,1.37,7.33,2.81,5.31c0.85-1.19,0.45-5.73,1.43-8.31c2.01-5.31,5.3-9.52,5.3-9.52s-3.52,15.91-1.31,16.29
				c2.21,0.38,4.5-12.8,4.5-12.8s5.41-10.97,7.77-11.95c2.36-0.98,8.85-5.16,13.87-6.9c5.02-1.74,25.76,4,35.01,4.12
				c9.25,0.12,24.27-5.61,25.52-12.86c0.38-2.22-1-4.67-3.11-7C690.13,1438.69,680.61,1436.07,671.77,1438.39z"/>
			<path class="st16" d="M667.82,1349.32c0,0,14.18-2.52,27.01,20.56c12.83,23.09,4.53,82.58,4.53,82.58l-27.59-14.08
				L667.82,1349.32z"/>
			<path class="st8" d="M730.96,1369.25c-1.66,0-10.39,0.55-11.77-0.82c-1.37-1.37,4.52-4.87,5.11-4.28
				c0.59,0.59,3.09-0.71,3.92,0.12c0.83,0.83,3.33-0.12,4.04,0.59C732.98,1365.57,732.62,1369.25,730.96,1369.25z"/>
			<path class="st8" d="M818.74,1203.08c0,0-2.98,16.41-2.39,22.88c0.6,6.47-2.28,27.33-15.16,27.4c-12.89,0.07-4.13-21.65-2.92-28
				c1.21-6.34,3.18-30.84,3.18-30.84L818.74,1203.08z"/>
			<path class="st12" d="M800.66,1203.81c0.2-5.37,1.17-9.64,1.17-9.64l16.91,8.91c0,0-0.61,3.36-1.22,7.63
				C809.95,1212.32,803.94,1208.79,800.66,1203.81z"/>
			<path class="st8" d="M819.11,1155.42c0,0,7.26,2.59,11.21,10.48c3.95,7.9,5.26,30-10.67,38.49c-15.93,8.49-26.44-7.17-25.45-21.2
				C795.19,1169.16,799.6,1150.77,819.11,1155.42z"/>
			<path class="st8" d="M789.47,1179.28c-0.42,3.64,0.87,6.74,2.87,6.93c2.01,0.19,3.97-2.61,4.39-6.24
				c0.42-3.64-0.87-6.74-2.87-6.93C791.85,1172.85,789.88,1175.64,789.47,1179.28z"/>
			<path class="st8" d="M828.92,1185.4c-1.4,3.52-0.7,7.22,1.56,8.26c2.26,1.04,5.23-0.97,6.63-4.5c1.4-3.52,0.7-7.22-1.56-8.26
				C833.29,1179.87,830.32,1181.88,828.92,1185.4z"/>
		</g>
		<g>
			<polygon class="st10" points="1611.94,553.9 1643.04,596.57 1663.62,574.06 			"/>
			<polygon class="st2" points="1666.41,562.26 1663.62,574.06 1611.94,553.9 			"/>
			<polygon class="st2" points="1663.62,578.56 1611.94,553.9 1659.97,596.57 			"/>
			<path class="st3" d="M1695.01,629.7c-0.38-0.04-9.46-0.97-20.98-8.14c-11.56-7.2-15.88-19.75-15.88-21.77
				c0-0.77,0.62-1.39,1.39-1.39c0.76,0,1.38,0.61,1.39,1.37c0.12,1.34,3.82,12.74,14.57,19.43c10.91,6.79,19.68,7.72,19.77,7.73
				c0.77,0.07,1.33,0.76,1.25,1.52C1696.45,629.21,1695.78,629.77,1695.01,629.7z M1660.94,599.77c0,0,0,0.01,0,0.01
				C1660.94,599.78,1660.94,599.78,1660.94,599.77z"/>
			<path class="st3" d="M1751.49,642.32c-16.11-3.23-31.52-9.18-45.8-17.68c-11.77-7-21.25-17.67-33.25-23.6
				c-0.69-0.34-0.97-1.18-0.63-1.87c0.34-0.69,1.18-0.97,1.87-0.63c12.42,6.13,21.83,16.8,33.44,23.7
				c14.01,8.34,29.13,14.17,44.93,17.34c5.81,1.16,12.69,1.59,20.45,1.27c0.77-0.03,1.42,0.57,1.45,1.33
				c0.03,0.77-0.56,1.42-1.33,1.45C1765.71,643.93,1758.29,643.68,1751.49,642.32z"/>
		</g>
		<g>
			<g>
				<g>
					<path class="st8" d="M1069.44,1131.42c0,0-34.2-61.04-42.52-74.02c-8.32-12.98-30-64.54-30.77-66.57
						c-0.77-2.03,14.93-26.43,11.42-27.27c-3.5-0.84-7.38,12.86-11.12,11.23c-3.74-1.64-14.66-34.62-16.79-32.98
						c-3.99,3.06,5.89,20.46,3.76,21.56c-2.13,1.1-8.56-19.14-12.74-18.55c-4.17,0.6,7.94,18.55,6.77,20.14
						c-1.17,1.59-13.74-15.33-16.02-11.72c-1.24,1.96,11.56,14.77,9.1,15.97s-13.84-7.07-15.05-4.68
						c-1.21,2.38,10.53,5.65,14.04,12.08s9.48,9.21,11.96,21.11c2.48,11.9,6.19,54.97,18.9,76.46
						c12.71,21.49,40.66,69.05,40.66,69.05L1069.44,1131.42z"/>
					<g>
						<path class="st8" d="M1221.02,1425.98c0,0-2.78-3.47-3.62-4.7c-0.98-1.44-3.58-5.97-3.58-5.97s-8.33-16.21-7.08-16.73
							c1.25-0.52,4.23,1.46,5.1,2.29c0.86,0.82,1.95,1.7,2.82,2.52c0.86,0.82,2.19,0.85,3.29-0.15c1.09-1-1.64-5.02-2.87-6.22
							c-3.81-3.74-16.02-11.69-17.27-12.59c-1.49-1.06-10.75-31.85-14.77-42.14c0,0,0,0,0,0c-6.07-17.05-11.45-34.87-12.08-36.68
							l-3.82-77.4l-28.91-9.64c0,0,3.03,85.96,3.68,90.24c0.3,2.04,17.43,40.46,17.44,40.45c9.62,18.39,18.15,34.57,19.7,37.72
							c0,0,2.1,10.68,3.04,17.56c0.93,6.88,4.56,12.83,5.12,14.73c0.08,0.28,1.65,6.9,6.43,13.75c4.11,5.91,2.92-1.62,2.92-1.62
							s-5.65-12.35-4.6-12.64c0.81-0.23,3.5,6.71,7.98,13.29c1.15,1.69,2.3,3.36,3.36,4.89c2.79,4,6.05,3.39,3.8-1.27
							c-0.79-1.65-2.18-4.35-3.44-6.13c-1.36-1.92-1.99-4.14-2.89-5.94c-1.78-3.57-3.13-6.14-2.94-6.14
							c0.24,0.01,0.39-0.96,1.67,0.8c1.54,2.12,3.81,7.35,6.31,10.28c1.42,1.66,4.17,5.32,4.17,5.32s5.11,5.43,5.5,5.21
							c2.06-1.17-0.48-6.12-2.71-8.12c-0.76-2.01-3.76-5.78-3.76-5.78s-4.37-9-3.1-9.66c1.04-0.54,15.66,18.95,17.64,17.62
							C1225.15,1432.04,1221.02,1425.98,1221.02,1425.98z"/>
					</g>
					<path class="st15" d="M1169.31,1124.45c0.7-16.88-1.79-33.56-9.34-49.27c-6.5-13.52-22.58-21.2-37.24-21.22
						c-46.57-0.06-52.49,61.46-82.13,85.2c-9.06,7.25-19.18,13.16-27.75,20.98c-31.65,28.88-17.39,82.33,11.67,107.65
						c20.17,17.57,51.86,27.55,76.71,13.82c12.97-7.17,22.82-19.08,29.84-32.14c9.96-18.53,16.38-39.91,23.46-59.66
						C1162.06,1168.78,1168.38,1146.89,1169.31,1124.45z"/>
					<path class="st8" d="M1023.75,1667.99c0,0-3.28,22.71-8.92,30.04c-1.89,2.46-5.35,5.57-7.63,10.02
						c-3.54,6.92-1.58,17.22,1.03,22.89c1.34,2.91-0.09,2.9,2.95,3.84c9.03,2.78,18.63-1.9,22.47-10.53
						c2.15-4.82,4.03-11.25,4.41-19.35c0.96-20.62,7.39-31.1,7.39-31.1L1023.75,1667.99z"/>
					<path class="st8" d="M1122.49,1678.38c0,0,2.03,25.61,0.38,33.93c-0.88,4.46-5.78,13.63-3.53,17.82
						c2.25,4.19,4.82,5.24,4.82,5.24l58.28,0.94c3.18,0.05,1.08-1.99-1.48-3.87c-4.19-3.07-7.57-5.11-20.96-11.57
						c-0.87-0.42-4.05-2.44-5.2-3.14c-2.91-1.77-5.83-4.56-8.34-7.35c-4.19-4.65-4.55-27.2-4.55-27.2L1122.49,1678.38z"/>
					<path class="st11" d="M1168.04,1337.99c0,0,7.34,41.58,2.52,68.84c-4.82,27.26-27.95,279.92-27.95,279.92l-25.7,1.45
						c0,0-5.39-105.54-4.42-120.22c0.96-14.68,8.59-39.24,8.59-39.24l-2.56-85.21l32.44-111.95L1168.04,1337.99z"/>
					<path class="st10" d="M1092.5,1329.24c0,0-20.24,30.4-25.06,55.56c-4.82,25.16,3.54,102.49-5.73,135.46
						c-5.02,17.85-24.04,45.41-26.93,68.48c-2.89,23.07-14.23,83.48-14.23,83.48l25.69,5.08l59.71-150.88l46.84-136.38l12-70.24
						L1092.5,1329.24z"/>
					<path class="st16" d="M1108.88,1156.26c0,0-26.8-1.7-37.4,9.83c-10.6,11.53,23.52,102.76,25.45,117.44
						c1.93,14.68-9.83,53.7-9.83,53.7s62.95,12.64,80.94,0.76c0,0,1.93-105.54,0-116.03c-1.93-10.49-17.99-53.12-21.85-57.32
						C1142.34,1160.45,1108.88,1156.26,1108.88,1156.26z"/>
					<path class="st8" d="M1117.8,1120.52c0,0-0.14,0.79-0.39,2.13c-1.19,6.43-5.8,27.76-8.9,33.62
						c-3.76,7.09,12.86,29.69,28.85,26.93c4.76-0.82-4.02-20.77-3.6-22.88c0.81-4.04,1.91-9.56,3.02-15.22
						c0.63-3.19,1.27-6.43,1.88-9.47c1.71-8.64,3.11-15.71,3.11-15.71L1117.8,1120.52z"/>
					<path class="st12" d="M1117.41,1122.65c0.25-1.34,0.39-2.13,0.39-2.13l23.97-0.6c0,0-1.4,7.07-3.11,15.71
						c-0.6,3.03-1.24,6.24-1.86,9.42c-3.7-0.54-7.57-2.34-11.44-5.73c-4.23-3.69-7-8.13-8.67-12.86
						C1116.98,1124.95,1117.23,1123.65,1117.41,1122.65z"/>
					<path class="st8" d="M1133.93,1066.16c0,0-11.3-1.3-18.38,7.84c-7.08,9.14-14.71,37.4,2.88,52.77
						c17.59,15.37,34.97-2.03,37.54-20.47C1158.55,1087.85,1159.56,1065.49,1133.93,1066.16z"/>
					<path class="st8" d="M1161.18,1106.02c-2.1,4.07-5.62,6.33-7.87,5.04c-2.25-1.29-2.37-5.64-0.27-9.71
						c2.1-4.07,5.62-6.33,7.87-5.04C1163.16,1097.6,1163.28,1101.95,1161.18,1106.02z"/>
					<path class="st15" d="M1135.2,1063.14c0,0-15.09,26.87-25.89,28.12c-10.79,1.24-12.21,15.52-12.21,15.52
						s3.86-32.91,14.55-39.25C1122.33,1061.18,1135.2,1063.14,1135.2,1063.14z"/>
					<path class="st10" d="M1035.4,1719.72c-14,2.55-23.32-5.63-28.17-11.75c-3.56,6.93-5.3,17.28-2.68,22.97
						c2.31,5.02,9.04,4.87,14.35,5.07c5.61,0.21,9.95-2.9,12.73-7.78C1032.94,1725.96,1034.28,1723.12,1035.4,1719.72z"/>
					<path class="st10" d="M1154.8,1717.74c-15.41,3.95-26.81,1.26-33.18-1.3c-1.64,4.65-3.82,10.48-2.67,13.85
						c1.42,4.12,3.43,5.05,5.21,5.1c14.08,0.37,51.58,0.87,62.31,1.01c1.5,0.02,2.33-1.73,1.36-2.88
						C1185.17,1730.33,1155.94,1718.43,1154.8,1717.74z"/>
					<path class="st8" d="M1112.14,1098.01c0.88,4.77-0.89,9.15-3.94,9.78c-3.06,0.63-6.25-2.73-7.12-7.51
						c-0.88-4.77,0.89-9.15,3.94-9.78C1108.07,1089.87,1111.26,1093.24,1112.14,1098.01z"/>
					<path class="st16" d="M1059.98,1111.64c0,0,37.83,40.6,43.45,56.96c5.62,16.36-5.48,39.77-20.82,40.79
						c-15.34,1.02-49.47-72.06-49.47-72.06L1059.98,1111.64z"/>
				</g>
			</g>
		</g>
		<g>
			<path class="st2" d="M1102.94,598.38l-42.72,9.3c-10.25,2.23-20.36-4.27-22.59-14.51l-3.98-18.28
				c-2.23-10.25,4.27-20.36,14.51-22.59l42.72-9.3c10.25-2.23,20.36,4.27,22.59,14.51l3.98,18.28
				C1119.68,586.04,1113.18,596.15,1102.94,598.38z"/>
			<polygon class="st2" points="1038.02,583.23 1019.72,612.81 1047.8,600.72 			"/>
			<g>
				<path class="st0" d="M1058.69,574.98l7.12-1.74c0,0,7.49-8.76,7.23-11.21c-0.26-2.44-2.87-7.14-1.62-8.09
					c1.26-0.95,4.1-2.11,6.68,0.61c1.87,1.98,2.63,10.58,3.59,10.95c0.61,0.23,4.73-0.65,7.73-1.35c1.97-0.46,4.03,0.22,5.35,1.76
					l0,0c0.89,1.04,0.94,2.56,0.1,3.65l-1.3,1.69l1.63,1.38c1.22,1.03,1.37,2.85,0.35,4.07l-1.04,1.25l1.08,0.79
					c1.4,1.02,1.6,3.02,0.44,4.29l-0.94,1.04l0.24,0.27c0.99,1.13,0.95,2.83-0.09,3.91l-0.96,1l-18.97,4.64
					c-1.78,0.43-3.63,0.5-5.43,0.2l-6.94,0.53c-0.75,0.06-1.42-0.44-1.59-1.17l-3.81-16.66
					C1057.39,575.98,1057.89,575.17,1058.69,574.98z"/>
			</g>
		</g>
		<g>
			<path class="st3" d="M1236.68,381.81c38.27,7.13,65.75,31.96,61.37,55.47c-2.19,11.75-11.93,20.95-25.9,26.32l9.08,37.55
				l-27.67-33.03c-10.1,1.26-21.25,0.96-32.73-1.18c-38.27-7.13-65.75-31.96-61.37-55.47
				C1163.84,387.96,1198.41,374.68,1236.68,381.81z"/>
			<g>
				<path class="st4" d="M1254.21,433.47c-5.87,12.23-20.55,17.38-32.78,11.51c-12.23-5.87-17.38-20.55-11.51-32.78
					c5.87-12.23,20.55-17.38,32.78-11.51C1254.93,406.56,1260.08,421.24,1254.21,433.47z"/>
				<path class="st23" d="M1218.54,420.65c-3.14,6.54-0.39,14.39,6.15,17.53c6.54,3.14,14.38,0.39,17.52-6.15L1218.54,420.65z"/>
			</g>
		</g>
		<polygon class="st2" points="1796.15,1088.28 1787.68,1089.14 1784.79,1075.67 1772.26,1075.4 1768.45,1065.67 1763.53,1067.6 
			1768.62,1080.61 1780.5,1080.86 1783.5,1094.87 1796.24,1093.58 		"/>
		<g>
			<polygon class="st7" points="1747.35,874.43 1727.54,865.76 1723.04,879.44 1716.49,877.28 1723.36,856.4 1743.05,865.02 
				1748.07,848.84 1766.19,856.39 1773.64,840.48 1779.88,843.4 1769.64,865.3 1752.41,858.12 			"/>
		</g>
	</g>
</g>
</svg>
