<?xml version="1.0" encoding="utf-8"?>
<!-- Generator: Adobe Illustrator 25.4.1, SVG Export Plug-In . SVG Version: 6.00 Build 0)  -->
<svg version="1.1" id="Layer_1" xmlns="http://www.w3.org/2000/svg" xmlns:xlink="http://www.w3.org/1999/xlink" x="0px" y="0px"
	 viewBox="0 0 1920 1080" style="enable-background:new 0 0 1920 1080;" xml:space="preserve">
<style type="text/css">
	.st0{fill:#7772D6;}
	.st1{fill:#9DEEFF;}
	.st2{fill:#EB9372;}
	.st3{fill:#7772D4;}
	.st4{fill:#2B1711;}
	.st5{fill:#8C021F;}
	.st6{fill:#45268D;}
	.st7{fill:#F2D4B0;}
	.st8{fill:#561A1A;}
	.st9{fill:#AC3E47;}
	.st10{fill:none;stroke:#8D323C;stroke-width:0.8558;stroke-linecap:round;stroke-miterlimit:10;}
	.st11{fill:#184D9C;}
	.st12{fill:#DC0A26;}
	.st13{fill:none;stroke:#561A1A;stroke-width:0.8558;stroke-linecap:round;stroke-miterlimit:10;}
	.st14{fill:#DF735E;}
	.st15{fill:#60BBF1;}
	.st16{fill:#91BEBB;}
	.st17{fill:#488585;}
	.st18{fill:none;stroke:#000000;stroke-width:0.8558;stroke-miterlimit:10;}
	.st19{fill:#FDF1C3;}
	.st20{fill:none;stroke:#FDF1C3;stroke-width:0.8558;stroke-miterlimit:10;}
	.st21{fill:#3995D9;}
	.st22{fill:#80B0BE;}
	.st23{fill:#2E5464;}
	.st24{opacity:0.5;fill:#D9CDBD;}
	.st25{clip-path:url(#SVGID_00000010270001008486700170000006158773194307208355_);}
	.st26{fill:#FFFFFF;}
	.st27{fill:#78A23E;}
	.st28{fill:#94CB55;}
	.st29{fill:#43CBC8;}
	.st30{fill:#2BA29E;}
	.st31{fill:#CDCDCD;}
	.st32{fill:#D36345;}
	.st33{fill:#FFAD60;}
	.st34{fill:#6185AC;}
	.st35{fill:#7EA7D5;}
	.st36{fill:#ACBB3A;}
	.st37{fill:#C3FFB8;}
	.st38{fill:none;stroke:#184D9C;stroke-width:2;stroke-miterlimit:10;}
	.st39{fill:#D4623E;}
	.st40{fill:#054D61;}
	.st41{fill:#186A86;}
	.st42{fill:#B69475;}
	.st43{fill:#B04D33;}
	.st44{fill:#7A5349;}
	.st45{fill:#C79D5A;}
	.st46{fill:#FFCE52;}
	.st47{fill:#913522;}
</style>
<path class="st0" d="M0,323.13c12.45-23.66,65.68-46.07,113-25.84c73.64,31.49,132.15,121.32,243.43,113.93
	c159.38-10.58,138.32-172.43,211.06-225.38C659.01,119.23,692.32,61.33,696.68,0C613.56,0,0,0,0,0L0,323.13z"/>
<path class="st1" d="M1466.35,1080c6.86-151.63,300.14-327.6,453.65-334.46c0,79.87,0,334.46,0,334.46H1466.35z"/>
<g>
	<path class="st2" d="M1645.32,899.27v5.2c0,0,6.32,2.59,13.37,2.91c7.05,0.32,12.39-1.13,12.39-1.13l2.69-10.4
		C1673.76,895.85,1652.58,894.39,1645.32,899.27z"/>
	<path class="st2" d="M1719.74,894.25v10.22c0,0-6.32,2.59-13.37,2.91c-7.05,0.32-12.39-1.13-12.39-1.13l-1.69-16.07
		C1692.3,890.18,1712.49,889.38,1719.74,894.25z"/>
	<path class="st3" d="M1631.45,894.44c0,0,11,6.87,26.12,5.22c15.12-1.65,25.12-7.97,25.12-7.97l3.24-16.77l-4.41-2.2l-44.05,5.23
		c0,0-5.2,1.92-6.03,3.02V894.44z"/>
	<path class="st3" d="M1690,868.04l-2.73,1.38l1.37,20.9c0,0,12.38,3.57,21.73,5.5s23.81-3.02,23.81-3.02l5.86-20.08l-4.12-2.16
		L1690,868.04z"/>
	<path class="st4" d="M1685.37,409.39c-4.89,0.45-22.46,2.69-28.22,15.8c-5.76,13.11-0.84,18.59-8.14,27.01
		c-7.3,8.42-9.41,12.21-9.41,17.83c0,5.62,4.07,10.2,1.26,17.17s-7.16,17.78-4.91,25.08c2.25,7.3,4.63,10.67,4.63,10.67
		s24.15,7.44,53.06,6.74s46.75-11.93,46.75-11.93s9.41-13.06,3.51-25.55c-5.9-12.49-13.2-21.2-13.06-28.22s1.26-15.44-1.54-21.34
		c-2.81-5.9-9.32-10.39-11.26-18.53c-1.94-8.14-7.37-21.62-28.66-15.44C1689.4,408.69,1689.66,409,1685.37,409.39z"/>
	<path class="st5" d="M1627.44,723.89c0,0,17.72,7.72,64.09,6.05c46.38-1.68,52.08-12.14,52.65-14.69
		c0.57-2.55-7.19-9.72-19.09-13.69c-11.9-3.97-27.46-7.32-29.14-7.32s-15.1-0.91-31.73,3.74s-28.38,13.04-31.27,16.4
		S1626.96,720.74,1627.44,723.89z"/>
	<path class="st6" d="M1639.13,710c0,0-2.19,25.53-3.01,37.08s0.81,24.47,1.51,32.45s0.18,36.57-0.11,55.82
		c-0.29,19.25,0,44.55,0,44.55s5.21,2.75,11.53,2.75c6.32,0,11.82-3.3,18.7-2.75c6.87,0.55,13.73-6.32,13.73-6.32
		s1.32-74.24,1.22-93.49c-0.1-19.25-0.1-47.7,1.27-58.36c1.37-10.66,1.96-19.34,1.96-19.34l4.15-0.34c0,0,2.12,19.19,2.68,35.69
		c0.56,16.5,0.27,45.92,0,52.25c-0.27,6.32-2.34,29.97-2.68,40.42c-0.34,10.45,0.86,28.32,0.26,31.9c-0.6,3.57-0.26,6.6-0.26,6.6
		s11.49,9.07,21.66,9.62c10.17,0.55,23.65-6.32,23.65-6.32s1.7-12.1,3.46-24.75c1.76-12.65-0.11-34.37,0-46.2
		c0.11-11.82,1.9-30.8,2.38-40.42c0.48-9.62-0.94-29.97-1.19-34.92c-0.25-4.95-1.19-16.2-1.19-16.2s-12.54-21.24-31.79-32.36
		s-47.41,1.46-54.78,6.99c-7.37,5.54-12.32,11.11-12.32,11.11L1639.13,710z"/>
	<path class="st5" d="M1678.88,506.85c-3.65,0.65-17.33,2.83-24.29,6.3s-9.78,6.73-13.69,19.55c-3.91,12.82,2.17,51.05-1.09,65.83
		c-3.26,14.77-3.48,41.93-6.52,67.56c-3.04,25.64-4.34,41.28-4.34,41.28s19.77-14.99,46.27-20.64c0,0,1.52-11.08,9.99-11.08
		s10.65,9.12,10.65,9.12s15.86,8.91,28.24,13.47c12.38,4.56,18.25,3.69,18.25,3.69s14.12,2.61,19.99,1.96
		c5.87-0.65,13.25-4.35,13.25-4.35s-5.87-28.24-7.17-35.19c-1.3-6.95-0.87-8.47-0.87-8.47s5.43-7.17,4.56-13.9
		c-0.87-6.73-2.61-8.04-3.48-13.04c-0.87-5-0.65-4.78-1.3-9.56c-0.65-4.78-3.26-9.78-4.34-15.86c-1.09-6.08-1.96-17.77-5.65-35.07
		c-3.69-17.29-4.4-26.39-13.28-40.52c-8.88-14.14-17.26-20.53-34.79-23.85L1678.88,506.85z"/>
	<path class="st7" d="M1766.79,747.72c0,0-0.13,3.93,0,7.01s-0.13,3.01,0.51,6.7c0.64,3.69-0.63,5.48-0.57,11.9
		c0.06,6.41,2.07,32.39,2.58,34.57c0.51,2.18,3.33,1.92,4.36,0.9c1.03-1.03-2.36-29.69-2.37-35.72c-0.01-6.03,0.12-8.72-0.52-13.85
		c-0.64-5.13,0.28-9.88,0.52-12.57c0.25-2.69,0.3-4.58,0.3-4.58S1767.69,743.66,1766.79,747.72z"/>
	<g>
		<path class="st2" d="M1749.6,705.51c0,0-1.28,0.74-1.41,3.56s-2.02,9.11-3.32,12.96s-3.19,7.32,0,8.15s7.29-8.92,9.41-10.85
			c2.12-1.92,4.81-1.54,4.49,2.57c-0.32,4.11-2,13.34-4.49,17.45c-2.5,4.11-5.32,7.18-5.32,10.39s6.62-1.92,6.62-1.92
			s-2.36,6.8,0,5.77c2.36-1.03,4.93-4.11,4.93-4.11s0.29,2.05,3.8,0.13c3.51-1.92,10.36-9.88,12-18.09
			c1.64-8.21-2.44-27.67-2.44-27.67S1756.78,702.21,1749.6,705.51z"/>
		<g>
			<path class="st8" d="M1766.79,723.89c-0.21,2.25-0.65,4.47-1.19,6.67c-0.52,2.2-1.22,4.36-2.05,6.47
				c-0.41,1.06-0.9,2.08-1.39,3.11c-0.56,0.99-1.07,2.01-1.75,2.94c-1.29,1.87-2.83,3.64-4.84,4.73c0.42-0.38,0.85-0.75,1.27-1.11
				c0.4-0.39,0.74-0.84,1.11-1.25c0.39-0.39,0.67-0.89,1-1.33c0.34-0.44,0.63-0.92,0.9-1.4c1.14-1.9,2.08-3.93,2.89-6.01
				c0.84-2.07,1.55-4.19,2.22-6.33C1765.63,728.24,1766.23,726.07,1766.79,723.89z"/>
		</g>
		<g>
			<path class="st8" d="M1771.3,730.74c-0.71,3.59-2.11,7.03-3.87,10.25c-0.89,1.61-1.92,3.14-3.05,4.58
				c-1.13,1.45-2.45,2.74-3.86,3.9c1.18-1.4,2.31-2.81,3.32-4.3c1.01-1.49,1.99-3.01,2.84-4.6c0.88-1.57,1.69-3.19,2.46-4.83
				C1769.89,734.1,1770.63,732.44,1771.3,730.74z"/>
		</g>
	</g>
	<g>
		<path class="st9" d="M1645.32,904.47c0,0,0.35,13.43,0.67,17.31s0.65,14.89,6.8,15.86s13.92-1.78,15.37-10.52
			c1.46-8.74,2.91-20.87,2.91-20.87s-7.03,1.78-12.39,1.13C1653.34,906.74,1645.32,904.47,1645.32,904.47z"/>
		<line class="st10" x1="1649.93" y1="905.67" x2="1650.77" y2="936.85"/>
		<line class="st10" x1="1656" y1="906.97" x2="1655" y2="937.82"/>
		<line class="st10" x1="1661.92" y1="907.52" x2="1658.69" y2="937.42"/>
		<line class="st10" x1="1666.72" y1="907.08" x2="1663.03" y2="934.8"/>
	</g>
	<g>
		<path class="st11" d="M1612.98,942.01c0,0-15.37,5.02-17.64,15.53c0,0-1.13,3.88-1.29,5.99c-0.16,2.1,5.34,1.62,9.47,1.94
			c4.13,0.32,58.66-3.07,62.22-3.4s3.24-8.09,4.05-14.89s-0.32-8.09,1.29-12.62s1.97-10.51-2.57-9.54c-4.55,0.97-2.77,2.1-7.95,2.59
			c-5.18,0.49-8.9-2.69-8.9-2.69s-5.83-6.53-8.74-7.5c-2.91-0.97-4.21,3.07-5.83,6.96c-1.62,3.88-4.53,5.99-7.12,8.41
			C1627.38,935.22,1616.62,940.53,1612.98,942.01z"/>
		<path class="st11" d="M1612.98,942.01c0,0,2.88,0.65,6.95,4.23c4.08,3.58,4.57,13.71,4.57,13.71"/>
		<path class="st11" d="M1594.71,959.95c0,0,17.69,1.73,25.97,0.86c8.27-0.86,32.85-3.09,39.52-3.83s8.82-1.61,8.82-1.61"/>
		<path class="st11" d="M1623.37,952.86c0,0,8.22-7.61,9.74-9.58c1.52-1.98,9.67-8.15,13-11.61s4.65-7.72,4.65-7.72"/>
		<path class="st11" d="M1634.22,928.77c0,0,4.51,1.63,8.51,6.03"/>
		<path class="st11" d="M1628.69,933.79c0,0,4.64,1.89,8.38,5.81"/>
		<path class="st11" d="M1621.73,937.83c0,0,5.52,2.93,10.14,6.84"/>
	</g>
	<g>
		<path class="st12" d="M1682.7,497.41l23.19-2.12c0,0,1.57,6.7,3.39,8.81c0,0-6.36,2.58-14.36,3.56c-8,0.98-16.04-0.8-16.04-0.8
			L1682.7,497.41z"/>
		<line class="st12" x1="1684.67" y1="497.23" x2="1683.26" y2="507.55"/>
		<line class="st12" x1="1688.74" y1="496.85" x2="1688.74" y2="507.95"/>
		<line class="st12" x1="1694.08" y1="496.37" x2="1694.92" y2="507.66"/>
		<line class="st12" x1="1699.58" y1="495.86" x2="1701.16" y2="506.54"/>
		<line class="st12" x1="1703.13" y1="495.54" x2="1705.7" y2="505.32"/>
	</g>
	<path class="st2" d="M1681.3,483.88l2.67,14.09c0,0,5.76,1.4,10.95,0.7c5.19-0.7,9.27-3.23,9.27-3.23v-14.42L1681.3,483.88z"/>
	<path class="st2" d="M1667.9,438.58c0,0-0.51,12.57,1.8,25.14c2.31,12.57,11.55,24.89,23.09,23.35
		c11.55-1.54,19.5-13.09,17.96-31.56s-1.54-18.47-1.54-18.47s-3.96-21.81-19.81-22.07C1673.55,414.72,1667.72,427.51,1667.9,438.58z
		"/>
	<path class="st2" d="M1668.02,448.55c0,0-7.36,1.13-6.65,7.86s8.53,8.32,8.53,8.32s-1.09-6.45-1.33-9
		C1668.33,453.19,1668.02,448.55,1668.02,448.55z"/>
	<path class="st13" d="M1689.78,450.2c0,0,0.19,5.05,0.65,7.3c0.47,2.25,1.73,4.07,0.89,5.19c-0.84,1.12-1.54,1.12-1.54,1.12"/>
	<path class="st4" d="M1688.74,417.11c0,0-0.84,15.44-8.14,22.18c-7.3,6.74-12.58,9.26-12.58,9.26s-4.69-0.7-4.83-12.63
		c-0.14-11.93,7.44-19.79,14.46-21.76c7.02-1.97,11.09-1.54,11.09-1.54V417.11z"/>
	<path class="st2" d="M1708.6,445.47c0,0,8.07,0.22,8.48,6.99c0.41,6.76-7.06,9.6-7.06,9.6s0.02-6.54-0.16-9.09
		C1709.68,450.41,1708.6,445.47,1708.6,445.47z"/>
	<path class="st4" d="M1686.87,416.01c0,0,2.22,15.3,10.09,21.36c7.87,6.06,12.77,8.22,12.77,8.22s5.2-1.23,4.27-13.13
		s-9.18-19.05-16.35-20.38c-7.17-1.33-11.18-0.55-11.18-0.55L1686.87,416.01z"/>
	<path class="st13" d="M1694.92,438.59c0,0-6.66,4.85-8.45-27.05"/>
	<g>
		<path class="st9" d="M1667.85,461.74c-0.49,2.05-0.86,4.1-1.13,6.13c-0.09,1.02-0.23,2.03-0.19,3.04c0.02,1,0.07,2,0.36,2.9
			c0.46,1.66,2.01,3.99,3.12,2.45c0.58-0.66,0.93-1.66,1.17-2.63c0.26-0.99,0.35-2.02,0.47-3.08c0.19,1.04,0.24,2.1,0.19,3.18
			c-0.11,1.07-0.29,2.18-0.99,3.18c-0.31,0.5-0.93,1.01-1.7,1.04c-0.76,0.02-1.42-0.37-1.83-0.79c-0.87-0.86-1.38-1.86-1.73-2.97
			c-0.6-2.22-0.34-4.42,0.09-6.5C1666.14,465.61,1666.87,463.61,1667.85,461.74z"/>
	</g>
	<circle class="st14" cx="1677.36" cy="464.91" r="5.69"/>
	<path class="st13" d="M1684.67,469.56c0,0,2.95,2.58,6.6,2.02c3.65-0.56,6.18-3.15,6.18-3.15"/>
	<ellipse class="st8" cx="1680.6" cy="452.7" rx="1.72" ry="2.32"/>
	<g>
		<path class="st8" d="M1678.06,445.21c0.2-0.31,0.44-0.54,0.72-0.74c0.27-0.21,0.58-0.38,0.92-0.49c0.34-0.12,0.71-0.17,1.08-0.16
			c0.37,0.03,0.75,0.17,1.03,0.4c0.12,0.1,0.14,0.28,0.04,0.41c-0.05,0.06-0.11,0.09-0.17,0.1l-0.04,0.01
			c-0.6,0.11-1.03,0.22-1.55,0.38c-0.5,0.17-1.03,0.4-1.58,0.61l-0.04,0.01c-0.18,0.07-0.38-0.03-0.45-0.21
			C1677.98,445.42,1678,445.3,1678.06,445.21z"/>
	</g>
	<g>
		<path class="st9" d="M1713.59,456.64c1.09,1.67,1.92,3.48,2.57,5.37c0.64,1.89,1.1,3.88,1.06,5.99c-0.07,1.05-0.23,2.16-0.86,3.17
			c-0.31,0.48-0.76,0.97-1.22,1.24c-0.44,0.32-0.96,0.6-1.57,0.7c-0.59,0.16-1.33-0.03-1.81-0.38c-0.52-0.36-0.78-0.86-1.03-1.33
			c-0.42-0.97-0.59-1.97-0.58-2.97c0.33,0.93,0.72,1.84,1.25,2.58c0.27,0.35,0.57,0.7,0.91,0.84c0.34,0.13,0.64,0.21,0.99,0.06
			c0.34-0.11,0.69-0.34,1.02-0.61c0.37-0.25,0.56-0.54,0.76-0.89c0.39-0.68,0.54-1.57,0.57-2.47c0.07-1.82-0.28-3.72-0.67-5.6
			C1714.57,460.45,1714.08,458.57,1713.59,456.64z"/>
	</g>
	<ellipse class="st8" cx="1697.44" cy="450.82" rx="1.72" ry="2.32"/>
	<g>
		<path class="st8" d="M1694.72,442.14c0.3-0.23,0.61-0.36,0.94-0.46c0.33-0.1,0.69-0.14,1.05-0.14c0.36,0.02,0.73,0.09,1.08,0.25
			c0.35,0.16,0.67,0.4,0.89,0.72c0.14,0.2,0.09,0.48-0.12,0.63c-0.11,0.08-0.25,0.1-0.37,0.06l-0.08-0.02
			c-0.27-0.07-0.49-0.15-0.73-0.19c-0.24-0.03-0.48-0.08-0.74-0.1c-0.26-0.02-0.53-0.03-0.81-0.05c-0.28-0.02-0.58-0.02-0.88-0.06
			l-0.05-0.01c-0.19-0.03-0.33-0.21-0.31-0.4C1694.6,442.28,1694.65,442.2,1694.72,442.14z"/>
	</g>
	<circle class="st14" cx="1704.04" cy="461.74" r="5.69"/>
	<path class="st4" d="M1681.56,483.88c0,0,4.21,6.93,3.37,12.4c-0.84,5.47-6.6,7.86-6.39,14.18c0.21,6.32,3.86,11.09,6.39,14.88
		s5.19,19.65,0.84,25.55c-4.35,5.9-11.23,8-18.25,8.56s-10.53,12.49-21.34,8s-7.02-15.86-2.67-24.29c4.35-8.42-0.3-15.71-2.67-20.22
		c-2.36-4.5-7.86-15.58,3.79-23.3c11.65-7.72,21,0.84,25.52-5.47S1672.29,481.87,1681.56,483.88z"/>
	<path class="st4" d="M1708.3,478.33c0,0-5,9.11-4.16,17.81c0.84,8.7,11.93,15.72,13.62,20.07s-3.47,12.07-4.76,18.67
		c-1.28,6.6-2.4,15.02,7.84,19.23c0,0,3.79,6.88,12.49,5.05c8.7-1.82,11.75-3.79,14.58-8.42s5.31-13.2,0-20.22
		c-5.31-7.02-5.45-12.77-5.45-12.77s-2.81-12.49-13.34-19.37s-12.63-7.44-12.21-13.2S1710.28,475.73,1708.3,478.33z"/>
	<path class="st12" d="M1628.96,707.38l-1.52,16.51c0,0,6.73-9.56,17.38-15.42s24.55-9.12,29.76-10.21c5.21-1.09,10.06-3,7.32-5.17
		c-2.8-2.22-6.67-6.34-6.67-6.34s-11.73,0.22-25.42,7.17C1636.13,700.86,1628.96,707.38,1628.96,707.38z"/>
	<path class="st5" d="M1678.11,689.66c0,0-1.4-1.59,1.4-3.39c2.8-1.8,11.89-1.9,14.09,0c2.2,1.9,1,3.82,1,3.82s2.17,0.25,2.03-4.88
		c-0.13-5.14-1.03-9.83-1.03-9.83s-4.2-3.3-11-2.2c-6.8,1.1-8.8,4.1-8.8,4.1s-0.64,7.05-0.57,9.47
		C1675.3,689.16,1678.11,689.66,1678.11,689.66z"/>
	<path class="st12" d="M1742.47,700.96c0,0-5.5,0.3-7.5-0.2s-9.6-2.9-11.99-5s-11.79-5.7-15.39-7.8s-10.98-3.3-10.98-3.3
		s0.78,3.95-2.01,5.42c-2.8,1.48-2.3,6.57,0.8,7.07c3.1,0.5,6.9,0.14,17.99,3.82s15.99,3.98,20.79,7.47c4.8,3.5,7.6,5.6,8.8,6.4
		c1.2,0.8,2.6,0.8,1.5-3.4C1743.37,707.25,1742.47,700.96,1742.47,700.96z"/>
	<path class="st15" d="M1694.92,586.38c0,0,0.05,36.88,0,40.33c0,0-1.99,4.26-18.88,7.27c-16.89,3.02-25.53,2.23-25.53,2.23
		l-9.08-41.62c0,0,10.44-4.02,26.75-6.89C1684.5,584.83,1694.92,586.38,1694.92,586.38z"/>
	<path class="st15" d="M1641.43,594.59c0,0,16.32-5.52,26.75-6.89c10.43-1.37,26.73-1.32,26.73-1.32l0.02,8.21
		c0,0-14.97,2.95-29.33,5.81c-14.36,2.86-22.29,2.83-22.29,2.83L1641.43,594.59z"/>
	<path class="st16" d="M1636.45,498.87c2.89-1.65,22.73-0.44,31,6.46c8.27,6.89,14.18,27.32,12.1,46.63c0,0-10.53-3.35-20.59-9.1
		s-17.08-14.84-20.91-23.3C1634.23,511.1,1636.45,498.87,1636.45,498.87z"/>
	<g>
		<path class="st17" d="M1636.45,498.87c5.89,4.66,11.63,9.51,17.19,14.56c2.79,2.52,5.51,5.12,8.16,7.8
			c2.67,2.66,5.22,5.45,7.6,8.41c0.57,0.77,1.19,1.48,1.72,2.29c0.52,0.8,1.09,1.6,1.57,2.42c0.96,1.63,1.9,3.26,2.8,4.93
			c1.79,3.33,3.5,6.75,4.6,10.49c0.27,0.93,0.49,1.89,0.66,2.84c0.16,0.98,0.35,1.81,0.39,2.96c0,2.03-0.26,3.89-0.53,5.78
			c-0.58,3.75-1.33,7.44-2.15,11.13l-2.22-0.51c0.81-3.63,1.55-7.31,2.12-10.97c0.28-1.82,0.55-3.68,0.57-5.41
			c0-0.73-0.18-1.74-0.32-2.61c-0.15-0.89-0.34-1.77-0.59-2.64c-0.99-3.48-2.55-6.86-4.25-10.17c-0.84-1.66-1.75-3.29-2.66-4.92
			c-0.94-1.59-1.92-3.11-3.06-4.58c-2.23-2.95-4.68-5.78-7.24-8.5c-2.54-2.74-5.19-5.39-7.86-8.01c-2.67-2.63-5.4-5.19-8.15-7.74
			C1642.05,503.86,1639.27,501.34,1636.45,498.87z"/>
	</g>
	<g>
		<path class="st17" d="M1652.29,499.29c0.38,1.17,0.66,2.36,0.91,3.56c0.24,1.2,0.45,2.41,0.59,3.63c0.16,1.22,0.27,2.44,0.33,3.67
			c0.09,1.23,0.07,2.46,0.05,3.69l-0.01,0.74l-0.77,0.07c-1.41,0.13-2.82,0.18-4.23,0.25c-1.41,0.05-2.83,0.07-4.24,0.06
			c-2.83-0.03-5.67-0.18-8.47-0.68c2.83-0.26,5.62-0.5,8.42-0.71c2.8-0.22,5.6-0.42,8.39-0.6l-0.78,0.81
			C1652.67,509,1652.46,504.18,1652.29,499.29z"/>
	</g>
	<g>
		<path class="st17" d="M1669.98,507.95c0.28,1.81,0.38,3.65,0.46,5.48c0.05,1.83,0.06,3.67-0.02,5.5
			c-0.13,3.67-0.54,7.33-1.16,10.95l-0.09,0.51l-0.48,0.15c-3.44,1.09-6.89,1.91-10.42,2.48c-3.51,0.58-7.08,0.89-10.63,0.83
			c1.75-0.34,3.49-0.62,5.22-1c1.73-0.34,3.45-0.73,5.16-1.13c1.71-0.42,3.42-0.83,5.11-1.3c1.69-0.46,3.39-0.94,5.02-1.49
			l-0.57,0.66c0.3-1.78,0.6-3.57,0.83-5.36c0.28-1.79,0.45-3.59,0.67-5.39C1669.47,515.23,1669.78,511.61,1669.98,507.95z"/>
	</g>
	<g>
		<path class="st17" d="M1678.28,527.76c0.13,1.21,0.16,2.42,0.15,3.64c-0.01,1.21-0.06,2.43-0.19,3.64
			c-0.11,1.22-0.28,2.43-0.56,3.64c-0.26,1.21-0.61,2.42-1.2,3.6l-0.15,0.31l-0.35,0.11c-1.42,0.43-2.81,0.7-4.24,0.94
			c-1.42,0.23-2.86,0.35-4.3,0.41c-1.44,0.05-2.88-0.03-4.31-0.19c-1.43-0.18-2.84-0.51-4.18-0.99c1.43,0.08,2.82,0.16,4.22,0.1
			c1.4-0.05,2.78-0.14,4.16-0.32c1.38-0.16,2.75-0.38,4.12-0.64c1.36-0.25,2.73-0.58,4.03-0.92l-0.5,0.42
			c0.51-0.96,0.85-2.08,1.18-3.2c0.32-1.12,0.57-2.28,0.82-3.45c0.23-1.17,0.46-2.34,0.66-3.53L1678.28,527.76z"/>
	</g>
	<path class="st18" d="M1653.36,576.39c0,0,0.89-21.72-4.61-27.47"/>
	<path class="st12" d="M1678.28,647.51l-3.05,39.23c0,0-0.45-0.1-2.87,0.23c-2.42,0.33,3.45-39.39,4.33-43.77
		C1677.57,638.83,1678.72,641.86,1678.28,647.51z"/>
	<path class="st12" d="M1694.94,631.72c-0.05,1.35,0.66,43.65,0.66,43.65l1.02,9.3c0,0,6.74,1.32,8.86,2.31
		c0,0-7.13-42.22-7.89-48.68C1696.82,631.83,1695.04,628.69,1694.94,631.72z"/>
	<g>
		<path class="st19" d="M1724.24,568.47l4.04,31.06l2.05,15.52c0.36,2.58,0.71,5.19,1.2,7.7c0.65,2.53,1.01,5.31,0.1,7.97l0.02-0.26
			l1.78,7.25c0.29,1.21,0.6,2.41,0.88,3.64c0.27,1.26,0.45,2.47,0.66,3.71c0.79,4.92,1.54,9.85,2.23,14.79l2.08,14.8l1.95,14.82
			l-4.67-29.53l-2.35-14.75c-0.21-1.22-0.41-2.47-0.67-3.65c-0.28-1.2-0.6-2.41-0.9-3.62l-1.82-7.26l-0.03-0.12l0.05-0.15
			c0.39-1.12,0.52-2.43,0.48-3.68c-0.02-1.28-0.31-2.49-0.59-3.78c-0.49-2.61-0.82-5.18-1.17-7.78c-0.68-5.18-1.35-10.36-1.94-15.55
			l-1.76-15.56L1724.24,568.47z"/>
	</g>
	<line class="st20" x1="1641.43" y1="698.55" x2="1641.43" y2="710.53"/>
	<line class="st20" x1="1652.29" y1="692.71" x2="1652.29" y2="704.93"/>
	<line class="st20" x1="1662.78" y1="688.88" x2="1662.33" y2="701.39"/>
	<line class="st20" x1="1682.69" y1="673.56" x2="1681.47" y2="685.48"/>
	<line class="st20" x1="1690.08" y1="673.18" x2="1690.6" y2="685.17"/>
	<line class="st20" x1="1704.25" y1="686.51" x2="1705.47" y2="698.69"/>
	<line class="st20" x1="1714.11" y1="691.12" x2="1715.4" y2="701.63"/>
	<line class="st20" x1="1723.82" y1="696.37" x2="1724.24" y2="704.23"/>
	<line class="st20" x1="1732.29" y1="699.96" x2="1734.18" y2="708.45"/>
	<line class="st20" x1="1738.85" y1="701.04" x2="1741.23" y2="713.62"/>
	<g>
		<path class="st5" d="M1741.24,689.46l1.76,14.76c0,0,8.84,1.94,15.9,2.55c7.06,0.6,13.09-2.15,14.98-2.93
			c1.89-0.78,2.58-0.34,2.41-1.46s-2.64-12.3-2.64-12.3s-3.13,1.45-9.07,1.96c-5.94,0.52-11.88-0.09-15.24-0.95
			S1741.1,688.28,1741.24,689.46z"/>
		<g>
			<line class="st5" x1="1745.89" y1="690.09" x2="1747.63" y2="705.15"/>
			<path class="st5" d="M1754.28,691.94c0,0,1.86,8.9,2.6,14.92"/>
			<path class="st5" d="M1763.2,692.15c0,0,1.45,9.39,2.21,14.32"/>
			<path class="st5" d="M1769.61,691.3c0,0,1.86,8.93,1.67,13.58"/>
		</g>
	</g>
	<g>
		<path class="st9" d="M1719.74,904.47c0,0-0.35,13.43-0.67,17.31s-0.65,14.89-6.8,15.86c-6.15,0.97-13.92-1.78-15.37-10.52
			s-2.91-20.87-2.91-20.87s7.03,1.78,12.39,1.13C1711.73,906.74,1719.74,904.47,1719.74,904.47z"/>
		<line class="st10" x1="1715.14" y1="905.67" x2="1714.3" y2="936.85"/>
		<line class="st10" x1="1709.07" y1="906.97" x2="1710.06" y2="937.82"/>
		<line class="st10" x1="1703.15" y1="907.52" x2="1706.38" y2="937.42"/>
		<line class="st10" x1="1698.35" y1="907.08" x2="1702.03" y2="934.8"/>
	</g>
	<g>
		<path class="st11" d="M1752.08,942.01c0,0,15.37,5.02,17.64,15.53c0,0,1.13,3.88,1.29,5.99c0.16,2.1-5.34,1.62-9.47,1.94
			c-4.13,0.32-58.66-3.07-62.22-3.4s-3.24-8.09-4.05-14.89s0.32-8.09-1.29-12.62c-1.62-4.53-1.97-10.51,2.57-9.54
			s2.77,2.1,7.95,2.59c5.18,0.49,8.9-2.69,8.9-2.69s5.83-6.53,8.74-7.5c2.91-0.97,4.21,3.07,5.83,6.96s4.53,5.99,7.12,8.41
			C1737.68,935.22,1748.45,940.53,1752.08,942.01z"/>
		<path class="st11" d="M1752.08,942.01c0,0-2.88,0.65-6.95,4.23c-4.08,3.58-4.57,13.71-4.57,13.71"/>
		<path class="st11" d="M1770.35,959.95c0,0-17.69,1.73-25.97,0.86s-32.85-3.09-39.52-3.83s-8.82-1.61-8.82-1.61"/>
		<path class="st11" d="M1741.7,952.86c0,0-8.22-7.61-9.74-9.58s-9.67-8.15-13-11.61s-4.65-7.72-4.65-7.72"/>
		<path class="st11" d="M1730.84,928.77c0,0-4.51,1.63-8.51,6.03"/>
		<path class="st11" d="M1736.38,933.79c0,0-4.64,1.89-8.38,5.81"/>
		<path class="st11" d="M1743.34,937.83c0,0-5.52,2.93-10.14,6.84"/>
	</g>
	<path class="st7" d="M1756.88,732.48c0,0-8.47,0.19-10.12,8.4c-1.65,8.21,0.66,16.81,2.33,24.63s5.74,40.98,5.86,43.42
		s3.38,3.46,5.34,2.69c1.96-0.77,0.86-2.18,0-6.8c-0.86-4.62-4.25-26.74-4.71-31.75c-0.46-5-2.3-11.11-2.9-17.06
		s-0.41-13.01,1.12-15.91C1755.33,737.21,1756.88,732.48,1756.88,732.48z"/>
	<path class="st5" d="M1651.48,514.52c0,0-12.96,5.42-22.52,22.37c-9.56,16.95-21.07,26.72-25.64,40.63s-0.43,23.9,3.69,33.46
		c4.13,9.56,16.4,27.37,19.39,31.94s6.9,5.65,15.59,2.17c8.69-3.48,13.69-6.3,18.03-7.17c4.35-0.87,2.16-5,2.49-8.26
		c0.33-3.26-4.23-13.84-2.93-24.3c1.3-10.46,1.73-11.76,1.73-11.76s-4.77-1.96-11.07-0.43s-6.3-1.09-3.48-5.21
		c2.82-4.13,6.3-12.71,4.34-28.84c-1.96-16.13-5.21-31.34-3.26-36.55C1649.82,517.34,1651.48,514.52,1651.48,514.52z"/>
	<g>
		<path class="st2" d="M1669.77,600.16c0,0,0.84,1.6,4.83,0s7.5-2.56,9.26-1.76c1.76,0.8-1.44,4.63-3.99,6.06
			c-2.55,1.44-4.48,2.87-2.8,4.95s3.71,4.63,10.76,5.11s10.4,0.11,12.31,1.17c1.92,1.06,0.32,3.29-1.12,4.09
			c-1.44,0.8-1.44,0.8-1.44,0.8s0.81,1.92-0.95,3.51s-4.16,2.71-4.16,2.71s1.82,1.92-1.88,4.15c-3.7,2.23-18.45-1.11-18.45-1.11
			s-4.89-3.04-6.16-12.14C1664.71,608.61,1669.77,600.16,1669.77,600.16z"/>
		<g>
			<path class="st8" d="M1680.67,619.78c1.39,0.39,2.79,0.62,4.19,0.82c1.4,0.18,2.81,0.31,4.22,0.35c1.41,0.03,2.82,0.04,4.24-0.05
				c1.42-0.07,2.83-0.2,4.27-0.33c-0.68,0.22-1.38,0.42-2.08,0.6c-0.71,0.14-1.41,0.32-2.13,0.39c-1.43,0.23-2.88,0.26-4.33,0.24
				c-1.45-0.06-2.89-0.23-4.31-0.55C1683.32,620.94,1681.93,620.48,1680.67,619.78z"/>
		</g>
		<g>
			<path class="st8" d="M1680.67,626c1.97,0.47,3.91,0.81,5.87,0.93c0.98,0.08,1.96,0.09,2.95,0.06c0.99-0.01,1.97-0.13,2.99-0.2
				c-0.93,0.41-1.92,0.72-2.93,0.86c-1.01,0.17-2.05,0.19-3.07,0.13c-1.02-0.08-2.04-0.25-3.02-0.54
				C1682.48,626.96,1681.52,626.57,1680.67,626z"/>
		</g>
	</g>
	<g>
		<g>
			<path class="st19" d="M1626.57,589.62c1.55,0.74,3.15,1.3,4.76,1.83c1.61,0.5,3.25,0.94,4.9,1.28c1.66,0.32,3.32,0.62,5.01,0.78
				c1.68,0.19,3.38,0.29,5.09,0.39c-0.85,0.11-1.7,0.2-2.56,0.26c-0.86,0.02-1.72,0.07-2.58,0.01c-1.72-0.03-3.44-0.29-5.13-0.61
				c-1.69-0.36-3.35-0.84-4.95-1.49C1629.5,591.43,1627.95,590.64,1626.57,589.62z"/>
		</g>
		<g>
			<path class="st19" d="M1630.4,585.31c0.54,1.26,0.92,2.51,1.39,3.72c0.46,1.22,0.95,2.37,1.75,3.48
				c-0.64-0.28-1.16-0.79-1.57-1.35c-0.43-0.56-0.72-1.19-0.98-1.83c-0.24-0.64-0.42-1.31-0.52-1.98
				C1630.37,586.68,1630.32,586,1630.4,585.31z"/>
		</g>
	</g>
	<path class="st5" d="M1657.37,593.08c0,0,3.98,0.52,7.49,1.64c3.51,1.12,6.22,2.71,6.22,2.71s-4.15,7.34-3.35,12.77
		c0.8,5.43,0,7.34,2.07,10.85c2.07,3.51,2.55,11.01,2.55,11.01s-7.68,4.76-12.34,6.22c0,0-2.66-3.03-4.57-11.33
		s-3.67-17.08-3.03-23.46C1653.06,597.12,1657.37,593.08,1657.37,593.08z"/>
	<path class="st21" d="M1634.55,579.24c0,0,2.28,7.83,1.9,10.37c-0.64,4.33,9.88,4.28,9.88,4.28s28.97-2.82,37.64-4.99
		c8.67-2.16,16.01-3.12,16.33-5.03s-0.8-14.84-1.28-15.96s-18.35,4.15-35.59,7.02C1648.86,577.36,1635.19,577.97,1634.55,579.24z"/>
	<g>
		<path class="st22" d="M1648.75,548.92c0,0-12.13-6.86-20.75-1.12c-8.62,5.75-13.41,21.38-18.35,26.81
			c-4.95,5.43-18.99,19.69-28.57,23.49c0,0,25.21-1.95,36.55-10.25c11.33-8.3,18.36-24.05,21.31-29.5
			C1641.89,552.91,1648.75,548.92,1648.75,548.92z"/>
		<g>
			<path class="st17" d="M1600.76,588.91c1.01,0.26,2.01,0.42,3.02,0.55c1,0.14,2.01,0.23,3.02,0.31c1,0.09,2.02,0.13,3.03,0.17
				c1.01,0.02,2.03,0.01,3.04-0.03l-0.19,0.03c1.6-0.58,3.24-1.52,4.72-2.54c1.49-1.04,2.91-2.19,4.24-3.44
				c2.65-2.52,4.93-5.43,6.91-8.52c0.47-0.79,0.99-1.55,1.42-2.36l1.31-2.43c0.85-1.67,1.7-3.34,2.59-5
				c1.77-3.31,3.63-6.59,5.85-9.68c1.12-1.54,2.34-3.03,3.77-4.35c1.42-1.33,3.08-2.41,4.76-3.29c0.18-0.11,0.53-0.27,0.81-0.34
				c0.3-0.07,0.61-0.11,0.9-0.1c0.59,0.01,1.13,0.15,1.63,0.34c0.99,0.38,1.83,0.94,2.61,1.54c1.55,1.21,2.87,2.61,4.11,4.06
				c2.45,2.93,4.53,6.11,6.36,9.44c1.78,3.35,3.44,6.8,4.33,10.65l-2.32,0.48c-0.69-3.48-2.1-6.93-3.77-10.19
				c-1.7-3.26-3.66-6.4-5.95-9.26c-1.15-1.42-2.38-2.78-3.76-3.9c-1.33-1.07-3.05-2.08-4.24-1.37c-1.62,0.85-3.14,1.81-4.43,3.07
				c-1.3,1.24-2.44,2.67-3.49,4.17c-2.1,3.01-3.9,6.27-5.66,9.55c-0.88,1.64-1.72,3.3-2.57,4.96l-1.35,2.51
				c-0.45,0.84-0.98,1.63-1.47,2.44c-2.03,3.21-4.41,6.22-7.21,8.83c-2.83,2.58-5.93,4.85-9.71,6.17l-0.08,0.03l-0.11,0
				c-1.04,0.01-2.09,0-3.13-0.05c-1.04-0.06-2.09-0.13-3.12-0.3c-1.04-0.16-2.06-0.39-3.06-0.73
				C1602.59,589.96,1601.6,589.55,1600.76,588.91z"/>
		</g>
		<g>
			<path class="st17" d="M1614.92,578.13c1.18-0.33,2.35-0.53,3.51-0.7c1.16-0.18,2.31-0.31,3.46-0.43l3.43-0.36
				c1.14-0.15,2.27-0.26,3.45-0.58c-0.82,0.94-2,1.49-3.15,1.88c-1.16,0.4-2.35,0.64-3.55,0.76c-1.2,0.12-2.4,0.16-3.59,0.06
				C1617.28,578.68,1616.09,578.51,1614.92,578.13z"/>
		</g>
		<g>
			<path class="st17" d="M1624.23,563.61c1.07-0.18,2.11-0.24,3.13-0.27c1.03-0.04,2.04-0.03,3.04-0.02l2.99,0.04
				c1-0.01,1.98,0,3.05-0.18c-0.75,0.82-1.84,1.24-2.88,1.5c-1.05,0.27-2.13,0.37-3.19,0.35c-1.06-0.02-2.11-0.13-3.14-0.36
				C1626.21,564.44,1625.19,564.12,1624.23,563.61z"/>
		</g>
	</g>
	<path class="st16" d="M1631.2,525.98c0,0-19.63-9.38-41.97,0c-22.34,9.38-22.02,38.11-24.42,44.17c-2.39,6.06-7.02,11.33-7.5,15.16
		s8.46-8.46,18.51-15.16c10.05-6.7,27.67-9.82,39.1-19.15c11.43-9.33,14.8-15.64,17.14-20.11
		C1634.39,526.42,1631.2,525.98,1631.2,525.98z"/>
	<g>
		<g>
			<path class="st17" d="M1565.76,576.05c3.2-4.96,6.62-9.77,10.24-14.43c3.64-4.65,7.48-9.16,11.78-13.26
				c4.42-4.01,9.44-7.23,14.55-10.22c5.13-2.97,10.42-5.64,15.88-7.98c2.73-1.16,5.51-2.23,8.39-3.09c1.45-0.42,2.9-0.81,4.52-0.95
				c0.4-0.04,0.83-0.03,1.29,0.01c0.23,0.05,0.51,0.07,0.71,0.15l0.6,0.23c0.42,0.14,0.74,0.36,1.09,0.55
				c0.36,0.19,0.7,0.39,1.01,0.62c2.58,1.76,4.69,3.98,6.58,6.34c1.92,2.35,3.46,4.95,4.93,7.57c2.81,5.32,4.83,11.01,6.33,16.8
				c1.44,5.81,2.3,11.73,2.89,17.66l-2.86,0.23c-0.51-5.81-1.28-11.6-2.6-17.26c-1.36-5.65-3.22-11.18-5.83-16.35
				c-1.37-2.54-2.8-5.06-4.58-7.31c-1.74-2.27-3.72-4.39-5.99-6c-0.28-0.22-0.57-0.4-0.86-0.55c-0.29-0.16-0.59-0.36-0.87-0.46
				l-0.43-0.18c-0.15-0.07-0.24-0.05-0.37-0.09c-0.27-0.02-0.58-0.05-0.91-0.02c-1.33,0.09-2.75,0.43-4.13,0.8
				c-2.78,0.78-5.54,1.79-8.25,2.88c-5.43,2.18-10.75,4.72-15.89,7.54c-5.13,2.84-10.17,5.92-14.59,9.75
				c-4.33,3.94-8.26,8.36-12,12.9C1572.64,566.48,1569.09,571.19,1565.76,576.05z"/>
		</g>
		<g>
			<path class="st17" d="M1597.2,531.37c1.31-0.13,2.61-0.16,3.91-0.17c1.3,0,2.61,0.04,3.91,0.12c1.3,0.09,2.6,0.21,3.9,0.39
				c1.3,0.2,2.6,0.4,3.9,0.77l0.41,0.12l0.14,0.34c0.27,0.65,0.39,1.18,0.52,1.76c0.13,0.57,0.19,1.15,0.24,1.72
				c0.1,1.15,0.09,2.29-0.01,3.41c-0.07,1.13-0.29,2.24-0.53,3.33c-0.26,1.09-0.58,2.16-0.98,3.2c0.03-0.56,0.07-1.11,0.12-1.66
				l0.09-1.65c0.04-1.1,0.07-2.18,0.03-3.26c-0.04-1.08-0.11-2.15-0.27-3.2c-0.17-1.02-0.39-2.13-0.74-2.95l0.55,0.46
				c-2.43-0.6-4.98-1-7.52-1.41C1602.33,532.29,1599.77,531.89,1597.2,531.37z"/>
		</g>
		<g>
			<path class="st17" d="M1585.71,538.87c1.25-0.26,2.51-0.4,3.77-0.53c1.26-0.12,2.53-0.19,3.8-0.21c1.27-0.02,2.55,0,3.83,0.11
				c1.28,0.12,2.57,0.24,3.86,0.61l0.73,0.21l-0.11,0.72c-0.17,1.1-0.38,2.16-0.66,3.21c-0.26,1.05-0.57,2.09-0.94,3.12
				c-0.71,2.05-1.62,4.04-2.8,5.85c0.28-1.05,0.59-2.07,0.84-3.1c0.27-1.03,0.5-2.06,0.74-3.09c0.22-1.03,0.44-2.07,0.63-3.1
				c0.18-1.03,0.38-2.08,0.51-3.1l0.62,0.92c-1.14-0.27-2.36-0.46-3.59-0.6c-1.23-0.14-2.47-0.26-3.71-0.36
				C1590.75,539.32,1588.24,539.15,1585.71,538.87z"/>
		</g>
		<g>
			<path class="st17" d="M1575.18,553.92c1.49-0.74,3.04-1.3,4.61-1.79c0.79-0.25,1.58-0.45,2.39-0.64
				c0.82-0.19,1.61-0.33,2.57-0.38l1.04-0.06l-0.2,1.06c-0.33,1.74-0.77,3.43-1.33,5.1c-0.28,0.83-0.6,1.65-0.95,2.46
				c-0.38,0.8-0.76,1.6-1.25,2.34c0.27-1.75,0.57-3.45,0.89-5.15c0.3-1.7,0.65-3.39,0.98-5.07l0.84,1.01
				c-0.67,0-1.49,0.15-2.28,0.25l-2.4,0.35C1578.47,553.63,1576.84,553.84,1575.18,553.92z"/>
		</g>
	</g>
	<g>
		<path class="st22" d="M1565.76,483.48c-0.24,1.93,6.86,3.2,9.42,7.35c2.55,4.15,17.4,22.66,30.48,32.56
			c13.09,9.89,36.3,11.78,39.38,13.1c3.08,1.32,6.43,3.18,6.43,3.18s-4.15-20.51-11.49-32.12s-31.76-18.47-41.33-21.35
			s-15.16-2.87-20.43-3.51C1572.95,482.06,1566.08,480.92,1565.76,483.48z"/>
		<g>
			<path class="st17" d="M1565.76,483.48c5.93,0.91,11.82,2.13,17.64,3.59c5.82,1.48,11.59,3.21,17.21,5.37
				c11.3,4.23,21.69,10.77,30.81,18.69c4.54,3.99,8.77,8.37,12.48,13.19c3.69,4.81,6.89,10.12,8.99,15.87
				c4.26,11.31,7.55,22.92,9.83,34.84l-2.82,0.47c-1.01-5.82-2.36-11.67-3.9-17.42c-1.52-5.77-3.29-11.47-5.3-17.08
				c-1.92-5.57-4.9-10.71-8.42-15.47c-3.53-4.76-7.6-9.12-12-13.13c-8.8-8-18.9-14.69-30-19.13c-5.53-2.27-11.24-4.12-17.01-5.73
				C1577.51,485.93,1571.67,484.56,1565.76,483.48z"/>
		</g>
		<g>
			<path class="st17" d="M1595.1,504.1c3.82-0.72,7.64-1.2,11.47-1.64c1.91-0.23,3.83-0.41,5.74-0.61l5.73-0.57l-0.62,0.86
				c-0.13-0.76-0.28-1.57-0.46-2.35c-0.19-0.78-0.37-1.58-0.59-2.36c-0.42-1.57-0.92-3.12-1.45-4.69c0.92,1.37,1.7,2.85,2.35,4.38
				c0.33,0.76,0.63,1.54,0.89,2.33c0.26,0.8,0.52,1.58,0.71,2.42l0.16,0.73l-0.79,0.14c-1.91,0.33-3.83,0.58-5.76,0.8
				c-1.92,0.2-3.85,0.38-5.78,0.49C1602.84,504.25,1598.98,504.34,1595.1,504.1z"/>
		</g>
		<g>
			<path class="st17" d="M1614.92,516.37c3.08-0.66,6.18-1.11,9.26-1.57l4.62-0.65c1.53-0.24,3.08-0.42,4.56-0.73l-0.65,0.8
				c0.04-1.96,0.03-3.95-0.04-5.92c-0.02-0.99-0.08-1.97-0.16-2.96c-0.1-0.98-0.19-1.97-0.46-2.94c0.53,0.87,0.86,1.84,1.14,2.82
				c0.28,0.98,0.47,1.98,0.64,2.97c0.32,2,0.48,4.01,0.53,6.04l0.02,0.65l-0.67,0.15c-1.57,0.34-3.12,0.61-4.69,0.79
				c-1.56,0.2-3.12,0.35-4.69,0.45C1621.2,516.47,1618.07,516.57,1614.92,516.37z"/>
		</g>
	</g>
	<g>
		<path class="st23" d="M1718.23,820.44c0,0,18.83,6.29,52.01,2.82c33.18-3.46,45.36-12.06,45.36-12.06s-0.26,37.84-21.42,48.75
			c-21.17,10.9-43.49,9.24-56.45,1.54C1724.78,853.79,1716.69,837.37,1718.23,820.44z"/>
		<g>
			<path class="st7" d="M1732.38,823.22c0,0,0.48,8.51,9.33,21.59c8.85,13.09,24.37,22.8,24.37,22.8s1.67,1.44,2.7,1.44
				s5.13-0.9,0.9-3.85c-4.23-2.95-20.01-13.47-26.43-26.3c-6.41-12.83-6.33-15.14-7.34-16.55c-1-1.41-0.88-0.9-1-1.41
				C1734.78,820.44,1731.78,819.91,1732.38,823.22z"/>
			<path class="st7" d="M1732.3,857.51c0,0,7.16-11.67,19.32-21.29c12.15-9.62,19.84-13.07,21.78-13.31
				c1.94-0.24,4.23,0.61,3.46,2.66c-0.77,2.05-12.96,6.03-24.37,17.7c-11.42,11.67-14.24,16.81-14.75,18.22s-1.8,1.28-3.46,0
				S1732.3,857.51,1732.3,857.51z"/>
			<path class="st7" d="M1787.04,820.8c0,0-3.77,20.42-10.57,31.96s-17.04,14.93-17.04,14.93s-0.46,2.39,2.9,2.26
				s11.02-5.52,17.39-13.47c6.37-7.95,6.99-13.75,8.55-19.11c1.56-5.37,4.23-17.73,4.23-17.73S1790.3,816.81,1787.04,820.8z"/>
			<path class="st7" d="M1801.54,854.34c0,0,1.49,0.48,3.03-1.19s1.46-8.34-3.12-18.47s-16.77-13.85-18.31-14.24
				c-1.54-0.38-4.24-0.29-4.49,1.78c-0.25,2.07,9.37,4.64,13.86,10.02S1800.69,845.14,1801.54,854.34z"/>
			<path class="st7" d="M1811.91,813.23c0,0-0.07,0.21-0.2,0.59c-1.01,2.94-5.64,16.07-9.84,21.81l1.51,3.82
				c0,0,11.36-17.06,13.25-23.17c1.9-6.1-0.9-7.52-2.18-6.87C1813.16,810.05,1811.91,813.23,1811.91,813.23z"/>
			<path class="st7" d="M1775.2,866.52c1.66,0.87,2.69,4.46,0.76,6.12c-1.93,1.67-12.21,2.09-11.94-3.06
				C1764.29,864.44,1775.2,866.52,1775.2,866.52z"/>
			<path class="st7" d="M1766.21,877.91c2.55,1.51,7.79-0.39,8.19-4.56c0.4-4.17-10.12-2.29-10.12-2.29
				S1759.28,873.8,1766.21,877.91z"/>
			<path class="st7" d="M1769.8,899.89c3.15,1.1,3.09-2.87,2.25-10.05c-0.84-7.18-0.5-12.32-0.5-12.32s-0.59-1.8-2.52-1.54
				c-1.92,0.26-2.24,4.23-2.21,10.65C1766.85,893.05,1767.37,899.04,1769.8,899.89z"/>
			<path class="st7" d="M1758.77,894.61c1.76-0.79,6.22-5.24,8.05-9.94c1.83-4.71,1.19-7.71-0.48-8.71c-1.67-1-3.08,4.05-5.39,8.71
				c-2.31,4.66-5,5.17-4.75,7.48S1757.26,895.29,1758.77,894.61z"/>
			<path class="st7" d="M1772.05,875.83c0,0,2.5,5.33,3.4,8.84c0.9,3.5,3.72,9.92,6.16,8.76c2.44-1.15,2.57-3.59,0-7.06
				c-2.57-3.46-6.07-13.26-7.2-13.02C1773.28,873.59,1771.48,872.73,1772.05,875.83z"/>
		</g>
		<g>
			<path class="st17" d="M1746.71,811.21c0,0,2.31-10.17,13.34-10.68c11.03-0.51,13.09,6.18,13.09,6.18s-1.15,4.08-4.49,6.39
				c-3.34,2.31-8.53,3.18-12.41,3.13C1752.36,816.18,1746.71,811.21,1746.71,811.21z"/>
			<path class="st17" d="M1782.63,815.41c-3.45-0.42-9.94,3.34-10.42,10.26c-0.48,6.93,5.29,8.16,11.45,7.41
				c6.16-0.74,13.73-5.26,12.19-8.9C1794.31,820.54,1788.92,816.18,1782.63,815.41z"/>
			<g>
				<path class="st16" d="M1748.25,809.25c0,0,1.67-3.59-2.82-8.85c-4.49-5.26-19.11-4.5-27.2,5.9
					c-8.08,10.39-10.39,13.09-9.88,13.86c0.51,0.77,3.85-0.13,7.06,1.28s11.29,4.62,18.86,4.49c7.57-0.13,11.9-3.85,14.29-7.57
					C1750.95,814.64,1748.25,809.25,1748.25,809.25z"/>
				<g>
					<path class="st17" d="M1715.67,815.41c1.14-0.92,2.28-1.84,3.48-2.69c1.2-0.85,2.45-1.62,3.73-2.36
						c2.56-1.45,5.31-2.62,8.2-3.34c2.91-0.67,5.9-0.83,8.85-0.53c2.93,0.36,5.87,1.14,8.33,2.77c-1.3-0.67-2.69-1.13-4.11-1.46
						c-1.41-0.35-2.84-0.56-4.29-0.65c-2.88-0.16-5.8-0.01-8.59,0.71c-2.81,0.63-5.5,1.78-8.09,3.08
						C1720.58,812.23,1718.13,813.82,1715.67,815.41z"/>
				</g>
				<g>
					<path class="st17" d="M1722.34,804.7c1.3,0.29,2.58,0.67,3.84,1.1c0.63,0.23,1.25,0.46,1.87,0.73c0.61,0.28,1.22,0.56,1.82,1
						l0.25,0.19l-0.14,0.3c-0.84,1.86-1.87,3.57-3.04,5.21c-1.17,1.63-2.49,3.15-3.97,4.49c0.58-0.82,1.17-1.61,1.72-2.44
						c0.56-0.81,1.11-1.64,1.63-2.47c1.04-1.67,2.06-3.38,2.89-5.12l0.12,0.49c-0.46-0.36-1.04-0.69-1.62-0.98
						c-0.58-0.29-1.17-0.58-1.77-0.85L1722.34,804.7z"/>
				</g>
				<g>
					<path class="st17" d="M1734.01,799.63c0.87,0.3,1.7,0.72,2.51,1.17c0.8,0.47,1.57,1,2.28,1.6c0.72,0.59,1.36,1.29,1.95,2.03
						c0.58,0.75,1.03,1.6,1.41,2.48l0.07,0.17l-0.09,0.17c-0.89,1.73-1.95,3.32-3.14,4.82c-1.18,1.51-2.52,2.88-3.97,4.11
						c0.59-0.75,1.21-1.46,1.77-2.23c0.58-0.74,1.13-1.51,1.66-2.28c1.06-1.55,2.07-3.15,2.91-4.79l-0.01,0.34
						c-0.64-1.63-1.72-3.07-3.01-4.32C1737.06,801.65,1735.6,800.55,1734.01,799.63z"/>
				</g>
			</g>
			<g>
				<path class="st16" d="M1760.05,807.07c0,0-5-3.85-11.67,1.03c-6.67,4.87-5.64,13.09-2.69,21.42s7.18,13.85,8.47,14.11
					c1.28,0.26,0.98-2.95,4.4-6.16s12.4-6.82,16.12-12.84c3.72-6.02,2.57-12.44,0-15.9
					C1772.11,805.28,1765.44,802.58,1760.05,807.07z"/>
				<g>
					<path class="st17" d="M1760.05,807.07c-0.71,0.86-1.31,1.78-1.83,2.75c-0.55,0.95-1.01,1.95-1.43,2.96
						c-0.83,2.03-1.45,4.14-1.92,6.28l-0.33,1.61l-0.24,1.63c-0.21,1.08-0.24,2.18-0.38,3.28c-0.11,1.1-0.12,2.2-0.2,3.31
						c-0.03,1.11-0.02,2.21-0.07,3.33c-0.14-1.1-0.24-2.21-0.35-3.32c-0.01-1.11-0.07-2.23-0.04-3.35c0.07-2.23,0.29-4.47,0.78-6.66
						c0.5-2.19,1.16-4.35,2.16-6.37C1757.18,810.52,1758.39,808.57,1760.05,807.07z"/>
				</g>
				<g>
					<path class="st17" d="M1750.73,813.49c0.53-0.5,1.1-0.93,1.67-1.37c0.58-0.43,1.17-0.84,1.79-1.22
						c1.23-0.76,2.52-1.45,3.93-1.91l0.17-0.06l0.12,0.07c0.46,0.26,0.63,0.47,0.9,0.72c0.24,0.24,0.47,0.5,0.68,0.76
						c0.43,0.52,0.82,1.06,1.19,1.61c0.74,1.1,1.39,2.26,1.96,3.46c-0.44-0.5-0.83-1.03-1.25-1.54l-1.23-1.53
						c-0.42-0.5-0.83-1.01-1.27-1.48c-0.22-0.23-0.44-0.47-0.66-0.69c-0.2-0.21-0.51-0.46-0.63-0.52l0.29,0.01
						c-1.31,0.44-2.58,1.06-3.85,1.7L1750.73,813.49z"/>
				</g>
				<g>
					<path class="st17" d="M1749.15,824.18c0.37-0.58,0.78-1.12,1.17-1.68c0.41-0.54,0.83-1.08,1.26-1.61
						c0.87-1.05,1.74-2.08,2.76-3.05l0.39-0.37l0.26,0.48c0.61,1.11,1.14,2.25,1.57,3.43c0.44,1.18,0.78,2.4,0.92,3.65
						c-0.24-0.58-0.46-1.16-0.73-1.72l-0.79-1.68c-0.55-1.1-1.11-2.21-1.71-3.27l0.65,0.1c-0.94,0.91-1.87,1.92-2.82,2.88
						c-0.47,0.49-0.96,0.96-1.44,1.44C1750.15,823.25,1749.67,823.74,1749.15,824.18z"/>
				</g>
			</g>
			<g>
				<path class="st17" d="M1705.79,849.67c0,0,0.51-12.07,8.08-20.28s18.27-7.16,21.58-3.52c0,0,5.4-0.37,8.65,4.33
					s-2.78,16.25-13.56,16.89s-15.91,0-19.37,0.9C1707.71,848.89,1706.56,851.74,1705.79,849.67z"/>
				<g>
					<path class="st16" d="M1715.15,840.29c0.7-0.79,1.27-1.69,1.92-2.53c0.65-0.84,1.33-1.66,2.05-2.45
						c1.42-1.59,3.01-3.03,4.72-4.32c1.7-1.29,3.57-2.38,5.52-3.25c1.94-0.91,4.02-1.47,6.09-1.87c-0.98,0.41-2.01,0.66-2.96,1.14
						l-1.45,0.61l-1.4,0.72c-1.84,0.99-3.64,2.06-5.29,3.34c-1.68,1.25-3.25,2.63-4.76,4.09
						C1718.06,837.21,1716.74,838.87,1715.15,840.29z"/>
				</g>
				<g>
					<path class="st16" d="M1720.67,839.78l1.54-7.37l0.47,0.5c-1.07,0.15-2.17,0.4-3.25,0.67c-1.08,0.28-2.15,0.61-3.25,0.94
						c0.95-0.64,1.98-1.15,3.05-1.56c1.08-0.41,2.17-0.72,3.34-0.9l0.58-0.09l-0.12,0.59c-0.25,1.25-0.56,2.47-0.94,3.68
						C1721.72,837.46,1721.27,838.66,1720.67,839.78z"/>
				</g>
				<g>
					<path class="st16" d="M1722.34,826.7c0.67-0.16,1.35-0.24,2.04-0.31c0.69-0.05,1.38-0.07,2.07-0.04
						c1.38,0.06,2.78,0.32,4.1,0.88l0.23,0.1l0.02,0.25c0.07,0.82,0.03,1.6-0.02,2.39c-0.06,0.79-0.17,1.57-0.32,2.35
						c-0.29,1.55-0.82,3.06-1.54,4.45c0.18-0.77,0.39-1.51,0.51-2.28c0.15-0.76,0.26-1.52,0.35-2.28c0.18-1.52,0.26-3.07,0.19-4.56
						l0.25,0.35c-1.19-0.53-2.49-0.82-3.81-1.02C1725.06,826.81,1723.71,826.71,1722.34,826.7z"/>
				</g>
			</g>
			<g>
				<path class="st16" d="M1810.21,796.81c-1.9-1.2-13.47-9.36-23.86-8.08c-10.39,1.28-17.7,6.8-17.7,15.78
					c0,8.98,6.03,8.72,6.03,8.72s2.18,7.06,9.24,7.57c7.06,0.51,10.65-9.24,12.32-14.5s6.67-6.67,8.98-7.44
					C1807.52,798.09,1812.71,798.38,1810.21,796.81z"/>
				<g>
					<g>
						<path class="st17" d="M1774.68,813.23c0.12-2.5,0.81-4.98,1.88-7.26c1.06-2.3,2.57-4.41,4.46-6.12
							c0.44-0.47,0.97-0.82,1.47-1.22c0.51-0.39,1-0.79,1.56-1.09l1.65-0.95c0.58-0.26,1.17-0.49,1.75-0.73l0.88-0.36
							c0.3-0.1,0.61-0.17,0.91-0.26l1.82-0.49c1.23-0.24,2.49-0.37,3.72-0.51c-1.21,0.34-2.43,0.55-3.62,0.92l-1.75,0.6
							c-0.29,0.1-0.59,0.19-0.87,0.3l-0.83,0.4l-1.66,0.79l-1.56,0.97c-0.54,0.29-1.01,0.69-1.49,1.07
							c-0.47,0.38-0.98,0.73-1.4,1.18c-1.82,1.63-3.28,3.63-4.45,5.79c-0.3,0.54-0.54,1.1-0.81,1.66c-0.23,0.57-0.47,1.14-0.67,1.73
							C1775.23,810.8,1774.91,812,1774.68,813.23z"/>
					</g>
					<g>
						<path class="st17" d="M1775.83,799.63c-0.14,1.67-0.2,3.33-0.22,4.98c-0.01,1.65,0.05,3.3,0.27,4.92l-0.37-0.37
							c1.68,0.15,3.43,0.09,5.14-0.11c0.86-0.1,1.71-0.24,2.55-0.44c0.86-0.16,1.68-0.45,2.52-0.71c-1.52,0.88-3.22,1.5-4.97,1.82
							c-0.87,0.17-1.76,0.27-2.65,0.33c-0.89,0.04-1.77,0.04-2.69-0.05l-0.33-0.03l-0.04-0.33c-0.2-1.69-0.22-3.39-0.08-5.06
							c0.07-0.84,0.18-1.67,0.32-2.5C1775.43,801.25,1775.59,800.43,1775.83,799.63z"/>
					</g>
					<g>
						<path class="st17" d="M1782.5,794.24c-0.53,1.19-0.97,2.41-1.36,3.62c-0.38,1.22-0.66,2.46-0.79,3.71l-0.37-0.46
							c1.21,0.14,2.45,0.23,3.68,0.31l1.85,0.09c0.62,0.04,1.24,0.02,1.87,0.03c-1.21,0.34-2.47,0.5-3.73,0.54
							c-1.26,0.05-2.51,0.01-3.77-0.12l-0.42-0.04l0.05-0.42c0.15-1.34,0.49-2.64,1.01-3.85c0.25-0.61,0.55-1.2,0.87-1.77
							C1781.74,795.3,1782.08,794.74,1782.5,794.24z"/>
					</g>
					<g>
						<path class="st17" d="M1791.1,792.7c-0.68,0.55-1.33,1.11-1.91,1.72c-0.58,0.61-1.09,1.26-1.43,1.97l-0.29-0.59
							c1.99,0.4,3.96,0.85,5.94,1.41c-1.03,0.09-2.07,0.03-3.09-0.08c-1.02-0.12-2.03-0.28-3.03-0.51l-0.53-0.12l0.24-0.47
							c0.43-0.84,1.06-1.53,1.77-2.08C1789.48,793.41,1790.26,792.97,1791.1,792.7z"/>
					</g>
				</g>
			</g>
			<g>
				<path class="st17" d="M1786.74,813.74c0,0,1.62-11.67,12.81-12.19c11.18-0.51,18.11,7.06,21.06,10.26s6.54,13.73,7.06,17.83
					c0.51,4.11-0.26,3.46-4.62,0c-4.36-3.46-8.85-4.75-16.42-2.05c-7.57,2.69-19.5,0.77-21.04-5.26S1786.74,813.74,1786.74,813.74z"
					/>
				<g>
					<g>
						<path class="st16" d="M1786.74,813.74c2.23-3.25,6.08-5.26,10.03-5.83c3.97-0.58,8.06,0.01,11.78,1.42l1.39,0.54l1.35,0.63
							c0.91,0.4,1.76,0.92,2.63,1.39c1.68,1.05,3.35,2.11,4.86,3.38c1.53,1.24,2.99,2.57,4.31,4.03c0.65,0.74,1.28,1.5,1.86,2.29
							c0.55,0.81,1.15,1.62,1.39,2.58c-0.88-1.74-2.34-3.08-3.74-4.4c-1.41-1.32-2.94-2.51-4.49-3.65
							c-3.12-2.25-6.47-4.19-10.06-5.51c-0.88-0.38-1.81-0.59-2.71-0.89c-0.93-0.19-1.84-0.45-2.79-0.56
							c-1.87-0.34-3.78-0.34-5.67-0.19c-1.88,0.18-3.75,0.65-5.48,1.44C1789.67,811.19,1788.05,812.29,1786.74,813.74z"/>
					</g>
					<g>
						<path class="st16" d="M1800.98,822.46c-0.92-0.9-1.73-1.89-2.55-2.89c-0.79-1.01-1.55-2.06-2.22-3.17
							c-0.68-1.1-1.31-2.24-1.82-3.46c-0.51-1.21-0.91-2.49-1.08-3.86l-0.04-0.34l0.26-0.23c1.11-0.97,2.27-1.71,3.49-2.41
							c1.23-0.67,2.5-1.27,3.83-1.71c1.32-0.45,2.67-0.81,4.04-1.01c1.37-0.2,2.76-0.29,4.13-0.24c-1.35,0.28-2.69,0.49-3.98,0.92
							c-1.3,0.36-2.56,0.83-3.8,1.36c-1.23,0.53-2.43,1.13-3.56,1.83c-1.14,0.66-2.26,1.45-3.22,2.27l0.22-0.57
							c0.12,1.18,0.49,2.36,0.91,3.52c0.42,1.17,0.98,2.29,1.54,3.42C1798.27,818.13,1799.58,820.31,1800.98,822.46z"/>
					</g>
					<g>
						<path class="st16" d="M1820.6,811.81c-2.94-0.01-5.78,0.03-8.58,0.43l0.58-0.75c0.2,1.54,0.45,3.11,0.74,4.66
							c0.3,1.55,0.63,3.09,1.09,4.65c-0.51-0.64-0.91-1.36-1.27-2.1c-0.34-0.74-0.65-1.51-0.9-2.28c-0.25-0.78-0.45-1.57-0.63-2.37
							c-0.15-0.8-0.31-1.59-0.39-2.43l-0.07-0.68l0.65-0.07c0.74-0.08,1.49-0.17,2.23-0.16c0.74-0.01,1.49,0.02,2.22,0.1
							C1817.77,810.99,1819.23,811.27,1820.6,811.81z"/>
					</g>
				</g>
			</g>
			<g>
				<path class="st16" d="M1788.79,828.36c0,0-6.03-3.59-12.83,2.69c-6.8,6.29-3.07,14.84,1.09,19.35
					c4.17,4.51,11.11,7.97,12.71,11.82c1.59,3.85,1.46,5.26,5.57,1.03c4.11-4.23,9.16-8.34,11.12-18.73
					c1.96-10.39-3.3-15.39-8.68-17.19C1792.38,825.54,1788.79,828.36,1788.79,828.36z"/>
				<g>
					<path class="st17" d="M1794.05,856.07c0.2-1.21,0.38-2.43,0.5-3.65c0.15-1.21,0.24-2.43,0.3-3.65c0.1-2.43,0.1-4.87-0.26-7.26
						c-0.33-2.38-1.07-4.72-1.99-6.95c-0.47-1.12-1.02-2.2-1.66-3.24c-0.61-1.05-1.32-2.05-2.15-2.96c1.9,1.59,3.29,3.71,4.41,5.93
						c1.09,2.24,1.87,4.62,2.24,7.1c0.36,2.47,0.33,4.97,0.07,7.43C1795.24,851.29,1794.79,853.72,1794.05,856.07z"/>
				</g>
				<g>
					<path class="st17" d="M1792.05,851.07c0.05-0.67,0.19-1.32,0.32-1.98c0.15-0.65,0.33-1.3,0.56-1.94
						c0.45-1.27,1.05-2.52,2.03-3.57l0.41-0.44l0.27,0.53c0.59,1.17,1.05,2.35,1.38,3.6c0.34,1.23,0.52,2.52,0.5,3.79
						c-0.17-0.62-0.3-1.23-0.51-1.82c-0.19-0.6-0.39-1.19-0.61-1.77c-0.45-1.16-0.94-2.32-1.51-3.39l0.68,0.1
						c-0.84,0.89-1.46,2.05-2.01,3.23C1793.01,848.6,1792.51,849.82,1792.05,851.07z"/>
				</g>
				<g>
					<path class="st17" d="M1788.79,843.88c0.16-0.9,0.39-1.78,0.6-2.67c0.23-0.88,0.47-1.76,0.74-2.63
						c0.55-1.74,1.14-3.46,2.03-5.12l0.22-0.41l0.38,0.26c0.8,0.55,1.49,1.16,2.16,1.82c0.65,0.67,1.27,1.37,1.8,2.13
						c1.1,1.5,1.92,3.19,2.46,4.94c-0.45-0.8-0.86-1.61-1.38-2.36c-0.48-0.76-1.04-1.48-1.6-2.18c-0.58-0.69-1.18-1.35-1.84-1.96
						c-0.64-0.61-1.34-1.21-2.05-1.68l0.6-0.15c-0.43,0.75-0.79,1.58-1.14,2.41c-0.36,0.83-0.68,1.67-1.01,2.51L1788.79,843.88z"/>
				</g>
			</g>
		</g>
	</g>
	<path class="st14" d="M1681.3,483.88c0,0,11.25,10.09,22.89-2.86v6.6c0,0-3.47,3.12-11.44,3.79c-7.97,0.66-8.42-1.15-8.42-1.15
		S1682.77,485.06,1681.3,483.88z"/>
</g>
<g>
	<path class="st24" d="M262.33,905.49c0,6.93-45.4,12.55-101.4,12.55c-56,0-101.4-5.62-101.4-12.55c0-6.93,45.4-12.55,101.4-12.55
		C216.93,892.94,262.33,898.56,262.33,905.49z"/>
	<path class="st21" d="M158.71,766.48c4.85,2.91,8.53,6.79,12.6,10.47c5.04,4.65,9.89,6.98,16.29,8.92
		c10.47,3.3,21.52,2.13,29.27-6.01c6.11-6.42,10.22-11.61,10.92-20.79c0.33-4.35,0.82-8.7-0.37-12.96
		c-1.18-4.23-3.44-8.09-5.47-11.95c-4.31-6.18-9.84-11.6-16.08-15.23c-6.15-3.58-13.47-5.39-20.66-5.13
		c-4.18,0.15-8.32,1.01-12.17,2.63c-12.28,5.17-28.82,13.38-34.87,25.64c-1.4,2.83-2.1,5.83-1.75,8.78
		c0.18,0.43,0.37,0.86,0.59,1.29C141.07,760.67,151.34,761.83,158.71,766.48z"/>
	<g>
		<defs>
			<path id="SVGID_1_" d="M158.71,766.48c4.85,2.91,8.53,6.79,12.6,10.47c5.04,4.65,9.89,6.98,16.29,8.92
				c10.47,3.3,21.52,2.13,29.27-6.01c6.11-6.42,10.22-11.61,10.92-20.79c0.33-4.35,0.82-8.7-0.37-12.96
				c-1.18-4.23-3.44-8.09-5.47-11.95c-4.31-6.18-9.84-11.6-16.08-15.23c-6.15-3.58-13.47-5.39-20.66-5.13
				c-4.18,0.15-8.32,1.01-12.17,2.63c-12.28,5.17-28.82,13.38-34.87,25.64c-1.4,2.83-2.1,5.83-1.75,8.78
				c0.18,0.43,0.37,0.86,0.59,1.29C141.07,760.67,151.34,761.83,158.71,766.48z"/>
		</defs>
		<clipPath id="SVGID_00000161595742589538841570000013663751886690776476_">
			<use xlink:href="#SVGID_1_"  style="overflow:visible;"/>
		</clipPath>
		<g style="clip-path:url(#SVGID_00000161595742589538841570000013663751886690776476_);">
			<g>
				<g>
					<path class="st26" d="M189.66,749.03c-1.49,6.66-4.03,16.03-10.12,20.08c2.03,4.06,5.89,11.02,5.31,15.63
						c4.47-2.83,7.6-7.78,10.21-12.39c0.81-1.62,5.17-11.03,3.93-11.53L189.66,749.03z"/>
				</g>
				<g>
					<g>
						<path class="st27" d="M185.25,802.05c0.4-2.8-1.95-5.45-5.25-5.92c-3.3-0.47-6.29,1.42-6.69,4.22
							c-0.4,2.8,1.95,5.45,5.24,5.92C181.85,806.74,184.85,804.85,185.25,802.05z"/>
					</g>
					<g>
						<path class="st28" d="M184.13,800.54c0.24-1.7-1.21-3.32-3.24-3.6c-2.03-0.29-3.88,0.85-4.12,2.55
							c-0.24,1.7,1.21,3.32,3.24,3.6C182.04,803.38,183.88,802.24,184.13,800.54z"/>
					</g>
					<g>
						<path class="st28" d="M181.36,787.15c-1.35,1.31-3.06,2.73-3.99,4.6c-1.29,3.15,1.24,6.52,3.6,8.69
							c2.94,2.76,6.59,4.11,10.28,1.63c3.88-2.62,24.57-13.86,25.36-20.58c0.48-4.11-4.57-10.05-8.43-11.1
							c-4.18-1.1-6.66,0.61-10.16,2.94C197.08,774.04,181.36,787.15,181.36,787.15z"/>
					</g>
					<g>
						<path class="st27" d="M201.68,774.53c-0.18,1.45,0.28,2.81,0.94,4c0.69,1.19,1.59,2.25,2.65,3.13
							c1.05,0.88,2.25,1.6,3.55,2.02c1.29,0.41,2.72,0.52,4.07-0.05c-1.15,0.93-2.81,1.14-4.27,0.8c-1.49-0.31-2.84-1.06-3.99-2.01
							c-1.14-0.97-2.1-2.17-2.7-3.55C201.32,777.52,201.12,775.88,201.68,774.53z"/>
					</g>
				</g>
				<g>
					<g>
						<path class="st29" d="M202.63,769.7c0.58-1.72,0.78-3.68,1.21-5.37c-0.8-0.38-1.84-0.39-2.7-0.68
							c-0.68-0.17-2.43-0.9-3.1-0.67c-1.12,0.33-1.1,4.39-1.54,5.68L202.63,769.7z"/>
					</g>
					<g>
						<path class="st30" d="M196.07,762.36c-0.12,0.51,0.13,1.01,0.56,1.11l8.13,1.94c0.44,0.1,0.89-0.22,1.01-0.73l0.43-1.82
							c0.12-0.51-0.13-1.01-0.57-1.11l-8.13-1.94c-0.43-0.1-0.89,0.22-1.01,0.73L196.07,762.36z"/>
					</g>
					<g>
						<path class="st29" d="M206.5,782.88c0.18-3.54,3.14-8.19,0.45-11.34c-3-3.49-9.05-5.26-13.46-4.29
							c-5.47,1.21-6.21,7.27-6.76,12.02c-0.23,2.21-6.55,33.18-5.54,35.27c1.04,1.84,3.39,3.08,5.3,3.77
							c2.8,1.14,7.75,2.6,10.56,0.86c2.75-1.64,2.5-4.94,3.46-7.46L206.5,782.88z"/>
					</g>
				</g>
				<g>
					<path class="st31" d="M191.39,763c0.03-0.62-0.46-1.15-1.08-1.18l-11.29-0.51c-0.62-0.03-1.15,0.45-1.18,1.08l0,0
						c-0.03,0.63,0.45,1.15,1.08,1.18l11.29,0.51C190.83,764.11,191.36,763.62,191.39,763L191.39,763z"/>
					<path class="st32" d="M191.53,765.56c0.05-1.06-0.78-1.96-1.83-2.01l-10.4-0.47c-1.06-0.05-1.96,0.77-2.01,1.83l-0.88,19.37
						c-0.05,1.06,0.77,1.96,1.84,2.01l10.4,0.47c1.06,0.05,1.96-0.77,2.01-1.84L191.53,765.56z"/>
					<path class="st31" d="M190.3,787.01c0.03-0.62-0.45-1.15-1.08-1.18l-11.29-0.51c-0.63-0.03-1.15,0.45-1.18,1.08l0,0
						c-0.03,0.62,0.46,1.15,1.08,1.18l11.3,0.51C189.74,788.11,190.27,787.63,190.3,787.01L190.3,787.01z"/>
				</g>
				<g>
					<path class="st33" d="M163.94,772.26c6.82-0.29,16.48-1.15,21.55-6.43c3.64,2.71,9.81,7.74,14.45,7.98
						c-3.58,3.9-9,6.12-13.99,7.87c-1.74,0.52-11.77,3.15-12.04,1.84L163.94,772.26z"/>
				</g>
			</g>
			<g>
				<g>
					<path class="st26" d="M202.44,786.92c6.55-1.92,15.98-4.22,22.47-0.85c2.58-3.74,6.8-10.48,11.11-12.2
						c-4.64-2.54-10.49-2.9-15.78-2.95c-1.81,0.07-12.15,0.81-12,2.14L202.44,786.92z"/>
				</g>
				<g>
					<g>
						<path class="st34" d="M250.99,765.15c-2.64,1.01-3.83,4.34-2.65,7.45c1.18,3.11,4.28,4.82,6.93,3.82
							c2.64-1,3.83-4.34,2.64-7.45C256.73,765.86,253.63,764.15,250.99,765.15z"/>
					</g>
					<g>
						<path class="st35" d="M250.21,766.86c-1.61,0.61-2.32,2.66-1.59,4.58c0.73,1.92,2.62,2.98,4.23,2.37
							c1.61-0.61,2.32-2.66,1.59-4.58C253.7,767.31,251.81,766.25,250.21,766.86z"/>
					</g>
					<g>
						<path class="st35" d="M239.82,775.76c1.8,0.55,3.87,1.36,5.96,1.27c3.38-0.4,5.1-4.24,5.86-7.35
							c0.99-3.91,0.41-7.75-3.54-9.79c-4.16-2.13-24.01-14.81-30.27-12.25c-3.83,1.57-6.59,8.87-5.64,12.75
							c1.06,4.19,3.75,5.53,7.49,7.47C220.75,768.34,239.82,775.76,239.82,775.76z"/>
					</g>
					<g>
						<path class="st34" d="M218.95,764.07c1.36-0.55,2.32-1.61,3.05-2.76c0.71-1.17,1.2-2.48,1.46-3.83
							c0.26-1.35,0.31-2.74,0.06-4.08c-0.27-1.33-0.86-2.64-2.01-3.54c1.36,0.56,2.36,1.91,2.77,3.35c0.44,1.45,0.44,3,0.17,4.47
							c-0.3,1.47-0.88,2.89-1.8,4.08C221.74,762.95,220.41,763.91,218.95,764.07z"/>
					</g>
				</g>
				<g>
					<path class="st31" d="M213.84,778.66c-0.56,0.28-0.79,0.95-0.51,1.51l5.01,10.13c0.28,0.56,0.96,0.79,1.51,0.51l0,0
						c0.56-0.28,0.79-0.96,0.51-1.52l-5.01-10.13C215.07,778.61,214.4,778.38,213.84,778.66L213.84,778.66z"/>
					<path class="st36" d="M216.01,777.29c-0.95,0.47-1.34,1.62-0.87,2.57l4.62,9.33c0.47,0.95,1.62,1.35,2.58,0.87l17.38-8.6
						c0.95-0.47,1.34-1.62,0.87-2.58l-4.62-9.33c-0.47-0.95-1.62-1.34-2.58-0.87L216.01,777.29z"/>
					<path class="st31" d="M235.38,768c-0.56,0.28-0.79,0.96-0.51,1.52l5.01,10.13c0.28,0.56,0.95,0.79,1.51,0.51l0,0
						c0.56-0.28,0.79-0.96,0.51-1.51l-5.01-10.13C236.62,767.95,235.94,767.73,235.38,768L235.38,768z"/>
				</g>
				<g>
					<path class="st37" d="M235.21,798.2c-3.55-5.83-8.97-13.88-16.05-15.76c0.61-4.5,2.03-12.33,0-16.5
						c5.15,1.25,9.7,4.92,13.65,8.44c1.29,1.28,8.44,8.78,7.43,9.66L235.21,798.2z"/>
				</g>
			</g>
		</g>
	</g>
	<path class="st38" d="M158.71,766.48c4.85,2.91,8.53,6.79,12.6,10.47c5.04,4.65,9.89,6.98,16.29,8.92
		c10.47,3.3,21.52,2.13,29.27-6.01c6.11-6.42,10.22-11.61,10.92-20.79c0.33-4.35,0.82-8.7-0.37-12.96
		c-1.18-4.23-3.44-8.09-5.47-11.95c-4.31-6.18-9.84-11.6-16.08-15.23c-6.15-3.58-13.47-5.39-20.66-5.13
		c-4.18,0.15-8.32,1.01-12.17,2.63c-12.28,5.17-28.82,13.38-34.87,25.64c-1.4,2.83-2.1,5.83-1.75,8.78
		c0.18,0.43,0.37,0.86,0.59,1.29C141.07,760.67,151.34,761.83,158.71,766.48z"/>
	<path class="st15" d="M273.29,845.89c-4.27-20.77-22.1-33.62-32.18-51.37c-7.7-13.56-7.21-30.1-11.49-44.63
		c-1.59-5.38-4.24-10.8-7.67-15.73c2.03,3.86,4.29,7.72,5.47,11.95c1.19,4.26,0.7,8.61,0.37,12.96c-0.7,9.18-4.8,14.37-10.92,20.79
		c-7.75,8.14-18.8,9.31-29.27,6.01c-6.4-1.94-11.25-4.27-16.29-8.92c-4.07-3.68-7.76-7.56-12.6-10.47
		c-7.37-4.65-17.64-5.82-21.71-14.35c-0.21-0.43-0.41-0.86-0.59-1.29c0.18,1.55,0.65,3.09,1.47,4.58
		c3.36,6.12,10.93,7.97,14.05,14.55c10.86,20.77,7.76,48.35,7.76,71.39c0,20.02,12.41,34.75,29.47,44.95
		c17.06,10.2,47.31,21.15,66.31,10.2C272.9,886.3,276.78,864.02,273.29,845.89z"/>
	<g>
		<g>
			<path class="st11" d="M229.45,785.02c-1.89,4.61-3.59,9.45-6.94,13.29c-1.67,1.89-3.7,3.47-5.93,4.66
				c-2.21,1.19-4.51,2.24-6.87,3.13c-4.72,1.75-9.69,2.87-14.71,3.28c-5.02,0.44-10.09,0.26-15.09-0.29l0.46-0.54
				c0.34,1.21,0.98,2.31,1.86,3.2c0.87,0.89,1.97,1.56,3.14,2.05c2.36,0.98,4.98,1.3,7.57,1.37c5.21,0.09,10.43-0.77,15.5-2.03
				c5.05-1.36,10.1-2.93,14.66-5.43c2.27-1.26,4.41-2.76,6.22-4.6c1.81-1.83,3.26-4.02,4.15-6.43l0.8-2.16l0.09,2.29
				c0.12,3.22-0.8,6.47-2.58,9.13c-1.73,2.7-4.07,4.91-6.55,6.84c-0.62,0.49-1.26,0.95-1.9,1.41l-0.98,0.68l-1.03,0.59l-2.05,1.17
				l-2.11,1.06l-1.06,0.52l-1.08,0.47c-0.72,0.31-1.44,0.63-2.17,0.92c-1.48,0.53-2.94,1.11-4.47,1.51
				c-1.5,0.48-3.04,0.79-4.57,1.15c-1.55,0.25-3.09,0.57-4.66,0.69c-3.12,0.37-6.28,0.36-9.4,0.13c-6.26-0.43-12.39-1.98-18.27-4.08
				c5.92,1.99,12.06,3.41,18.29,3.72c3.11,0.17,6.23,0.09,9.32-0.29c1.55-0.13,3.07-0.47,4.6-0.73c1.51-0.37,3.03-0.69,4.51-1.18
				c1.5-0.41,2.94-1,4.4-1.54c0.72-0.29,1.42-0.62,2.13-0.93l1.06-0.47l1.04-0.53l2.07-1.07l2.01-1.17l1-0.59l0.94-0.67
				c0.62-0.46,1.25-0.92,1.85-1.4c2.43-1.91,4.69-4.07,6.33-6.65c1.69-2.55,2.53-5.59,2.41-8.62l0.88,0.14
				c-0.93,2.54-2.45,4.85-4.33,6.77c-1.88,1.93-4.09,3.49-6.42,4.79c-4.68,2.6-9.78,4.18-14.9,5.52c-5.15,1.26-10.42,2.11-15.76,2
				c-2.66-0.08-5.37-0.42-7.89-1.47c-1.25-0.53-2.45-1.27-3.42-2.26c-0.97-0.99-1.69-2.24-2.05-3.57l-0.17-0.61l0.63,0.07
				c4.96,0.55,9.96,0.82,14.93,0.43c4.97-0.35,9.89-1.4,14.58-3.08c4.61-1.8,9.41-3.72,12.77-7.47
				C225.67,794.41,227.47,789.6,229.45,785.02z"/>
		</g>
		<g>
			<path class="st11" d="M177.74,863.32c0.35,2.24,1.37,4.34,3.06,5.71c1.67,1.38,3.85,2.05,6,2.05c2.16,0.02,4.33-0.63,6.13-1.84
				c1.82-1.21,3.19-3.07,4.01-5.18c-0.21,1.12-0.65,2.2-1.23,3.2c-0.61,0.99-1.41,1.87-2.33,2.6c-1.85,1.47-4.23,2.22-6.59,2.22
				c-2.35-0.02-4.78-0.81-6.5-2.48c-0.86-0.82-1.53-1.82-1.96-2.9C177.92,865.61,177.72,864.46,177.74,863.32z"/>
		</g>
		<g>
			<path class="st11" d="M200.64,862.58c0.57,0.78,1.2,1.44,1.96,1.81c0.75,0.36,1.6,0.47,2.37,0.22c0.78-0.22,1.47-0.73,1.99-1.4
				c0.52-0.68,0.84-1.53,1.07-2.47c0.19,0.94,0.08,1.98-0.41,2.89c-0.47,0.91-1.35,1.65-2.38,1.95c-1.03,0.31-2.2,0.1-3.05-0.52
				C201.34,864.45,200.82,863.52,200.64,862.58z"/>
		</g>
		<g>
			<path class="st11" d="M196.58,875.14c0.3,1.2,0.8,2.29,1.64,3.01c0.83,0.71,1.94,1.06,3.05,1.06c1.12,0.02,2.26-0.26,3.3-0.74
				c1.04-0.5,1.98-1.23,2.72-2.22c-0.36,1.19-1.25,2.22-2.34,2.9c-1.09,0.69-2.38,1.07-3.69,1.06c-1.3-0.01-2.68-0.49-3.58-1.5
				C196.76,877.72,196.46,876.36,196.58,875.14z"/>
		</g>
		<g>
			<path class="st11" d="M209.13,887.33c0.92,1.31,2.27,2.14,3.69,2.62c1.43,0.47,2.97,0.61,4.44,0.39c1.47-0.2,2.9-0.79,3.93-1.83
				c1.03-1.04,1.55-2.55,1.61-4.14c0.05,0.39,0.1,0.79,0.13,1.19c0.03,0.4-0.07,0.8-0.1,1.22c-0.04,0.42-0.26,0.78-0.39,1.18
				c-0.15,0.4-0.45,0.71-0.67,1.07c-1.08,1.34-2.73,2.06-4.37,2.3c-1.65,0.23-3.35,0.01-4.86-0.66
				C211.03,890.03,209.71,888.83,209.13,887.33z"/>
		</g>
		<g>
			<path class="st11" d="M226.13,892.5c0.96,1.1,2.01,2.08,3.2,2.77c1.19,0.68,2.53,1.03,3.84,0.83c1.31-0.19,2.53-0.87,3.57-1.78
				c1.03-0.92,1.9-2.06,2.68-3.3c-0.42,1.39-1.11,2.75-2.14,3.86c-1.01,1.11-2.41,1.97-3.97,2.21c-1.57,0.22-3.18-0.27-4.4-1.17
				C227.66,895.04,226.76,893.81,226.13,892.5z"/>
		</g>
		<g>
			<path class="st11" d="M236.1,882.9c0.42,0.86,0.99,1.61,1.76,1.79c0.76,0.17,1.6-0.06,2.38-0.44c0.78-0.37,1.51-0.9,2.19-1.48
				c0.68-0.6,1.29-1.26,1.8-2.08c-0.11,0.97-0.61,1.87-1.24,2.62c-0.63,0.76-1.42,1.39-2.32,1.84c-0.9,0.42-2.02,0.7-3.07,0.28
				c-0.24-0.13-0.49-0.27-0.68-0.46c-0.16-0.22-0.38-0.39-0.47-0.64C236.2,883.87,236.13,883.38,236.1,882.9z"/>
		</g>
		<g>
			<path class="st11" d="M246.44,888.44c1.25,0.89,2.7,1.31,4.13,1.27c1.43-0.04,2.84-0.47,4.09-1.17c1.27-0.68,2.39-1.63,3.3-2.76
				c0.89-1.14,1.57-2.48,1.77-4c0.2,1.52-0.27,3.13-1.14,4.45c-0.85,1.33-2.07,2.42-3.46,3.18c-1.39,0.75-2.99,1.19-4.6,1.07
				C248.94,890.4,247.41,889.61,246.44,888.44z"/>
		</g>
		<g>
			<path class="st11" d="M226.13,872.93c0.66,0.56,1.34,1.01,2.04,1.4c0.71,0.38,1.44,0.71,2.18,0.88c0.73,0.18,1.49,0.22,2.11-0.11
				c0.62-0.32,1.07-1.01,1.42-1.81c0.05,0.84-0.19,1.83-1,2.46c-0.81,0.64-1.89,0.62-2.76,0.42c-0.89-0.23-1.7-0.65-2.39-1.21
				C227.05,874.43,226.45,873.74,226.13,872.93z"/>
		</g>
		<g>
			<path class="st11" d="M222.06,848.18c0.46,0.62,1,1.08,1.59,1.42c0.6,0.32,1.24,0.54,1.89,0.57c0.65,0.06,1.28-0.08,1.83-0.41
				c0.55-0.33,0.98-0.9,1.34-1.59c0.05,0.76-0.22,1.61-0.86,2.2c-0.63,0.6-1.54,0.85-2.38,0.79c-0.84-0.07-1.65-0.4-2.27-0.94
				C222.58,849.71,222.13,848.96,222.06,848.18z"/>
		</g>
		<g>
			<path class="st11" d="M217.26,865.54c0.84-0.03,1.4-0.12,1.95-0.38c0.56-0.24,1.05-0.62,1.74-1.1c0.03,0.84-0.53,1.64-1.34,2.01
				c-0.41,0.17-0.87,0.24-1.31,0.14C217.88,866.12,217.5,865.89,217.26,865.54z"/>
		</g>
		<g>
			<path class="st11" d="M243.48,866.28c1.31,1.06,2.79,1.93,4.35,2.03c1.56,0.13,3.06-0.59,4.23-1.66c1.2-1.05,2.15-2.41,2.94-3.84
				c0.77-1.45,1.39-3,1.78-4.65c0,1.7-0.39,3.41-1.07,4.99c-0.68,1.58-1.66,3.07-2.98,4.26c-0.32,0.31-0.72,0.53-1.07,0.8
				c-0.38,0.24-0.8,0.42-1.21,0.61c-0.44,0.11-0.88,0.26-1.33,0.31l-0.69,0.03l-0.34,0.01l-0.33-0.07
				C245.93,868.81,244.51,867.6,243.48,866.28z"/>
		</g>
		<g>
			<path class="st11" d="M269.71,857.42c0.19,1.99-0.01,4.05-0.62,5.99c-0.6,1.94-1.6,3.81-3.09,5.29
				c-1.48,1.47-3.48,2.47-5.56,2.62c-2.08,0.18-4.11-0.42-5.87-1.34c1.92,0.57,3.89,0.86,5.78,0.57c1.88-0.29,3.61-1.21,4.95-2.55
				c1.36-1.33,2.34-3.04,3.06-4.84C269.06,861.34,269.51,859.41,269.71,857.42z"/>
		</g>
		<g>
			<path class="st11" d="M260.84,844.12c0.51,0.74,0.8,1.66,0.78,2.6c0,0.95-0.32,1.9-0.85,2.69c-1.08,1.58-2.94,2.52-4.74,2.47
				c1.62-0.74,3.01-1.69,3.91-3.02c0.46-0.65,0.75-1.4,0.9-2.2C261,845.85,260.97,845.01,260.84,844.12z"/>
		</g>
		<g>
			<path class="st11" d="M249.76,837.1c0.54,0.57,0.96,1.28,1.17,2.08c0.21,0.79,0.21,1.74-0.28,2.54c-0.5,0.8-1.4,1.25-2.22,1.32
				c-0.84,0.09-1.64-0.09-2.36-0.4c0.79-0.1,1.53-0.16,2.2-0.37c0.67-0.21,1.22-0.56,1.53-1.07c0.34-0.5,0.4-1.19,0.37-1.89
				C250.12,838.6,249.94,837.87,249.76,837.1z"/>
		</g>
		<g>
			<path class="st11" d="M267.12,877.36c-0.07,0.82-0.6,1.47-1.2,1.91c-0.62,0.43-1.32,0.71-2.13,0.67
				c0.46-0.67,1.01-1.08,1.54-1.48C265.89,878.08,266.4,877.72,267.12,877.36z"/>
		</g>
	</g>
	<path class="st24" d="M441.56,922.49c0,6.93-42.19,12.55-94.24,12.55c-52.05,0-94.24-5.62-94.24-12.55
		c0-6.93,42.19-12.55,94.24-12.55C399.36,909.94,441.56,915.56,441.56,922.49z"/>
	<g>
		<g>
			<path class="st39" d="M326.18,899.03c0-23.27,6.11-47.11,2.33-70.38c-1.45-9.02-2.04-18.03,0.29-27.05
				c-5.53-2.33-12.21-1.45-18.03-1.74c-1.74,5.82,0,13.38,1.45,18.9c1.74,6.11,4.65,65.72,5.23,70.09c0.29,2.04,0.29,4.07,0.58,6.11
				c0.29,1.16-0.29,3.2,0.58,2.33L326.18,899.03z"/>
		</g>
		<g>
			<g>
				<path class="st40" d="M290.89,914.93c-1.55,0-2.72,0.39-2.72,2.13c0,3.68,5.82,4.26,8.34,4.46c3.88,0.58,7.95,0.97,11.83,0.97
					c4.85,0,8.14-1.74,12.41-3.68c1.23,3.68,7.17,2.13,9.11,1.36c3.3-1.16,5.43-6.2,1.16-7.37c-6.21-1.74-12.41,0.58-18.61,0.97
					L290.89,914.93z"/>
			</g>
			<g>
				<path class="st41" d="M324.43,896.12c-0.97-0.77-4.27-2.13-5.43-2.91c-4.26-2.91-7.37-3.49-9.89,1.55
					c-0.77,1.74-1.36,3.49-2.13,5.43c-0.78,2.52-1.94,2.13-4.65,2.91c-3.49,0.97-8.53,1.36-10.86,4.85
					c-0.78,1.36-1.74,4.27-1.74,5.82c0,2.72,2.71,2.52,5.04,3.1c4.46,0.97,8.92,0.78,13.57,0.78c4.26,0,8.34-1.74,12.8-1.55
					c2.71,0,9.13,0.79,11.46-1.34c1.74-1.74,0.37-4.48-0.6-6.61c-1.16-2.91-0.97-5.82-0.78-9.11c0.19-2.71,1.16-6.4-2.13-7.56
					c-1.55-0.58-2.01,0.21-2.78,1.56L324.43,896.12z"/>
			</g>
		</g>
	</g>
	<g>
		<g>
			<path class="st39" d="M374.16,811.49c0,10.76,3.78,20.65,3.78,31.7c0,13.67-1.16,27.05-1.16,40.42c0,6.11,1.16,12.8,0.58,18.61
				c-3.49,0.58-7.95,1.52-11.15,2.1c0,0,0.97-13.73,0.39-19.84c-0.58-6.11-0.87-11.92-1.45-18.03c-0.87-12.51-2.33-25.01-3.78-37.22
				c-0.87-9.02-2.62-18.9-2.62-27.05L374.16,811.49z"/>
		</g>
		<g>
			<g>
				<path class="st40" d="M360.69,922.68c-1.36,0.58-2.52,2.52-1.74,4.07c1.57,3.15,7.22,3.11,10.18,3.38
					c5.32,0.48,10.57,0.11,15.79-0.98c2.49-0.52,5.38-1.21,6.79-3.56c1.74-2.91-0.39-5.04-3.68-4.85L360.69,922.68z"/>
			</g>
			<g>
				<path class="st41" d="M367.47,897.29c-1.16,0-2.33-0.58-3.49-0.19c-3.49,0.97-3.49,6.79-3.68,9.69
					c-0.19,4.07-1.56,15.7-0.2,16.87c1.36,1.16,5.44,2.14,7.18,2.52c13.57,3,21.7-1.3,22.86-2.46c1.94-1.94-0.76-10.72-3.47-11.89
					c-0.78-0.39-1.74-0.19-2.33-0.78c-0.58-0.58-1.94-7.95-2.71-10.08c-0.58-1.94-2.71-7.76-5.23-4.07
					C376.78,886.82,366.02,891,367.47,897.29L367.47,897.29z"/>
			</g>
		</g>
	</g>
	<g>
		<path class="st5" d="M308.44,739.66c-1.45,10.18-2.33,20.65-3.78,30.83c-1.16,7.27-1.74,14.25-2.33,21.52
			c-0.29,3.2-2.04,19.19-2.04,19.48c8.24,4.36,31.41,5.23,36.64,4.07c0,0,3.59-26.46,4.94-41.88c2.04,7.56,6.11,36.93,6.98,43.33
			c9.89,1.38,21.13,3.1,36.35,0c0-0.29,0,0,0,0c-4.17-17.16-7.27-73.29-7.27-73.29L308.44,739.66z"/>
	</g>
	<g>
		<g>
			<path class="st42" d="M304.5,804.52c0.98,0.57,2,1.02,3.07,1.35c1.05,0.36,2.14,0.63,3.23,0.85c2.19,0.43,4.41,0.73,6.63,0.98
				c2.2,0.25,4.44,0.25,6.68,0.24l3.38-0.03c1.13,0.03,2.26,0.04,3.39,0.15c-1.13,0.11-2.25,0.2-3.37,0.34l-3.37,0.3
				c-2.26,0.19-4.54,0.22-6.83-0.02c-2.25-0.28-4.5-0.6-6.7-1.23C308.43,806.85,306.23,806,304.5,804.52z"/>
		</g>
		<g>
			<path class="st42" d="M353.26,808.37c0.84,0.59,1.86,0.74,2.85,0.8c1,0.06,2,0.04,3.04,0.08l0.03,0
				c1.69,0.22,3.39,0.36,5.11,0.47c1.72,0.11,3.42,0.22,5.13,0.24c1.71,0.04,3.42,0.06,5.13-0.01c1.71-0.09,3.41-0.26,5.1-0.65
				c-1.59,0.68-3.31,1.08-5.04,1.29c-1.72,0.24-3.47,0.32-5.2,0.33c-1.73,0-3.47-0.08-5.19-0.23c-1.72-0.14-3.46-0.35-5.16-0.73
				l0.03,0c-0.98-0.13-2.02-0.16-3.04-0.35C355.06,809.42,353.98,809.13,353.26,808.37z"/>
		</g>
		<g>
			<path class="st42" d="M334.74,746.49c0.13,2.58,0.24,5.15,0.4,7.73c0.13,2.58,0.28,5.15,0.46,7.72l0.3,3.85
				c0.12,1.26,0.23,2.6,0.51,3.73c0.37,1.15,1.09,2.13,2.1,2.76c1.01,0.64,2.23,0.99,3.46,1.37l-0.62,0.38
				c0.43-2.3,0.72-4.67,1.01-7.02l0.83-7.08l0.77-7.09c0.26-2.36,0.5-4.73,0.65-7.1c0.07,2.38-0.08,4.76-0.18,7.14
				c-0.14,2.38-0.31,4.75-0.5,7.13c-0.18,2.37-0.42,4.74-0.68,7.11c-0.27,2.37-0.52,4.73-0.94,7.11l-0.09,0.53l-0.53-0.15
				c-1.24-0.36-2.53-0.75-3.7-1.5c-1.18-0.74-2.07-1.98-2.46-3.29c-0.33-1.38-0.39-2.63-0.51-3.93c-0.1-1.29-0.17-2.58-0.21-3.88
				c-0.09-2.58-0.15-5.16-0.18-7.75C334.65,751.66,334.63,749.07,334.74,746.49z"/>
		</g>
		<g>
			<path class="st42" d="M319.93,747.11c0.12,1.06-0.25,2.17-0.85,3.07c-0.59,0.92-1.41,1.67-2.3,2.29c-0.9,0.6-1.89,1.06-2.94,1.32
				c-1.04,0.27-2.14,0.36-3.18,0.11c1.04-0.17,2-0.48,2.93-0.86c0.92-0.39,1.81-0.85,2.63-1.41c0.83-0.55,1.58-1.19,2.23-1.92
				C319.1,748.97,319.63,748.13,319.93,747.11z"/>
		</g>
		<g>
			<path class="st42" d="M364.68,749.89c0.14,1.16,0.7,2.12,1.39,2.96c0.7,0.83,1.53,1.56,2.43,2.2c0.89,0.65,1.86,1.2,2.86,1.67
				c1.01,0.46,2.05,0.86,3.2,1.04c-1.15,0.24-2.36,0.04-3.48-0.32c-1.13-0.36-2.19-0.9-3.16-1.59c-0.95-0.7-1.84-1.53-2.48-2.55
				C364.79,752.3,364.39,751.04,364.68,749.89z"/>
		</g>
	</g>
	<g>
		<path class="st43" d="M300.97,669.28c-1.55,2.91-6.4,19.58-9.31,21.71c-3.49,2.71-11.97,8.77-12.46,0.73
			c-0.25-4.1,8-25.35,10.72-28.26L300.97,669.28z"/>
	</g>
	<g>
		<path class="st39" d="M304.27,687.9c-6.01-0.78-9.62-2.5-15.63-3.47c-5.43-0.78-7.11-1.91-8.76,3.24
			c-1.19,3.7-1.39,13.02,3.65,13.8c4.07,0.58,20.36-0.39,22.68-2.33L304.27,687.9z"/>
	</g>
	<g>
		<path class="st6" d="M313.77,625.27c-4.65,0.78-9.11,1.16-11.83,5.62c-2.52,4.27-4.27,8.34-6.21,12.8
			c-0.97,2.13-1.74,4.07-2.52,6.2c-0.97,2.71-2.13,3.1-4.27,4.85c-2.33,2.13-2.71,6.59-4.46,9.31c2.91,2.52,12.21,7.56,19.78,9.31
			c4.07-7.95,7.95-16.09,12.02-24.04L313.77,625.27z"/>
	</g>
	<g>
		<path class="st3" d="M303.11,746.06c2.13-1.74,2.52-8.72,2.71-11.25c0-2.33-0.39-4.85,0.97-6.98c1.36-2.13,3.88-3.1,4.07-5.82
			c0.19-2.13-1.55-4.07-0.97-6.4c0.77-2.33,2.52-3.3,2.71-6.01c0.58-6.4,0-12.99,0-19.58c0-10.66,0.19-21.52-0.19-32.18
			c-0.19-3.68-0.77-8.14-2.52-11.44c-1.94-4.07-5.62-6.98-7.56-11.05c-2.13-5.43,1.16-7.17,5.82-8.72c3.88-1.16,8.53-2.71,12.41-3.1
			c3.1-0.19,6.01,0.19,9.11,0c2.71-0.19,5.23-0.78,7.95-0.58c4.65,0.39,9.85,0.9,14.35,2.33c5.13,1.62,8.24,3.3,12.6,5.62
			c5.43,2.89,12.03,9.49,13.39,14.53c1.55,5.04-2.92,7.38-3.89,12.42c-0.97,5.62-0.97,11.05-1.16,16.67
			c-0.39,11.63-1.94,22.88-0.97,34.51c0.19,2.33,0.78,4.27,1.36,6.59c0.58,2.72-0.58,3.88-1.16,6.4c-0.58,2.33,1.16,3.88,2.13,5.82
			c0.58,1.16,1.74,2.72,1.94,4.07c0.19,1.55-0.78,2.33-0.97,3.88c-0.78,4.07,5.43,6.01,6.2,10.28c0.39,2.33-0.58,5.04-0.58,7.56
			v0.19C316.29,753.81,303.11,746.06,303.11,746.06z"/>
	</g>
	<g>
		<path class="st44" d="M447.74,869.37L275.96,625.27c0,0-2.71-4.54-5.82-2.37c0,0-3.88,1.4,0,7.21l173.72,242.74
			C443.86,872.86,453.17,881,447.74,869.37z"/>
	</g>
	<path class="st11" d="M452.78,920.73l-8.14-43.22c0,0-5.04-14.93,7.75-6.98l56.35,31.4L452.78,920.73z"/>
	<g>
		<path class="st11" d="M453.94,921.33c0,0,44.73,58.56,4.55,0l-1.71-1.89L453.94,921.33z"/>
		<path class="st11" d="M464.09,917.98c0,0,44.73,58.56,4.55,0l-1.71-1.88L464.09,917.98z"/>
		<path class="st11" d="M474.24,914.02c0,0,44.73,58.56,4.55,0l-1.71-1.89L474.24,914.02z"/>
		<path class="st11" d="M484.38,910.98c0,0,44.73,58.56,4.55,0l-1.71-1.89L484.38,910.98z"/>
		<path class="st11" d="M494.53,907.37c0,0,44.73,58.56,4.55,0l-1.71-1.89L494.53,907.37z"/>
		<path class="st11" d="M504.67,904.83c0,0,44.73,58.56,4.55,0l-1.71-1.88L504.67,904.83z"/>
	</g>
	<polygon class="st11" points="452.25,917.91 452.59,924.04 513.08,903.39 506.33,900.58 	"/>
	<g>
		<g>
			<path class="st45" d="M321.52,680.33c2.04-5.23,6.69-2.62,10.32-0.29c1.74,1.16,6.11,5.09,3.2,7.27
				c-2.18,1.89-5.67-1.02-7.71-1.6L321.52,680.33z"/>
		</g>
		<g>
			<g>
				<path class="st46" d="M303.2,684.41c-2.18,6.11-3.05,14.54,1.16,20.07c1.6-1.16,3.05-2.62,4.65-3.93
					c0.44,1.74,1.89,1.74,2.76,0.58c0.44-0.29,0.44-1.45,1.02-1.74c0.58-0.15,1.74,0.73,2.33,0.87c2.33,0.87,5.23,1.6,7.71,1.74
					c2.91,0.29,5.38-0.29,8-1.45c2.91-1.16,4.22-3.64,0.87-5.23c1.89-1.02,2.33-4.36-0.44-4.51c2.47-2.33,0.29-3.93-1.6-5.23
					c4.8-4.22-6.83-6.25-9.45-6.54c-3.05-0.29-4.22,0.73-6.25,3.05c-0.87,1.02-1.45,2.04-2.04,2.91c-0.44,0.58-1.6,1.74-1.16,1.74
					L303.2,684.41z"/>
			</g>
			<g>
				<g>
					<path class="st45" d="M319.2,684.26c2.22-0.41,4.48-0.73,6.79-0.4c1.14,0.18,2.29,0.52,3.3,1.11c1.02,0.58,1.89,1.4,2.49,2.37
						c-0.91-0.69-1.84-1.26-2.84-1.67c-0.99-0.41-2.04-0.67-3.11-0.83c-1.07-0.17-2.16-0.23-3.28-0.29
						C321.46,684.5,320.32,684.46,319.2,684.26z"/>
				</g>
				<g>
					<path class="st45" d="M319.63,689.79c1.14-0.2,2.29-0.28,3.44-0.3c1.15-0.03,2.29,0.02,3.44,0.11
						c1.14,0.11,2.29,0.26,3.42,0.54c0.56,0.13,1.12,0.31,1.67,0.53c0.51,0.25,1.13,0.51,1.39,1.06c-0.42-0.4-1-0.48-1.53-0.6
						c-0.55-0.11-1.1-0.17-1.66-0.24c-1.12-0.12-2.24-0.22-3.37-0.31C324.17,690.38,321.91,690.19,319.63,689.79z"/>
				</g>
				<g>
					<path class="st45" d="M320.65,695.89c2.16-0.05,4.27,0.01,6.35-0.12c1.04-0.04,2.07-0.18,3.07-0.38
						c0.99-0.23,1.98-0.55,2.8-1.27c-0.49,1-1.54,1.64-2.57,2.02c-1.05,0.39-2.15,0.57-3.23,0.63c-1.09,0.05-2.18,0.01-3.25-0.13
						C322.73,696.49,321.67,696.27,320.65,695.89z"/>
				</g>
			</g>
		</g>
	</g>
	<g>
		<path class="st43" d="M326.95,625.85c-6.21,1.16-6.4,13.77-5.04,17.84c2.33,8.14,10.86,17.06,20.36,14.54
			c8.34-2.33,12.21-13.76,12.21-21.52c0-4.65-3.88-7.95-8.14-9.31c-3.3-0.97-8.14-2.52-11.44-1.94c-0.19,0-0.39,0.19-0.39,0.19
			L326.95,625.85z"/>
	</g>
	<g>
		<g>
			<path class="st39" d="M373.87,676.65c1.55,6.59,2.91,13.57,4.65,20.36c0.78,3.49,2.33,7.75,2.33,11.44
				c0.19,3.68-2.52,7.76-3.88,11.44c-1.94,5.23-4.27,10.47-5.82,15.7c1.94,0.58,4.46,1.36,5.82,2.91c1.55-1.16,2.91-4.26,4.27-6.01
				c1.36-1.94,2.91-4.07,4.07-6.4c2.33-4.07,4.85-8.14,6.98-12.41c1.74-4.07,0.19-8.34-0.19-12.6c-0.39-4.27-1.16-8.53-1.74-12.99
				c-1.33-8.96-2.13-16.29-2.13-16.29L373.87,676.65z"/>
		</g>
		<g>
			<g>
				<path class="st46" d="M351.48,760.02c0,2.04,3.05,2.62,4.51,1.45c-0.73,2.33,2.47,4.46,4.51,3.01c0.44,6.69,5.44,1.22,7.25-1.29
					c2.76-3.82,4.69-6.47,6.27-13.21c2.18,1.31,2.47-1.31,1.74-2.76c2.62-1.31,5.23-2.47,7.85-3.49
					c-2.33-8.29-10.76-11.05-17.89-13.67c-1.74,2.33-0.29,7.42-2.33,9.31c-0.58,0.44-1.6,0.29-2.04,1.02c-0.58,0.87,0,1.6-0.15,2.47
					c-0.15,1.89-1.6,1.74-3.49,2.04c-1.31,0.15-3.34,0-4.51,0.73c-1.31,0.87-2.18,3.2-2.91,4.51c-1.45,3.2-3.49,6.54-4.36,9.89
					c-0.58,2.04-0.44,5.67,2.91,4.94c1.89-0.44,1.45-2.91,2.76-3.93L351.48,760.02z"/>
			</g>
			<g>
				<g>
					<path class="st45" d="M348.06,765.05c0.63-0.16,1.21-0.41,1.59-0.85c0.19-0.21,0.33-0.46,0.47-0.73
						c0.14-0.27,0.24-0.56,0.44-0.89l-0.02,0.04c0.54-1.13,1.03-2.29,1.6-3.44c0.57-1.14,1.23-2.3,2.16-3.23
						c-0.44,1.23-0.85,2.41-1.32,3.61c-0.47,1.18-0.99,2.38-1.71,3.48l-0.02,0.04c-0.32,0.41-0.65,1.12-1.24,1.53
						C349.42,765.04,348.7,765.14,348.06,765.05z"/>
				</g>
				<g>
					<path class="st45" d="M352.63,761.74c0.76,0.04,1.41-0.1,1.97-0.41c0.56-0.32,1.05-0.76,1.5-1.26c0.92-1,1.67-2.2,2.64-3.34
						c-0.25,1.47-0.88,2.86-1.9,4.01c-0.52,0.56-1.16,1.07-1.95,1.31C354.13,762.3,353.24,762.18,352.63,761.74z"/>
				</g>
				<g>
					<path class="st45" d="M357.43,764.53c0.76,0.17,1.43,0.13,2-0.17c0.56-0.3,1.05-0.75,1.49-1.29c0.89-1.07,1.62-2.31,2.5-3.55
						c-0.06,0.77-0.27,1.5-0.56,2.21c-0.29,0.71-0.69,1.37-1.18,1.99c-0.51,0.59-1.16,1.15-1.99,1.38
						C358.87,765.34,357.97,765.07,357.43,764.53z"/>
				</g>
			</g>
		</g>
	</g>
	<g>
		<path class="st6" d="M363.79,642c-3.84,3.89-1.63,11.57,0.39,16.42c0.97,2.33,2.52,4.46,2.71,6.98c0.19,2.13-0.58,3.68,0,5.62
			c0.78,2.33,1.16,3.68,1.16,6.2c0.19,2.71,0,3.68,2.91,3.49c4.27-0.19,16.09-0.78,20.19-8.92c0,0-3.9-6.4-4.68-7.37
			c-0.58-0.78-0.58-2.52-0.58-3.49c0-3.1,0.39-3.1-1.94-5.23c-3.3-3.1-3.95-10.2-6.96-13.71C370.38,634.3,363.9,641.89,363.79,642z"
			/>
	</g>
	<g>
		<path d="M356.13,619.84c3.34,1.31,5.53-5.53,2.33-6.25c3.05-1.6,1.89-6.4-0.44-7.85c1.75-1.02,3.05-2.33,3.05-4.51
			c0-1.89-1.16-3.93-3.2-4.07c2.18-1.16,3.49-2.33,3.64-4.8c0.29-2.18-1.02-4.36-3.64-4.07c1.02-3.93,1.16-7.56-2.62-10.03
			c-3.34-2.18-6.69-0.44-9.02,2.18c-0.73-2.18-3.34-2.62-5.38-2.04c-2.33,0.73-3.2,3.34-3.64,5.38c-0.73-2.47-2.91-3.2-5.38-2.62
			c-2.62,0.58-3.34,3.34-3.78,5.67c-1.6-0.29-2.62-2.33-4.65-2.33c-2.04,0-3.49,0.87-4.94,2.18c-2.91,3.05-2.76,7.27-1.16,10.91
			c-3.05,0.15-5.82-0.58-7.12,3.2c-1.16,3.49,0.44,7.27,3.49,9.02c-1.16,0.73-2.04,0.87-2.47,2.33c-0.58,1.45-0.44,3.05,0.15,4.36
			c1.16,2.76,4.07,3.78,6.83,3.78c-2.47,3.49,1.31,8.87,5.38,8.58c-0.58,8.14,14.25,6.54,12.36,1.89L356.13,619.84z"/>
	</g>
	<g>
		<path class="st39" d="M356.86,616.5c-0.38-1.4-0.69-3.04-1.03-4.74c-0.88-0.31-1.72-0.99-2.46-1.8c0.44,4.51-5.67,6.83-7.71,2.47
			c0.29,3.78-4.8,5.23-6.83,2.18c-0.15,4.8-3.78,8.29-8.43,4.65c0,2.18-1.16,4.94-3.34,5.38c1.72,3.44,2.16,6.97,0.35,9.74
			c0.38,1.43,0.77,2.85,1.25,4.22c1.6,4.51,4.65,8.87,8.14,12.21c4.65,4.36,12.65,9.45,17.01,1.6c3.05-5.38,4.51-8.43,5.52-14.54
			C360.35,632.35,358.17,622.02,356.86,616.5z"/>
	</g>
	<g>
		<path class="st39" d="M328.6,635.74c-0.39-2.52-2.52-7.37-5.04-8.43c-6.69-2.71-7.37,6.4-3.78,9.98c2.04,2.04,7.76,4.36,10.47,3.1
			L328.6,635.74z"/>
	</g>
	<g>
		<g>
			<g>
				<path class="st47" d="M341.59,647.62c1.68,0.67,3.32,1.17,5.01,1.42c0.84,0.13,1.68,0.17,2.52,0.11
					c0.84-0.07,1.67-0.26,2.5-0.65c-0.57,0.72-1.46,1.19-2.37,1.42c-0.92,0.24-1.88,0.24-2.8,0.11c-0.92-0.14-1.82-0.41-2.65-0.81
					C342.99,648.81,342.21,648.3,341.59,647.62z"/>
			</g>
			<g>
				<path class="st47" d="M344.79,627.7c1.02,1.5,2.39,2.64,3.77,3.77c0.7,0.56,1.4,1.13,2.1,1.73c0.67,0.63,1.33,1.23,1.95,1.95
					c0.59,0.73,1.17,1.6,1.22,2.7c-0.02,1.1-0.53,2-1.16,2.72c-1.28,1.41-3.02,2.32-4.83,2.54c0.85-0.3,1.65-0.71,2.35-1.24
					c0.72-0.51,1.36-1.11,1.87-1.79c0.49-0.67,0.86-1.47,0.82-2.19c-0.05-0.73-0.49-1.46-1.04-2.1c-0.54-0.65-1.21-1.27-1.83-1.9
					l-1.96-1.84C346.73,630.82,345.47,629.39,344.79,627.7z"/>
			</g>
		</g>
		<g>
			<g>
				<path d="M334.52,628.69c-0.4-1.13-0.44-2.41,0.08-3.59c0.27-0.58,0.68-1.11,1.2-1.47c0.52-0.37,1.12-0.58,1.72-0.61
					c-0.45,0.42-0.86,0.79-1.2,1.19c-0.33,0.41-0.61,0.83-0.82,1.31C335.06,626.45,334.9,627.53,334.52,628.69z"/>
			</g>
			<g>
				<path d="M354.97,622.61c-0.29-0.52-0.57-0.98-0.88-1.41c-0.31-0.42-0.64-0.82-1.01-1.15c-0.36-0.34-0.76-0.61-1.2-0.78
					c-0.45-0.17-0.96-0.21-1.56-0.15c0.41-0.44,1.06-0.68,1.72-0.62c0.66,0.05,1.26,0.39,1.72,0.81c0.46,0.43,0.81,0.95,1.02,1.52
					C354.99,621.4,355.09,622.02,354.97,622.61z"/>
			</g>
		</g>
		<g>
			<path d="M340.33,633.56c0,1.69-0.58,3.05-1.3,3.05c-0.72,0-1.3-1.37-1.3-3.05c0-1.69,0.58-3.05,1.3-3.05
				C339.75,630.51,340.33,631.87,340.33,633.56z"/>
			<path d="M354.67,628.91c0,1.69-0.58,3.05-1.3,3.05c-0.72,0-1.3-1.37-1.3-3.05c0-1.69,0.58-3.05,1.3-3.05
				C354.09,625.85,354.67,627.22,354.67,628.91z"/>
		</g>
	</g>
</g>
</svg>
